<svg xmlns="http://www.w3.org/2000/svg" width="120" height="120" viewBox="0 0 120 120">
  <path
    fill="#6dd743"
    d="M40 65H25a15 15 0 0 1-15-15V30a15 15 0 0 1 15-15h40a15 15 0 0 1 15 15v5a5 5 0 1 1-10 0v-5a5 5 0 0 0-5-5H25a5 5 0 0 0-5 5v20a5 5 0 0 0 5 5h15a5 5 0 1 1 0 10Z"
  />
  <path
    fill="#6dd743"
    d="M35 45a5.25 5.25 0 0 1-3.55-1.45 5.002 5.002 0 0 1-1.05-1.65A5 5 0 0 1 30 40a5.25 5.25 0 0 1 1.45-3.55 5.75 5.75 0 0 1 1.65-1.05 5 5 0 0 1 5.45 1.05 5.001 5.001 0 0 1 0 7.1l-.75.6-.9.45-.9.4h-1zm20 0a5.25 5.25 0 0 1-3.55-1.45l-.6-.75a3.798 3.798 0 0 1-.45-.9 3.2 3.2 0 0 1-.4-.9 7.482 7.482 0 0 1 0-1 5.25 5.25 0 0 1 1.45-3.55 4.998 4.998 0 0 1 1.65-1.05 5 5 0 0 1 5.45 1.05A5.25 5.25 0 0 1 60 40c.022.333.022.667 0 1a3.205 3.205 0 0 1-.3.9 3.79 3.79 0 0 1-.45.9l-.6.75A5.25 5.25 0 0 1 55 45zM45 20a5 5 0 0 1-5-5v-5a5 5 0 0 1 10 0v5a5 5 0 0 1-5 5zm-15 90a5.002 5.002 0 0 1-5-5V90a5 5 0 1 1 10 0v15a5.002 5.002 0 0 1-5 5z"
  />
  <path fill="#6dd743" d="M40 95H30a5 5 0 0 1-5-5V60a5 5 0 1 1 10 0v25h5a5 5 0 1 1 0 10Z" />
  <path
    fill="#6dd743"
    d="M10 85a5 5 0 0 1-2.25-9.45l20-10a5 5 0 0 1 4.5 8.9l-20 10A4.65 4.65 0 0 1 10 85zm70 30a5 5 0 0 1-2.5-.65L52.5 100a5 5 0 0 1-2.5-4.35V66.7a5 5 0 0 1 2.5-4.35l25-14.4a5 5 0 0 1 5 0l25 14.4a5 5 0 0 1 2.5 4.35v28.85a4.995 4.995 0 0 1-2.5 4.35l-25 14.45a5 5 0 0 1-2.5.65zM60 92.7l20 11.55 20-11.55V69.6L80 58.05 60 69.6v23.1zm20-19.05a7.5 7.5 0 1 0 0 15 7.5 7.5 0 0 0 0-15z"
  />
</svg>
