<svg xmlns="http://www.w3.org/2000/svg" width="120" height="120" fill="none" viewBox="0 0 120 120">
  <path
    fill="#6dd743"
    d="M76.25 10a3.75 3.75 0 0 1 3.715 3.24l.035.51v11.625A18.77 18.77 0 0 1 94.625 40h11.625a3.75 3.75 0 0 1 .51 7.465l-.51.035H95v8.75h11.25a3.751 3.751 0 0 1 3.715 3.24L110 60a3.748 3.748 0 0 1-3.24 3.715l-.51.035H95v8.75h11.25a3.751 3.751 0 0 1 3.715 3.24l.035.51a3.748 3.748 0 0 1-3.24 3.715l-.51.035H94.625A18.77 18.77 0 0 1 80 94.63v11.625a3.75 3.75 0 0 1-7.465.51l-.035-.51V95h-8.755l.005 11.255a3.751 3.751 0 0 1-3.24 3.715L60 110a3.748 3.748 0 0 1-3.715-3.24l-.035-.51-.005-11.255H47.5v11.255a3.751 3.751 0 0 1-3.24 3.715l-.51.035a3.748 3.748 0 0 1-3.715-3.24l-.035-.51V94.625A18.77 18.77 0 0 1 25.375 80H13.75a3.75 3.75 0 0 1-.51-7.465l.51-.035L25 72.495v-8.75l-11.25.005a3.75 3.75 0 0 1-3.715-3.24L10 60a3.75 3.75 0 0 1 3.24-3.715l.51-.035L25 56.245v-8.75l-11.25.005a3.75 3.75 0 0 1-3.715-3.24L10 43.75a3.75 3.75 0 0 1 3.24-3.715l.51-.035 11.625-.005A18.77 18.77 0 0 1 40 25.375V13.75a3.75 3.75 0 0 1 7.465-.51l.035.51v11.245h8.745l.005-11.245a3.75 3.75 0 0 1 3.24-3.715L60 10a3.75 3.75 0 0 1 3.715 3.24l.035.51-.005 11.245H72.5V13.75a3.75 3.75 0 0 1 2.75-3.615l.49-.1.51-.035Zm0 22.5h-32.5A11.25 11.25 0 0 0 32.5 43.75v32.5A11.25 11.25 0 0 0 43.75 87.5h32.5A11.25 11.25 0 0 0 87.5 76.25v-32.5A11.25 11.25 0 0 0 76.25 32.5ZM60.025 45.025a15 15 0 1 1 0 30 15 15 0 0 1 0-30Zm0 7.5a7.5 7.5 0 1 0 0 15 7.5 7.5 0 0 0 0-15Z"
  />
</svg>
