<svg xmlns="http://www.w3.org/2000/svg" width="180" height="180" fill="none" viewBox="0 0 180 180">
  <path
    fill="#6dd743"
    d="M143.4 39.462h-11.421c0-5.217-5.124-9.462-11.42-9.462s-11.421 4.245-11.421 9.462h-38.07c0-5.217-5.123-9.462-11.42-9.462s-11.42 4.245-11.42 9.462H36.807c-2.105 0-3.807 1.413-3.807 3.153v78.848c0 1.741 1.702 3.154 3.807 3.154H143.4c2.105 0 3.807-1.413 3.807-3.154V42.616c0-1.741-1.702-3.154-3.807-3.154zm-26.648 0c0-1.738 1.705-3.154 3.807-3.154s3.806 1.416 3.806 3.154v9.461c0 1.738-1.705 3.154-3.806 3.154s-3.807-1.416-3.807-3.154v-9.461zm-60.91 0c0-1.738 1.705-3.154 3.806-3.154s3.807 1.416 3.807 3.154v9.461c0 1.738-1.705 3.154-3.807 3.154s-3.807-1.416-3.807-3.154v-9.461zm-7.614 6.307v3.154c0 5.217 5.124 9.462 11.42 9.462s11.42-4.245 11.42-9.462V45.77h38.07v3.154c0 5.217 5.124 9.462 11.421 9.462s11.42-4.245 11.42-9.462V45.77h7.614v15.77h-98.98V45.77h7.615zm-7.614 72.54V67.847h98.979v50.462h-98.98zm19.034-28.385v6.308c0 1.74-1.702 3.153-3.807 3.153s-3.806-1.412-3.806-3.153v-3.154h-3.807c-2.105 0-3.807-1.413-3.807-3.154s1.702-3.154 3.807-3.154h7.613c2.105 0 3.807 1.413 3.807 3.154zm0 15.769v6.308c0 1.741-1.702 3.154-3.807 3.154s-3.806-1.413-3.806-3.154v-3.154h-3.807c-2.105 0-3.807-1.413-3.807-3.154s1.702-3.154 3.807-3.154h7.613c2.105 0 3.807 1.413 3.807 3.154zm19.035-15.77v6.309c0 1.74-1.702 3.153-3.807 3.153s-3.807-1.412-3.807-3.153v-3.154h-3.807c-2.105 0-3.807-1.413-3.807-3.154s1.702-3.154 3.807-3.154h7.614c2.105 0 3.807 1.413 3.807 3.154zm0 15.77v6.308c0 1.741-1.702 3.154-3.807 3.154s-3.807-1.413-3.807-3.154v-3.154h-3.807c-2.105 0-3.807-1.413-3.807-3.154s1.702-3.154 3.807-3.154h7.614c2.105 0 3.807 1.413 3.807 3.154zm19.034-31.539v6.308c0 1.741-1.702 3.154-3.807 3.154s-3.807-1.413-3.807-3.154v-3.154h-3.806c-2.105 0-3.807-1.413-3.807-3.154s1.702-3.153 3.806-3.153h7.614c2.105 0 3.807 1.412 3.807 3.153zm0 15.77v6.308c0 1.74-1.702 3.153-3.807 3.153s-3.807-1.412-3.807-3.153v-3.154h-3.806c-2.105 0-3.807-1.413-3.807-3.154s1.702-3.154 3.806-3.154h7.614c2.105 0 3.807 1.413 3.807 3.154zm19.035-15.77v6.308c0 1.741-1.702 3.154-3.807 3.154s-3.807-1.413-3.807-3.154v-3.154h-3.807c-2.105 0-3.807-1.413-3.807-3.154s1.702-3.153 3.807-3.153h7.614c2.105 0 3.807 1.412 3.807 3.153zm0 15.77v6.308c0 1.74-1.702 3.153-3.807 3.153s-3.807-1.412-3.807-3.153v-3.154h-3.807c-2.105 0-3.807-1.413-3.807-3.154s1.702-3.154 3.807-3.154h7.614c2.105 0 3.807 1.413 3.807 3.154zm19.034-15.77v6.308c0 1.741-1.702 3.154-3.807 3.154s-3.807-1.413-3.807-3.154v-3.154h-3.807c-2.104 0-3.806-1.413-3.806-3.154s1.702-3.153 3.806-3.153h7.614c2.105 0 3.807 1.412 3.807 3.153zm0 15.77v6.308c0 1.74-1.702 3.153-3.807 3.153s-3.807-1.412-3.807-3.153v-3.154h-3.807c-2.104 0-3.806-1.413-3.806-3.154s1.702-3.154 3.806-3.154h7.614c2.105 0 3.807 1.413 3.807 3.154z"
  />
</svg>
