<svg width="150" height="132" viewBox="0 0 150 132" fill="none" xmlns="http://www.w3.org/2000/svg">
<path d="M46.875 92.5958C58.5248 92.5958 67.9688 84.3045 67.9688 74.0767C67.9688 63.8488 58.5248 55.5575 46.875 55.5575C35.2252 55.5575 25.7812 63.8488 25.7812 74.0767C25.7812 84.3045 35.2252 92.5958 46.875 92.5958Z" stroke="#6DD743" stroke-width="14.0625" stroke-linecap="round" stroke-linejoin="round"/>
<path d="M103.125 51.4421C114.775 51.4421 124.219 43.1508 124.219 32.923C124.219 22.6951 114.775 14.4038 103.125 14.4038C91.4752 14.4038 82.0312 22.6951 82.0312 32.923C82.0312 43.1508 91.4752 51.4421 103.125 51.4421Z" stroke="#6DD743" stroke-width="14.0625" stroke-linecap="round" stroke-linejoin="round"/>
<path d="M72.6562 76.1343C72.6562 67.9036 79.6875 51.4421 103.125 51.4421C126.562 51.4421 133.594 67.9036 133.594 76.1343M16.4062 117.288C16.4062 109.057 23.4375 92.5958 46.875 92.5958C70.3125 92.5958 77.3438 109.057 77.3438 117.288" stroke="#6DD743" stroke-width="14.0625" stroke-linecap="round" stroke-linejoin="round"/>
</svg>
