<svg xmlns="http://www.w3.org/2000/svg" width="180" height="180" fill="none" viewBox="0 0 180 180">
  <path
    fill="#6dd743"
    d="M16.6 127.204c0 1.73.973 3.328 2.551 4.192a5.345 5.345 0 0 0 5.102 0c1.579-.864 2.551-2.462 2.551-4.192v-9.034c0-12.103 6.807-23.286 17.857-29.339s24.663-6.052 35.713 0 17.857 17.235 17.857 29.339v9.034c0 1.73.973 3.328 2.551 4.192a5.345 5.345 0 0 0 5.102 0c1.578-.864 2.551-2.462 2.551-4.192v-9.034c-.015-8.787-2.83-17.365-8.076-24.608s-12.676-12.814-21.318-15.98C87.206 72.975 92.819 65.19 94.386 56.3s-1.068-17.982-7.207-24.86-15.16-10.847-24.662-10.847-18.521 3.967-24.66 10.846-8.776 15.972-7.21 24.861 7.18 16.675 15.346 21.284c-8.641 3.165-16.073 8.735-21.319 15.979s-8.06 15.821-8.074 24.608v9.034zm45.917-96.791c5.863 0 11.487 2.209 15.633 6.142s6.475 9.268 6.475 14.829-2.329 10.896-6.475 14.83-9.77 6.142-15.633 6.142-11.487-2.21-15.633-6.142-6.476-9.268-6.476-14.83c.008-5.56 2.34-10.89 6.484-14.821s9.764-6.144 15.625-6.15zm84.031 57.403c5.51-4.218 8.924-10.417 9.426-17.116s-1.954-13.295-6.779-18.209-11.587-7.704-18.667-7.704-13.841 2.79-18.666 7.704-7.281 11.51-6.779 18.209 3.916 12.898 9.426 17.116a32.12 32.12 0 0 0-6.497 4.516c-1.022.883-1.622 2.12-1.665 3.429s.476 2.58 1.438 3.52a5.244 5.244 0 0 0 3.666 1.47 5.241 5.241 0 0 0 3.662-1.476c4.241-3.713 9.81-5.757 15.58-5.72s11.31 2.158 15.495 5.927c4.157 3.929 6.484 9.274 6.462 14.841v6.453c0 1.729.972 3.327 2.551 4.191a5.338 5.338 0 0 0 5.101 0c1.579-.864 2.551-2.462 2.551-4.191v-6.453c.025-8.147-3.39-15.964-9.481-21.707a32.723 32.723 0 0 0-6.824-4.8zm-31.291-18.714c.007-3.85 1.627-7.54 4.502-10.258s6.77-4.241 10.829-4.234 7.949 1.541 10.814 4.268 4.473 6.422 4.467 10.272-1.624 7.54-4.499 10.26-6.769 4.243-10.828 4.237-7.949-1.534-10.818-4.256-4.484-6.413-4.487-10.262l.02-.027z"
  />
</svg>
