<svg width="150" height="150" viewBox="0 0 150 150" fill="none" xmlns="http://www.w3.org/2000/svg">
<g clip-path="url(#clip0_311_439)">
<path d="M118.75 43.75C118.75 43.75 87.5 87.5 40.625 87.5C28.125 87.5 6.25 93.75 6.25 118.75V143.75H75V118.75C75 103.125 93.75 112.5 118.75 68.75L109.375 59.375M18.75 31.25V12.5H143.75V100H125M68.75 6.25H93.75V18.75H68.75V6.25ZM40.625 87.5C46.4266 87.5 51.9906 85.1953 56.093 81.093C60.1953 76.9906 62.5 71.4266 62.5 65.625C62.5 59.8234 60.1953 54.2594 56.093 50.157C51.9906 46.0547 46.4266 43.75 40.625 43.75C34.8234 43.75 29.2594 46.0547 25.157 50.157C21.0547 54.2594 18.75 59.8234 18.75 65.625C18.75 71.4266 21.0547 76.9906 25.157 81.093C29.2594 85.1953 34.8234 87.5 40.625 87.5V87.5Z" stroke="#6DD743" stroke-width="12.5"/>
</g>
<defs>
<clipPath id="clip0_311_439">
<rect width="150" height="150" fill="white"/>
</clipPath>
</defs>
</svg>
