<svg
  xmlns="http://www.w3.org/2000/svg"
  width="180"
  height="180"
  viewBox="0 0 180 180"
>
  <path
    fill="#6dd743"
    d="M125.754 67.806H54.056c-2.012 0-3.642-1.442-3.642-3.22v-36.23c0-1.779 1.63-3.22 3.642-3.22h71.698c.965 0 1.891.34 2.575.943s1.067 1.423 1.067 2.277v36.23c0 .854-.384 1.674-1.067 2.277s-1.61.944-2.575.944zm-68.056-6.44h64.414V31.577H57.698v29.79zm73.175 16.409H48.921c-2.01 0-3.642-1.442-3.642-3.22s1.631-3.22 3.642-3.22h81.952c2.012 0 3.642 1.441 3.642 3.22s-1.63 3.22-3.642 3.22z"
  />
  <path
    fill="#6dd743"
    d="M73.562 95.89a4.078 4.078 0 0 1-1.44-.257c-1.816-.732-2.63-2.62-1.82-4.235l8.905-18.115c.817-1.606 2.942-2.334 4.77-1.635s2.68 2.57 1.913 4.196l-8.977 18.115c-.582 1.177-1.899 1.936-3.351 1.932zm52.192-28.084H54.056c-2.012 0-3.642-1.442-3.642-3.22v-36.23c0-1.779 1.63-3.22 3.642-3.22h71.698c.965 0 1.891.34 2.575.943s1.067 1.423 1.067 2.277v36.23c0 .854-.384 1.674-1.067 2.277s-1.61.944-2.575.944zm-68.056-6.44h64.414V31.577H57.698v29.79zm48.534 34.524c-1.446-.002-2.754-.76-3.332-1.932l-8.905-18.114a2.88 2.88 0 0 1-.075-2.485c.353-.804 1.054-1.449 1.948-1.791a4.083 4.083 0 0 1 2.81-.032c.905.322 1.625.951 2 1.747l8.905 18.114c.809 1.616-.004 3.504-1.82 4.236a4.078 4.078 0 0 1-1.531.257z"
  />
  <path
    fill="#6dd743"
    d="M89.897 95.89c-2.011 0-3.642-1.442-3.642-3.22V74.555c0-1.779 1.631-3.22 3.642-3.22s3.642 1.441 3.642 3.22V92.67c0 .854-.384 1.674-1.066 2.277s-1.61.943-2.576.943zm0-64.313c-2.011 0-3.642-1.442-3.642-3.22v-9.05c0-1.779 1.631-3.22 3.642-3.22s3.642 1.441 3.642 3.22v9.05c0 1.778-1.63 3.22-3.642 3.22zm-2.371 129.605c-.97.001-1.902-.34-2.585-.949l-69.314-61.3c-1.413-1.258-1.413-3.286 0-4.542l11.546-10.224v-.002c.683-.604 1.61-.944 2.576-.944s1.894.34 2.578.944l69.33 61.304c.685.603 1.068 1.423 1.068 2.278s-.383 1.674-1.068 2.279l-11.564 10.208c-.68.605-1.603.946-2.569.95l.002-.002zM23.35 96.598l64.176 56.809 6.392-5.668-64.176-56.743-6.392 5.602z"
  />
  <path
    fill="#6dd743"
    d="M106.157 167.447a3.923 3.923 0 0 1-1.293-.209l-18.63-6.231c-1.162-.385-2.022-1.265-2.284-2.336s.112-2.188.991-2.962l11.582-10.24c.873-.771 2.128-1.098 3.333-.871s2.199.98 2.641 1.997l7.085 16.489h-.002c.427.993.272 2.107-.411 2.978s-1.812 1.391-3.012 1.385zm-12.075-10.724l5.792 1.949-2.204-5.137-3.588 3.188zm20.361-19.338c-1.476.001-2.807-.786-3.37-1.992s-.246-2.596.803-3.515l19.595-17.342c1.438-1.249 3.75-1.231 5.163.04s1.393 3.316-.045 4.565l-19.578 17.294c-.68.605-1.603.947-2.568.95z"
  />
  <path
    fill="#6dd743"
    d="M144.912 123.971c-5.901-.055-11.438-2.531-14.985-6.703s-4.696-9.563-3.115-14.59 5.715-9.12 11.188-11.074 11.661-1.546 16.747 1.101 8.492 7.233 9.216 12.413-1.316 10.36-5.52 14.023c-3.595 3.149-8.47 4.89-13.531 4.831v-.001zm0-27.147c-3.119-.013-6.113 1.077-8.32 3.023s-3.445 4.595-3.438 7.351 1.256 5.398 3.471 7.338c2.199 1.94 5.18 3.031 8.287 3.031s6.087-1.091 8.286-3.031c2.217-1.94 3.467-4.581 3.473-7.338s-1.232-5.403-3.439-7.35-5.202-3.037-8.32-3.024z"
  />
  <path
    fill="#6dd743"
    d="M114.443 137.385c-1.476.001-2.807-.786-3.37-1.992s-.246-2.596.803-3.515l19.595-17.342c1.438-1.249 3.75-1.231 5.163.04s1.393 3.316-.045 4.565l-19.578 17.294c-.68.605-1.603.947-2.568.95z"
  />
</svg>
