<svg
  xmlns="http://www.w3.org/2000/svg"
  viewBox="0 0 368 69"
  style="enable-background: new 0 0 368 69"
  xml:space="preserve"
>
  <path
    d="M128.7 18.8c-8.7 0-15.8 7.1-15.8 15.8 0 8.7 7.1 15.8 15.8 15.8 8.7 0 15.8-7.1 15.8-15.8-.1-8.8-7.1-15.8-15.8-15.8zm0 25.5c-5.4 0-9.8-4.4-9.8-9.8s4.4-9.8 9.8-9.8 9.8 4.4 9.8 9.8c-.1 5.4-4.5 9.8-9.8 9.8zM90.8 18.8c-8.7 0-15.7 7-15.8 15.7v34.8h6.3s-.1-22.2 0-22.1c2.6 2 5.9 3.1 9.5 3.1 8.7 0 15.8-7.1 15.8-15.8 0-8.6-7.1-15.7-15.8-15.7zm0 25.6c-5.4 0-9.8-4.4-9.8-9.8s4.4-9.8 9.8-9.8 9.8 4.4 9.8 9.8c-.1 5.4-4.4 9.8-9.8 9.8zm-69.5-3.1zM167 44.2c-5.5 0-10-4.5-10-10V0h-6.2v34.2c0 8.9 7.3 16.2 16.2 16.2h2.7v-6.2H167zM64 23.5c-4.2-4.2-10.1-5.5-15.4-4-.4.1-4.6 1.5-6.9 4L22.8 41.1c-1.1 1-2 1.9-3.4 2.5-1.4.6-2.8.9-4.3.8-2.3-.2-4.5-1.1-6.2-2.8-1.3-1.3-2.2-2.9-2.6-4.6h14l9.7-9c-.9-1.7-2.4-3.8-3.1-4.5-6.2-6.2-16.2-6.1-22.3 0-6.2 6.2-6.1 16.2 0 22.3 4.2 4.2 10.1 5.5 15.4 4 2.5-.7 5-1.9 7-3.9l20-18.6c3.8-3.3 9.2-3.3 12.8.3 3.8 3.8 3.8 10 0 13.8-2.7 2.7-6.7 3.5-10.1 2.3v6.2c5 1 10.4-.4 14.3-4.3 6.2-5.9 6.2-15.9 0-22.1zM9 27.7c1.8-1.7 4.2-2.8 6.9-2.8 2.8 0 5.3 1.2 7 3.1L19 31.5H6.6c.5-1.5 1.3-2.8 2.4-3.8zm176.1-6.3V24h4.3v2.4h-4.3V29h5v2.4h-7.8V19h7.8v2.4h-5zm6.2 8.8 1.1-1.8c.7.5 1.9.9 2.8.9.8 0 1.3-.3 1.3-.8 0-.7-.9-.7-2.1-1.1-1.3-.4-2.7-.9-2.7-2.6 0-1.9 1.7-2.7 3.7-2.7 1.3 0 2.5.4 3.3.9l-1.1 1.6c-.7-.4-1.7-.7-2.4-.7s-1.1.2-1.1.7c0 .6 1 .8 2.1 1.1 1.7.4 2.8 1 2.8 2.7 0 1.9-1.5 3-3.7 3-1.8 0-3.2-.6-4-1.2zm8.8-3.4c0-2.6 2-4.6 4.7-4.6 1.9 0 3.6 1.1 4.3 2.8l-2.2.9c-.3-.8-1.1-1.4-2-1.4-1.3 0-2.2 1-2.2 2.2 0 1.3.9 2.2 2.2 2.2.9 0 1.7-.5 2-1.3l2.2.9c-.7 1.7-2.3 2.8-4.3 2.8-2.7.1-4.7-1.9-4.7-4.5zm10.4 1v-5.5h2.7v5.3c0 1 .6 1.5 1.4 1.5.8 0 1.4-.5 1.4-1.5v-5.3h2.7v5.5c0 2.2-1.5 3.6-4.1 3.6-2.6 0-4.1-1.4-4.1-3.6zm19.1-.5H223c.2 1.3 1 2 2.2 2 .9 0 1.6-.4 2-1.2l2.1.9c-.7 1.5-2.2 2.4-4.1 2.4-2.9 0-4.8-2-4.8-4.6 0-2.6 2-4.6 4.7-4.6 2.6 0 4.6 1.8 4.6 4.5v.6zm-6.5-1.7h3.8c-.3-.9-.8-1.4-1.8-1.4-1.1 0-1.7.5-2 1.4zm8.3-6.6h2.7v12.4h-2.7V19zm14.3 3.3v8.9h-2.4l-.1-1.2c-.6.8-1.5 1.4-2.9 1.4-2.3 0-4.3-1.9-4.3-4.6 0-2.7 2-4.6 4.3-4.6 1.3 0 2.2.5 2.8 1.3v-1h2.6zm-2.5 4.4c0-1.3-1-2.3-2.3-2.3-1.3 0-2.3 1-2.3 2.3s1 2.3 2.3 2.3c1.3.1 2.3-1 2.3-2.3zm8.4 2.5 1.8-1.8c.9 1.1 1.7 1.7 2.9 1.7 1 0 1.5-.5 1.5-1.2 0-1-1.1-1.4-2.4-1.9-1.5-.6-3.3-1.4-3.3-3.6s1.9-3.5 4-3.5c1.7 0 3 .8 4 1.8l-1.7 1.6c-.9-1-1.7-1.2-2.3-1.2-.7 0-1.3.4-1.3 1 0 .9 1.1 1.3 2.3 1.7 1.6.7 3.4 1.5 3.4 3.9s-2 3.7-4.2 3.7-3.9-1.3-4.7-2.2zm10.4-1.4v-5.5h2.7v5.3c0 1 .6 1.5 1.4 1.5s1.4-.5 1.4-1.5v-5.3h2.7v5.5c0 2.2-1.5 3.6-4.1 3.6-2.6 0-4.1-1.4-4.1-3.6zm20.3-1c0 2.7-2 4.6-4.3 4.6-1.3 0-2.2-.5-2.8-1.3v5.6h-2.7V22.3h2.4l.1 1.2c.6-.8 1.5-1.4 2.9-1.4 2.4.1 4.4 2 4.4 4.7zm-2.7 0c0-1.3-1-2.3-2.3-2.3-1.3 0-2.3 1-2.3 2.3 0 1.3 1 2.3 2.3 2.3 1.3 0 2.3-1 2.3-2.3zm13.1.5h-6.6c.2 1.3 1 2 2.2 2 .9 0 1.6-.4 2-1.2l2.1.9c-.7 1.5-2.2 2.4-4.1 2.4-2.9 0-4.8-2-4.8-4.6 0-2.6 2-4.6 4.7-4.6 2.6 0 4.6 1.8 4.6 4.5v.6zm-6.5-1.7h3.8c-.3-.9-.8-1.4-1.8-1.4s-1.7.5-2 1.4zm14.9-3-.9 2.3c-.3-.2-.6-.3-.9-.3-1.1 0-2 1-2 2.5v4.1h-2.7v-8.9h2.7v1.4c.5-1 1.3-1.6 2.4-1.6.6.1 1 .2 1.4.5zm1.1-3.3c0-.8.7-1.5 1.5-1.5s1.5.7 1.5 1.5-.7 1.5-1.5 1.5-1.5-.7-1.5-1.5zm.2 3h2.6v8.9h-2.6v-8.9zm4.5 4.5c0-2.6 2-4.6 4.7-4.6s4.7 2 4.7 4.6-2 4.6-4.7 4.6-4.7-2.1-4.7-4.6zm6.9 0c0-1.3-1-2.3-2.2-2.3-1.2 0-2.2.9-2.2 2.3 0 1.3 1 2.3 2.2 2.3 1.2-.1 2.2-1 2.2-2.3zm10.9-4.2-.9 2.3c-.3-.2-.6-.3-.9-.3-1.1 0-2 1-2 2.5v4.1h-2.7v-8.9h2.7v1.4c.5-1 1.3-1.6 2.4-1.6.6.1 1.1.2 1.4.5zM192.1 41.7c0 2.1-1.6 3.7-3.7 3.7h-3.2v5.1h-2.8V37.9h6c2 0 3.7 1.7 3.7 3.8zm-2.7 0c0-.8-.7-1.4-1.5-1.4h-2.8V43h2.8c.9 0 1.5-.5 1.5-1.3zm3 4.2c0-2.6 2-4.7 4.8-4.7 2.7 0 4.8 2.1 4.8 4.7s-2.1 4.6-4.8 4.6c-2.7.1-4.8-2-4.8-4.6zm7 0c0-1.3-1-2.3-2.2-2.3-1.2 0-2.2.9-2.2 2.3s1 2.3 2.2 2.3c1.2 0 2.2-.9 2.2-2.3zm4.4-8h2.7v12.5h-2.7V37.9zm5.2.5c0-.8.7-1.5 1.5-1.5s1.5.7 1.5 1.5-.7 1.5-1.5 1.5-1.5-.7-1.5-1.5zm.2 3.1h2.7v9h-2.7v-9zm10.3 2h-1.7v6.9h-2.7v-6.9h-1.7v-2.1h1.7v-3.2h2.7v3.2h1.7v2.1zm10.1 2.9h-6.7c.2 1.3 1 2 2.2 2 .9 0 1.6-.4 2.1-1.2l2.1.9c-.7 1.5-2.2 2.4-4.2 2.4-3 0-4.9-2-4.9-4.6 0-2.6 2-4.7 4.8-4.7 2.6 0 4.6 1.8 4.6 4.6v.6zm-6.5-1.7h3.8c-.3-.9-.9-1.4-1.8-1.4-1.1 0-1.7.6-2 1.4zm1.9-4.2-1-1.1 2.9-3.1 1.3 1.4-3.2 2.8zm5.7 5.4c0-2.6 2-4.7 4.8-4.7 2 0 3.6 1.1 4.3 2.8l-2.2.9c-.3-.8-1.1-1.4-2.1-1.4-1.3 0-2.2 1-2.2 2.3 0 1.3 1 2.2 2.2 2.2 1 0 1.7-.5 2.1-1.4l2.2.9c-.7 1.7-2.3 2.8-4.3 2.8-2.8.3-4.8-1.8-4.8-4.4zm19.2-1.2v5.7h-2.7V45c0-.9-.6-1.4-1.5-1.4s-1.5.6-1.5 1.5v5.3h-2.7v-9h2.7v.9c.7-.7 1.6-1.1 2.5-1.1 1.8.1 3.2 1.6 3.2 3.5zm2.2-6.3c0-.8.7-1.5 1.5-1.5s1.5.7 1.5 1.5-.7 1.5-1.5 1.5-1.5-.7-1.5-1.5zm.2 3.1h2.7v9h-2.7v-9zm4.5 4.4c0-2.6 2-4.7 4.8-4.7 2 0 3.6 1.1 4.3 2.8l-2.2.9c-.3-.8-1.1-1.4-2.1-1.4-1.3 0-2.2 1-2.2 2.3 0 1.3 1 2.2 2.2 2.2 1 0 1.7-.5 2.1-1.4l2.2.9c-.7 1.7-2.3 2.8-4.3 2.8-2.7.3-4.8-1.8-4.8-4.4zm19.9-4.4v9h-2.5l-.1-1.2c-.6.8-1.5 1.4-3 1.4-2.3 0-4.3-2-4.3-4.7s2-4.7 4.3-4.7c1.3 0 2.2.5 2.8 1.3v-1.1h2.8zm-2.5 4.4c0-1.3-1-2.3-2.3-2.3-1.3 0-2.3 1-2.3 2.3s1 2.4 2.3 2.4c1.3 0 2.3-1.1 2.3-2.4zm18.9-8v12.5h-2.5l-.1-1.2c-.6.8-1.5 1.4-3 1.4-2.3 0-4.3-2-4.3-4.7s2-4.7 4.3-4.7c1.3 0 2.2.5 2.8 1.3v-4.6h2.8zm-2.5 8c0-1.3-1-2.3-2.3-2.3-1.3 0-2.3 1-2.3 2.3s1 2.4 2.3 2.4c1.2 0 2.3-1.1 2.3-2.4zm13.7.5h-6.7c.2 1.3 1 2 2.2 2 .9 0 1.6-.4 2.1-1.2l2.1.9c-.7 1.5-2.2 2.4-4.2 2.4-3 0-4.9-2-4.9-4.6 0-2.6 2-4.7 4.8-4.7 2.6 0 4.6 1.8 4.6 4.6v.6zm-6.5-1.7h3.8c-.3-.9-.9-1.4-1.8-1.4-1 0-1.7.6-2 1.4zm8.4-6.8h2.7v12.5h-2.7V37.9zM321.6 48v2.4h-6.7V37.9h2.7V48h4zm1.3-9.6c0-.8.7-1.5 1.5-1.5s1.5.7 1.5 1.5-.7 1.5-1.5 1.5-1.5-.7-1.5-1.5zm.2 3.1h2.7v9h-2.7v-9zm10.3 2h-1.7v6.9H329v-6.9h-1.7v-2.1h1.7v-3.2h2.7v3.2h1.7v2.1zm.7 2.4c0-2.6 2-4.7 4.8-4.7 2.7 0 4.8 2.1 4.8 4.7s-2.1 4.6-4.8 4.6c-2.8.1-4.8-2-4.8-4.6zm7 0c0-1.3-1-2.3-2.2-2.3-1.2 0-2.2.9-2.2 2.3s1 2.3 2.2 2.3c1.2 0 2.2-.9 2.2-2.3zm11-4.2-.9 2.3c-.3-.2-.6-.3-.9-.3-1.1 0-2.1 1-2.1 2.5v4.1h-2.7v-9h2.7v1.4c.5-1 1.3-1.6 2.5-1.6.6.2 1 .4 1.4.6zm10.1-.2v9h-2.5l-.1-1.2c-.6.8-1.5 1.4-3 1.4-2.3 0-4.3-2-4.3-4.7s2-4.7 4.3-4.7c1.3 0 2.2.5 2.8 1.3v-1.1h2.8zm-2.5 4.4c0-1.3-1-2.3-2.3-2.3-1.3 0-2.3 1-2.3 2.3s1 2.4 2.3 2.4c1.2 0 2.3-1.1 2.3-2.4zm5.1-8h2.7v12.5h-2.7V37.9z"
    style="fill: #233265"
  />
</svg>
