<svg xmlns="http://www.w3.org/2000/svg" width="268.7" height="263">
	<path fill="#f59e0b" d="m73.3 150.3 3.6 19 36.216 22.92-6.816-26.42 53.5-5.2 37.2-28.9 12.8-20.8.9 9.2 15.6 16.5-9.9-34.4-14.5-23.5z" />
	<path fill="#dc2626" d="m201.9 78.7-31.2-39.3-12.45 63.603Z" />
	<path fill="#f59e0b" d="M201.9 78.7 235.2 0l-36.9 7.7-27.6 31.7Z" />
	<path fill="#c2410c" d="M223.011 125.17 241.8 133l-14.3-12.8 12.5-1-17-3.9 4.9-11.1-8.66 7.868zM201.9 78.7l66.8-42.6-1.8-15.2-15.4-2.7L235.2 0Z" />
	<path fill="#713f12" d="M163.974 73.76 143.6 76.6l-20.9-13.2 11.9 22.9 26.767.78zm-60.984 60.01 18.71-24.37-15.7-5.5 4.7-13.5-20.9 22.3 10.4-.5-26.9 38.1z" />
	<path fill="#dc2626" d="M100.91 100.846 91.3 82.2l-.7 19.3-13.9-3.6 13.1 14.8Zm44.61-24.514 6.18-6.832-7.4 1.5-3.5-17.5-2.8 12-10.5-14.6 4.58 18.424L143.6 76.6Z" />
	<path fill="#c2410c" d="m106.3 165.8 8.9 34.5L93 221.7l-7.2 28.2 39.8-49.7 2.1-12.3z" />
	<path fill="#713f12" d="m94.87 238.574 6.03 3.226 7.7 21.2 2.5-16 12.2 7.6-9-22.6 10.5-2.9-10.1-2.7 1.18-14.062z" />
	<path fill="#dc2626" d="m73.3 150.3-23 19.1-6.1 21.4 32.7-21.5z" />
	<path fill="#f59e0b" d="m73.3 150.3-54.8 20.9L38.1 212l12.2-42.6Z" />
	<path fill="#c2410c" d="M18.5 171.2 0 223.7 38.1 212Z" />
	<path fill="#713f12" d="M23.9 263h37.79-.09l17.6-32.1-20.8-25.7-10 3.1-4.2-17.5-6.1 21.2L0 223.7l30.2 18.9Z" />
	<path fill="#dc2626" d="M0 223.7 23.9 263l6.3-20.4Z" />
</svg>
