<svg xmlns="http://www.w3.org/2000/svg" width="192" height="189.161">
	<path fill="#f59e0b" d="m52.4 107.351 2.526 13.621 25.895 16.362-4.875-18.883 38.215-3.74 26.557-20.622 9.204-14.865.61 6.599 11.162 11.762-7.058-24.536-10.415-16.801z" />
	<path fill="#dc2626" d="M144.221 56.248 121.968 28.17l-8.905 45.419Z" />
	<path fill="#f59e0b" d="M144.221 56.248 168.026 0l-26.359 5.47-19.7 22.7Z" />
	<path fill="#c2410c" d="M144.221 56.248 192 25.808l-1.344-10.883-10.954-1.901L168.026 0Zm15.127 33.181 13.375 5.616-10.179-9.168 8.956-.707-12.17-2.816 3.47-7.886-6.146 5.597z" />
	<path fill="#713f12" d="m73.585 95.56 13.402-17.372-11.26-3.968 3.395-9.627-14.977 15.943 7.448-.367L52.4 107.351Zm43.573-42.859-14.525 2.047-14.94-9.453 8.461 16.35 19.14.57Z" />
	<path fill="#dc2626" d="m103.98 54.558 4.43-4.883-5.31 1.017-2.47-12.456-2.046 8.584-7.486-10.455 3.28 13.16 8.255 5.223zM72.112 72.056l-6.865-13.337-.476 13.82-9.983-2.56 9.357 10.557Z" />
	<path fill="#c2410c" d="m75.946 118.451 6.369 24.667-15.862 15.284-5.128 20.13 28.44-35.496 1.47-8.759z" />
	<path fill="#713f12" d="m67.787 170.466 4.282 2.31 5.53 16.385 1.784-12.622 8.735 5.387-6.467-16.183 7.484-2.04-7.181-1.911.86-10.08z" />
	<path fill="#dc2626" d="m52.4 107.351-16.481 13.68-4.34 15.259 23.347-15.318z" />
	<path fill="#f59e0b" d="m52.4 107.351-39.194 14.972L27.26 151.48l8.659-30.45z" />
	<path fill="#c2410c" d="M13.206 122.323 0 159.806l27.26-8.326Z" />
	<path fill="#dc2626" d="m0 159.806 17.1 28.1 4.5-14.6z" />
	<path fill="#713f12" d="M17.1 187.906h26.983H44l12.6-22.9-14.9-18.4-7.1 2.2-3.02-12.516-4.32 15.19L0 159.806l21.6 13.5Z" />
</svg>
