<svg xmlns="http://www.w3.org/2000/svg" width="573.916" height="264.774">
	<path fill="#f59e0b" d="m221.989 150.263 3.536 19.065 36.246 22.903-6.824-26.432 53.49-5.235 37.173-28.865 12.883-20.807.854 9.237 15.624 16.464-9.88-34.344-14.578-23.517z" />
	<path fill="#dc2626" d="M350.513 78.732 319.365 39.43l-12.464 63.575Z" />
	<path fill="#f59e0b" d="M350.513 78.732 383.834 0l-36.895 7.657-27.575 31.773Z" />
	<path fill="#c2410c" d="m350.513 78.732 66.878-42.608-1.881-15.233-15.333-2.66L383.834 0Zm21.174 46.444 18.722 7.861-14.248-12.832 12.536-.99-17.036-3.942 4.857-11.038-8.603 7.834z" />
	<path fill="#713f12" d="m251.642 133.758 18.76-24.316-15.762-5.554 4.752-13.475-20.963 22.316 10.425-.514-26.865 38.047zm60.99-59.99-20.33 2.864-20.912-13.231 11.843 22.885 26.79.798z" />
	<path fill="#dc2626" d="m294.187 76.366 6.2-6.834-7.432 1.423-3.457-17.435-2.864 12.015-10.478-14.634 4.59 18.42 11.555 7.311zm-44.607 24.493-9.609-18.668-.666 19.344-13.974-3.583 13.098 14.777z" />
	<path fill="#c2410c" d="m254.947 165.799 8.915 34.528-22.203 21.393-7.178 28.177 39.809-49.685 2.057-12.26z" />
	<path fill="#713f12" d="m243.526 238.606 5.994 3.234 7.74 22.934 2.498-17.667 12.226 7.54-9.052-22.652 10.476-2.855-10.052-2.675 1.204-14.11z" />
	<path fill="#dc2626" d="m221.989 150.263-23.07 19.148-6.074 21.358 32.68-21.44z" />
	<path fill="#f59e0b" d="m221.989 150.263-54.861 20.956 19.672 40.812 12.12-42.622z" />
	<path fill="#c2410c" d="m167.128 171.219-18.485 52.466 38.157-11.654Z" />
	<path fill="#713f12" d="M172.578 263.018h37.77-.117l17.637-32.054-20.856-25.755-9.938 3.08-4.228-17.52-6.046 21.262-38.157 11.654 30.234 18.897zm272.788-32.984 128.55-117.419v45.808z" />
	<path fill="#84cc16" d="m445.366 41.005 128.55 117.418v-45.808zm-316.816 0L0 158.423v-45.808z" />
	<path fill="#713f12" d="M128.55 230.034 0 112.615v45.808z" />
	<path fill="#dc2626" d="m148.643 223.685 23.935 39.333 6.299-20.436z" />
</svg>
