<svg xmlns="http://www.w3.org/2000/svg" id="svg34" width="418.465" height="412.648" version="1.1">
  <style id="style1">
    .B {
      fill: #553721;
    }
    .C {
      fill: #e23201;
    }
    .D {
      fill: #c45321;
    }
    .E {
      fill: #fd9415;
    }
  </style>
  <g id="g4" class="C" transform="translate(-229.136 .025)">
    <path id="path2" d="m447.379 83.003-6.642 51.476 15.333-16.322z" />
    <path id="path3" d="m440.739 134.482-14.115-57.288 29.448 40.966Z" />
    <path id="path4" d="m465.645 107.91-24.732 26.144 13.108-23.654Z" />
  </g>
  <g id="g7" class="D" transform="translate(-229.136 .025)">
    <path id="path5" d="m557.923 186.787 11.623-13.283 36.531 34.04z" />
    <path id="path6" d="m557.923 186.787 26.568-25.738-16.747 35.86z" />
    <path id="path7" d="m555.35 173.908 49.903 12.047-47.324.831z" />
  </g>
  <g id="g9" class="B" transform="translate(-229.136 .025)">
    <path id="path8" d="m419.273 97.95 19.095 36.53 47.324 2.493z" />
    <path id="path9" d="m488.178 113.723-56.954 6.765 57.236 17.277z" />
  </g>
  <g id="g11" class="C" transform="translate(-229.136 .025)">
    <path id="path10" d="M348.701 151.922 368.627 176l50.647-5.812Z" />
    <path id="path11" d="m371.94 128.669-3.32 47.324 25.737-4.15z" />
  </g>
  <path id="path12" d="m173.524 138.654-34.04 37.361 21.728-1.408z" class="B" />
  <path id="path13" d="m244.935 163.573 20.756-101.292 150.276-29.889Z" class="C" />
  <path id="path14" d="m418.451 55.629-2.49-23.247-107.106-19.927 97.14 50.646z" class="D" />
  <g id="g16" class="C" transform="translate(-229.136 .025)">
    <path id="path15" d="m474.071 165.201 173.53-108.764-109.595-44.004Z" />
    <path id="path16" d="m494.817 62.244 48.72 59.654-6.375 82.32-58.95 45.664z" />
  </g>
  <path id="path17" d="m190.137 170.213-71.404 92.99-4.15-29.89 50.645-73.064z" class="B" />
  <path id="path18" d="m118.725 263.197 77.214 48.155 2.49-19.096-62.268-64.76z" class="E" />
  <path id="path19" d="m166.057 258.211 16.605 68.911 15.774-34.87z" class="D" />
  <g id="g22" class="B" transform="translate(-229.136 .025)">
    <path id="path20" d="m376.1 371.103 45.665 24.907-13.884-34.147-3.55-31.443z" />
    <path id="path21" d="m374.434 344.543 49.815 11.624-57.64 18.141z" />
    <path id="path22" d="m411.553 328.237-13.037 84.386-24.078-68.08z" />
  </g>
  <path
    id="path23"
    d="M114.579 233.305 314.667 122.05l21.587 34.87-28.228 47.325-58.95 45.664-132.01 13.284zM265.681 62.269l43.174-49.816L366.143 0l-51.476 122.047Z"
    class="E"
  />
  <path id="path24" d="m366.146.004-51.475 122.047 103.781-65.59Z" class="D" />
  <path
    id="path25"
    d="m336.253 156.92 16.605 55.628-24.077-25.74-14.114-64.76zm-221.674 76.385-85.518 33.21 8.303 142.81 31.965-113.331z"
    class="E"
  />
  <path id="path26" d="m97.139 408.487-68.082-141.97L0 347.882Z" class="D" />
  <path id="path27" d="M123.712 358.675 37.364 409.32.004 347.88Z" class="C" />
  <g id="g29" class="B" transform="translate(-229.136 .025)">
    <path id="path28" d="m298.049 296.385 28.229 112.085-59.779.83z" />
    <path id="path29" d="m319.635 318.797 33.21 39.854-26.569 49.815-97.139-60.61z" />
  </g>
  <path id="path30" d="m68.913 296.41 51.033-34.287-5.369-28.813-34.87 29.06z" class="C" />
  <path id="path31" d="m132.844 390.234 63.1-78.875 2.491-19.096-53.136 52.307z" class="D" />
</svg>
