<?xml version="1.0" encoding="UTF-8" standalone="no"?>
<!-- Created with Inkscape (http://www.inkscape.org/) -->

<svg
   version="1.1"
   id="svg2"
   width="889.229"
   height="590.89374"
   viewBox="0 0 889.229 590.89374"
   sodipodi:docname="logo-kokoa-pagina.svg"
   inkscape:version="1.2.1 (9c6d41e410, 2022-07-14)"
   xmlns:inkscape="http://www.inkscape.org/namespaces/inkscape"
   xmlns:sodipodi="http://sodipodi.sourceforge.net/DTD/sodipodi-0.dtd"
   xmlns="http://www.w3.org/2000/svg"
   xmlns:svg="http://www.w3.org/2000/svg">
  <defs
     id="defs6">
    <clipPath
       clipPathUnits="userSpaceOnUse"
       id="clipPath146">
      <path
         d="M 0,1080 H 1080 V 0 H 0 Z"
         id="path144" />
    </clipPath>
  </defs>
  <sodipodi:namedview
     id="namedview4"
     pagecolor="#ffffff"
     bordercolor="#000000"
     borderopacity="0.25"
     inkscape:showpageshadow="2"
     inkscape:pageopacity="0.0"
     inkscape:pagecheckerboard="0"
     inkscape:deskcolor="#d1d1d1"
     showgrid="false"
     inkscape:zoom="0.78017412"
     inkscape:cx="381.96602"
     inkscape:cy="20.508243"
     inkscape:window-width="1366"
     inkscape:window-height="627"
     inkscape:window-x="0"
     inkscape:window-y="32"
     inkscape:window-maximized="1"
     inkscape:current-layer="g142" />
  <g
     id="g10"
     inkscape:groupmode="layer"
     inkscape:label="Page 1"
     transform="matrix(1.3333333,0,0,-1.3333333,-275.38547,1015.5443)">
    <g
       id="g12"
       transform="translate(542.0898,699.3872)">
      <path
         d="m 0,0 -4.981,-38.608 11.5,12.242 z"
         style="fill:#e23201;fill-opacity:1;fill-rule:nonzero;stroke:none"
         id="path14" />
    </g>
    <g
       id="g16"
       transform="translate(537.1084,660.7793)">
      <path
         d="M 0,0 -10.586,42.967 11.5,12.242 Z"
         style="fill:#e23201;fill-opacity:1;fill-rule:nonzero;stroke:none"
         id="path18" />
    </g>
    <g
       id="g20"
       transform="translate(555.79,680.7061)">
      <path
         d="m 0,0 -18.549,-19.609 9.831,17.741 z"
         style="fill:#e23201;fill-opacity:1;fill-rule:nonzero;stroke:none"
         id="path22" />
    </g>
    <g
       id="g24"
       transform="translate(625,621.5488)">
      <path
         d="M 0,0 8.718,9.963 36.117,-15.568 Z"
         style="fill:#c45321;fill-opacity:1;fill-rule:nonzero;stroke:none"
         id="path26" />
    </g>
    <g
       id="g28"
       transform="translate(625,621.5488)">
      <path
         d="M 0,0 19.927,19.304 7.366,-7.592 Z"
         style="fill:#c45321;fill-opacity:1;fill-rule:nonzero;stroke:none"
         id="path30" />
    </g>
    <g
       id="g32"
       transform="translate(623.0654,631.2075)">
      <path
         d="M 0,0 37.429,-9.036 1.935,-9.659 Z"
         style="fill:#c45321;fill-opacity:1;fill-rule:nonzero;stroke:none"
         id="path34" />
    </g>
    <g
       id="g36"
       transform="translate(521.0078,688.1787)">
      <path
         d="m 0,0 14.322,-27.399 35.494,-1.869 z"
         style="fill:#553721;fill-opacity:1;fill-rule:nonzero;stroke:none"
         id="path38" />
    </g>
    <g
       id="g40"
       transform="translate(572.6924,676.3472)">
      <path
         d="M 0,0 -42.716,-5.074 0.212,-18.032 Z"
         style="fill:#553721;fill-opacity:1;fill-rule:nonzero;stroke:none"
         id="path42" />
    </g>
    <g
       id="g44"
       transform="translate(468.0771,647.7026)">
      <path
         d="M 0,0 14.945,-18.059 52.931,-13.7 Z"
         style="fill:#e23201;fill-opacity:1;fill-rule:nonzero;stroke:none"
         id="path46" />
    </g>
    <g
       id="g48"
       transform="translate(485.5127,665.1382)">
      <path
         d="m 0,0 -2.49,-35.494 19.303,3.113 z"
         style="fill:#e23201;fill-opacity:1;fill-rule:nonzero;stroke:none"
         id="path50" />
    </g>
    <g
       id="g52"
       transform="translate(508.5527,657.666)">
      <path
         d="m 0,0 -25.53,-28.022 16.296,1.056 z"
         style="fill:#553721;fill-opacity:1;fill-rule:nonzero;stroke:none"
         id="path54" />
    </g>
    <g
       id="g56"
       transform="translate(562.1064,638.9844)">
      <path
         d="M 0,0 15.567,75.971 128.278,98.388 Z"
         style="fill:#e23201;fill-opacity:1;fill-rule:nonzero;stroke:none"
         id="path58" />
    </g>
    <g
       id="g60"
       transform="translate(692.2529,719.937)">
      <path
         d="M 0,0 -1.868,17.436 -82.198,32.381 -9.341,-5.604 Z"
         style="fill:#c45321;fill-opacity:1;fill-rule:nonzero;stroke:none"
         id="path62" />
    </g>
    <g
       id="g64"
       transform="translate(562.1064,637.7393)">
      <path
         d="M 0,0 130.146,81.575 47.948,114.579 Z"
         style="fill:#e23201;fill-opacity:1;fill-rule:nonzero;stroke:none"
         id="path66" />
    </g>
    <g
       id="g68"
       transform="translate(577.6738,714.9551)">
      <path
         d="m 0,0 36.541,-44.742 -4.782,-61.741 -44.213,-34.249 z"
         style="fill:#e23201;fill-opacity:1;fill-rule:nonzero;stroke:none"
         id="path70" />
    </g>
    <g
       id="g72"
       transform="translate(521.0078,634.0029)">
      <path
         d="m 0,0 -53.554,-69.744 -3.113,22.418 37.985,54.799 z"
         style="fill:#553721;fill-opacity:1;fill-rule:nonzero;stroke:none"
         id="path74" />
    </g>
    <g
       id="g76"
       transform="translate(467.4541,564.2593)">
      <path
         d="M 0,0 57.912,-36.117 59.78,-21.795 13.077,26.776 Z"
         style="fill:#fd9415;fill-opacity:1;fill-rule:nonzero;stroke:none"
         id="path78" />
    </g>
    <g
       id="g80"
       transform="translate(502.9492,567.9956)">
      <path
         d="m 0,0 12.454,-51.685 11.831,26.154 z"
         style="fill:#c45321;fill-opacity:1;fill-rule:nonzero;stroke:none"
         id="path82" />
    </g>
    <g
       id="g84"
       transform="translate(488.626,483.3066)">
      <path
         d="M 0,0 34.249,-18.681 23.836,6.93 21.173,30.513 Z"
         style="fill:#553721;fill-opacity:1;fill-rule:nonzero;stroke:none"
         id="path86" />
    </g>
    <g
       id="g88"
       transform="translate(487.3809,503.2334)">
      <path
         d="M 0,0 37.362,-8.718 -5.869,-22.324 Z"
         style="fill:#553721;fill-opacity:1;fill-rule:nonzero;stroke:none"
         id="path90" />
    </g>
    <g
       id="g92"
       transform="translate(515.2178,515.4629)">
      <path
         d="m 0,0 -9.778,-63.291 -18.059,51.062 z"
         style="fill:#553721;fill-opacity:1;fill-rule:nonzero;stroke:none"
         id="path94" />
    </g>
    <g
       id="g96"
       transform="translate(464.3408,586.6768)">
      <path
         d="M 0,0 150.073,83.443 166.264,57.29 145.092,21.795 100.879,-12.454 1.868,-22.417 Z"
         style="fill:#fd9415;fill-opacity:1;fill-rule:nonzero;stroke:none"
         id="path98" />
    </g>
    <g
       id="g100"
       transform="translate(577.6738,714.9551)">
      <path
         d="M 0,0 32.381,37.363 75.348,46.703 36.74,-44.835 Z"
         style="fill:#fd9415;fill-opacity:1;fill-rule:nonzero;stroke:none"
         id="path102" />
    </g>
    <g
       id="g104"
       transform="translate(653.0215,761.6582)">
      <path
         d="m 0,0 -38.607,-91.538 77.838,49.194 z"
         style="fill:#c45321;fill-opacity:1;fill-rule:nonzero;stroke:none"
         id="path106" />
    </g>
    <g
       id="g108"
       transform="translate(630.6045,643.9663)">
      <path
         d="M 0,0 12.454,-41.722 -5.604,-22.417 -16.19,26.154 Z"
         style="fill:#fd9415;fill-opacity:1;fill-rule:nonzero;stroke:none"
         id="path110" />
    </g>
    <g
       id="g112"
       transform="translate(464.3408,586.6768)">
      <path
         d="m 0,0 -64.14,-24.908 6.228,-107.107 23.974,85 z"
         style="fill:#fd9415;fill-opacity:1;fill-rule:nonzero;stroke:none"
         id="path114" />
    </g>
    <g
       id="g116"
       transform="translate(451.2637,455.2852)">
      <path
         d="M 0,0 -51.063,106.483 -72.856,45.458 Z"
         style="fill:#c45321;fill-opacity:1;fill-rule:nonzero;stroke:none"
         id="path118" />
    </g>
    <g
       id="g120"
       transform="translate(471.1904,492.6475)">
      <path
         d="M 0,0 -64.762,-37.985 -92.783,8.096 Z"
         style="fill:#e23201;fill-opacity:1;fill-rule:nonzero;stroke:none"
         id="path122" />
    </g>
    <g
       id="g124"
       transform="translate(430.0918,539.3511)">
      <path
         d="m 0,0 21.172,-84.066 -44.835,-0.623 z"
         style="fill:#553721;fill-opacity:1;fill-rule:nonzero;stroke:none"
         id="path126" />
    </g>
    <g
       id="g128"
       transform="translate(446.2822,522.5381)">
      <path
         d="M 0,0 24.908,-29.891 4.981,-67.253 -67.875,-21.795 Z"
         style="fill:#553721;fill-opacity:1;fill-rule:nonzero;stroke:none"
         id="path130" />
    </g>
    <g
       id="g132"
       transform="translate(430.0918,539.3511)">
      <path
         d="M 0,0 38.276,25.716 34.249,47.326 8.095,25.531 Z"
         style="fill:#e23201;fill-opacity:1;fill-rule:nonzero;stroke:none"
         id="path134" />
    </g>
    <g
       id="g136"
       transform="translate(478.04,468.9844)">
      <path
         d="M 0,0 47.326,59.158 49.194,73.48 9.341,34.249 Z"
         style="fill:#c45321;fill-opacity:1;fill-rule:nonzero;stroke:none"
         id="path138" />
    </g>
    <g
       id="g140">
      <g
         id="g142"
         clip-path="url(#clipPath146)">
        <g
           id="g148"
           transform="translate(213.0332,397.2373)">
          <path
             d="m 0,0 h 7.643 c 2.336,-0.519 3.503,-1.687 3.503,-3.504 v -23.459 c 0,-2.467 0.942,-4.024 2.823,-4.673 l 1.023,-0.145 h 2.336 c 3.373,0 5.645,2.594 6.813,7.787 5.093,13.465 7.869,20.637 8.324,21.513 C 33.924,-0.827 35.367,0 36.795,0 h 7.301 c 1.785,0 2.677,-0.941 2.677,-2.822 C 38.889,-24.141 34.67,-35.806 34.119,-37.816 v -1.656 c 0,-1.979 1.281,-6.019 3.846,-12.119 5.547,-15.023 8.484,-23.183 8.808,-24.481 v -0.341 c 0,-1.168 -0.828,-1.898 -2.482,-2.19 h -7.689 c -2.889,0 -5.047,2.774 -6.473,8.323 l -7.838,20.685 c -1.361,1.881 -3.195,2.823 -5.498,2.823 h -1.656 c -2.369,0 -3.699,-1.509 -3.991,-4.527 v -24.14 c -0.388,-2.207 -2.06,-3.31 -5.013,-3.31 H 1.996 c -3.666,0 -5.5,1.217 -5.5,3.65 V -3.504 C -2.953,-1.168 -1.783,0 0,0"
             style="fill:#ececec;fill-opacity:1;fill-rule:nonzero;stroke:none"
             id="path150" />
        </g>
        <g
           id="g152"
           transform="translate(374.0566,371.3447)"
           style="fill:#ececec">
          <path
             d="m 0,0 v -26.964 c 0,-4.283 2.287,-7.674 6.861,-10.172 1.428,-0.552 2.694,-0.827 3.797,-0.827 h 0.535 c 4.965,0 8.453,3.001 10.465,9.004 0.227,1.428 0.34,2.758 0.34,3.991 v 22.973 c 0,5.84 -2.271,9.831 -6.812,11.973 C 13.725,10.659 12.33,11 11,11 5.84,11 2.238,7.934 0.193,1.801 0.064,1.054 0,0.454 0,0 m 9.393,25.893 h 3.115 c 8.664,0 15.721,-4.218 21.172,-12.655 2.011,-3.861 3.017,-7.852 3.017,-11.972 v -29.641 c 0,-9.021 -4.396,-16.24 -13.189,-21.658 -3.797,-1.883 -7.951,-2.823 -12.461,-2.823 -11.649,0 -19.809,5.548 -24.481,16.645 -0.877,2.66 -1.314,5.71 -1.314,9.15 V 0.438 c 0,11.097 5.209,19.031 15.623,23.8 2.791,1.103 5.629,1.655 8.518,1.655"
             style="fill:#ececec;fill-opacity:1;fill-rule:nonzero;stroke:none"
             id="path154" />
        </g>
        <g
           id="g156"
           transform="translate(513.1289,397.2373)"
           style="fill:#ececec">
          <path
             d="m 0,0 h 7.641 c 2.336,-0.519 3.504,-1.687 3.504,-3.504 v -23.459 c 0,-2.467 0.941,-4.024 2.824,-4.673 l 1.021,-0.145 h 2.336 c 3.375,0 5.647,2.594 6.815,7.787 5.093,13.465 7.867,20.637 8.322,21.513 C 33.924,-0.827 35.367,0 36.795,0 h 7.301 c 1.783,0 2.675,-0.941 2.675,-2.822 C 38.889,-24.141 34.67,-35.806 34.117,-37.816 v -1.656 c 0,-1.979 1.281,-6.019 3.846,-12.119 5.549,-15.023 8.484,-23.183 8.808,-24.481 v -0.341 c 0,-1.168 -0.826,-1.898 -2.48,-2.19 H 36.6 c -2.889,0 -5.045,2.774 -6.473,8.323 l -7.836,20.685 c -1.363,1.881 -3.197,2.823 -5.5,2.823 h -1.654 c -2.369,0 -3.699,-1.509 -3.992,-4.527 v -24.14 c -0.389,-2.207 -2.061,-3.31 -5.012,-3.31 H 1.996 c -3.668,0 -5.5,1.217 -5.5,3.65 V -3.504 C -2.953,-1.168 -1.785,0 0,0"
             style="fill:#ececec;fill-opacity:1;fill-rule:nonzero;stroke:none"
             id="path158" />
        </g>
        <g
           id="g160"
           transform="translate(674.1504,371.3447)"
           style="fill:#ececec">
          <path
             d="m 0,0 v -26.964 c 0,-4.283 2.287,-7.674 6.863,-10.172 1.428,-0.552 2.694,-0.827 3.797,-0.827 h 0.535 c 4.965,0 8.451,3.001 10.463,9.004 0.227,1.428 0.342,2.758 0.342,3.991 V -1.995 C 22,3.845 19.729,7.836 15.186,9.978 13.727,10.659 12.33,11 11,11 5.842,11 2.24,7.934 0.195,1.801 0.064,1.054 0,0.454 0,0 m 9.395,25.893 h 3.115 c 8.662,0 15.72,-4.218 21.172,-12.655 2.009,-3.861 3.017,-7.852 3.017,-11.972 v -29.641 c 0,-9.021 -4.398,-16.24 -13.191,-21.658 -3.795,-1.883 -7.949,-2.823 -12.459,-2.823 -11.649,0 -19.809,5.548 -24.483,16.645 -0.875,2.66 -1.312,5.71 -1.312,9.15 V 0.438 c 0,11.097 5.207,19.031 15.623,23.8 2.789,1.103 5.629,1.655 8.518,1.655"
             style="fill:#ececec;fill-opacity:1;fill-rule:nonzero;stroke:none"
             id="path162" />
        </g>
        <g
           id="g164"
           transform="translate(834.2012,360.5889)"
           style="fill:#ececec">
          <path
             d="m 0,0 c 0,-1.396 0.988,-2.271 2.969,-2.629 h 2.189 c 1.979,0.227 2.969,1.217 2.969,2.97 C 5.92,9.88 4.59,14.649 4.137,14.649 H 3.99 C 3.535,14.649 2.205,9.766 0,0 m 0.633,36.648 h 6.668 c 3.308,0 5.304,-2.335 5.986,-7.007 12.881,-44.908 19.322,-67.816 19.322,-68.724 v -0.682 c 0,-1.557 -1.103,-2.336 -3.31,-2.336 h -6.182 c -2.498,0 -4.265,1.33 -5.305,3.992 -2.791,11.486 -4.412,17.586 -4.867,18.299 -1.103,1.558 -2.92,2.337 -5.451,2.337 H 0.633 c -3.115,0 -5.16,-1.216 -6.133,-3.65 -2.92,-12.655 -4.641,-18.982 -5.16,-18.982 -1.233,-1.331 -2.676,-1.996 -4.332,-1.996 h -6.18 c -2.207,0 -3.31,0.892 -3.31,2.677 v 0.147 c 0,0.648 3.488,13.416 10.464,38.303 6.133,21.642 9.475,33.291 10.026,34.946 1.363,1.784 2.904,2.676 4.625,2.676"
             style="fill:#ececec;fill-opacity:1;fill-rule:nonzero;stroke:none"
             id="path166" />
        </g>
        <g
           id="g168"
           transform="translate(206.5391,629.021)">
          <path
             d="M 0,0 148.827,84.689 0.291,-53.937 Z"
             style="fill:#553721;fill-opacity:1;fill-rule:nonzero;stroke:none"
             id="path170" />
        </g>
        <g
           id="g172"
           transform="translate(206.5391,574.8452)">
          <path
             d="M 0,0 148.827,-82.82 0,54.176 Z"
             style="fill:#8cc63f;fill-opacity:1;fill-rule:nonzero;stroke:none"
             id="path174" />
        </g>
        <g
           id="g176"
           transform="translate(873.4609,576.7134)">
          <path
             d="M 0,0 -148.827,-84.688 -0.291,53.938 Z"
             style="fill:#8cc63f;fill-opacity:1;fill-rule:nonzero;stroke:none"
             id="path178" />
        </g>
        <g
           id="g180"
           transform="translate(873.4609,630.8892)">
          <path
             d="M 0,0 -148.827,82.821 0,-54.176 Z"
             style="fill:#553721;fill-opacity:1;fill-rule:nonzero;stroke:none"
             id="path182" />
        </g>
      </g>
    </g>
  </g>
</svg>
