<svg xmlns="http://www.w3.org/2000/svg" width="889.23" height="412.65" viewBox="0 0 889.23 412.65">
  <style>
    .B {
      fill: #553721;
    }
    .C {
      fill: #e23201;
    }
    .D {
      fill: #c45321;
    }
    .E {
      fill: #fd9415;
    }
  </style>
  <defs>
    <clipPath id="A"><path d="M0 1080h1080V0H0z" /></clipPath>
  </defs>
  <g class="C">
    <path d="m447.379 83.003-6.642 51.476 15.333-16.322z" />
    <path d="m440.739 134.482-14.115-57.288 29.448 40.966z" />
    <path d="m465.645 107.91-24.732 26.144 13.108-23.654z" />
  </g>
  <g class="D">
    <path d="m557.923 186.787 11.623-13.283 36.531 34.04z" />
    <path d="m557.923 186.787 26.568-25.738-16.747 35.86z" />
    <path d="m555.35 173.908 49.903 12.047-47.324.831z" />
  </g>
  <g class="B">
    <path d="m419.273 97.95 19.095 36.53 47.324 2.493z" />
    <path d="m488.178 113.723-56.954 6.765 57.236 17.277z" />
  </g>
  <g class="C">
    <path d="M348.701 151.922 368.627 176l50.647-5.812z" />
    <path d="m371.94 128.669-3.32 47.324 25.737-4.15z" />
  </g>
  <path d="m402.66 138.629-34.04 37.361 21.728-1.408z" class="B" />
  <path d="m474.071 163.548 20.756-101.292 150.276-29.889z" class="C" />
  <path d="m647.587 55.604-2.49-23.247L537.991 12.43l97.14 50.646z" class="D" />
  <g class="C">
    <path d="m474.071 165.201 173.53-108.764-109.595-44.004z" />
    <path d="m494.817 62.244 48.72 59.654-6.375 82.32-58.95 45.664z" />
  </g>
  <path d="m419.273 170.188-71.404 92.99-4.15-29.89 50.645-73.064z" class="B" />
  <path d="m347.861 263.172 77.214 48.155 2.49-19.096-62.268-64.76z" class="E" />
  <path d="m395.193 258.186 16.605 68.911 15.774-34.87z" class="D" />
  <g class="B">
    <path d="m376.1 371.103 45.665 24.907-13.884-34.147-3.55-31.443z" />
    <path d="m374.434 344.543 49.815 11.624-57.64 18.141z" />
    <path d="m411.553 328.237-13.037 84.386-24.078-68.08z" />
  </g>
  <path
    d="m343.715 233.28 200.088-111.255 21.587 34.87-28.228 47.325-58.95 45.664-132.01 13.284zM494.817 62.244l43.174-49.816L595.279-.025l-51.476 122.047z"
    class="E"
  />
  <path d="m595.282-.021-51.475 122.047 103.781-65.59z" class="D" />
  <path
    d="m565.389 156.895 16.605 55.628-24.077-25.74-14.114-64.76zM343.715 233.28l-85.518 33.21L266.5 409.3l31.965-113.331z"
    class="E"
  />
  <path d="m326.275 408.462-68.082-141.97-29.057 81.365z" class="D" />
  <path d="M352.848 358.65 266.5 409.295l-37.36-61.44z" class="C" />
  <g class="B">
    <path d="m298.049 296.385 28.229 112.085-59.779.83z" />
    <path d="m319.635 318.797 33.21 39.854-26.569 49.815-97.139-60.61z" />
  </g>
  <path d="m298.049 296.385 51.033-34.287-5.369-28.813-34.87 29.06z" class="C" />
  <path d="m361.98 390.209 63.1-78.875 2.491-19.096-53.136 52.307z" class="D" />
  <g clip-path="url(#A)" transform="matrix(1.3333 0 0 -1.3333 -275.39 1015.5)">
    <path d="m206.54 629.02 148.83 84.689-148.54-138.63z" class="B" />
    <path
      fill="#8cc63f"
      d="m206.54 574.85 148.83-82.82-148.83 137zm666.92 1.86-148.83-84.688 148.54 138.63z"
    />
    <path d="m873.46 630.89-148.83 82.821 148.83-137z" class="B" />
  </g>
</svg>
