<svg xmlns="http://www.w3.org/2000/svg" width="889.229" height="590.894">
  <style>
    .B {
      fill: #553721;
    }
    .C {
      fill: #e23201;
    }
    .D {
      fill: #c45321;
    }
    .E {
      fill: #fd9415;
    }
  </style>
  <defs>
    <clipPath id="A"><path d="M0 1080h1080V0H0Z" /></clipPath>
  </defs>
  <g class="C">
    <path d="m447.4 83.028-6.641 51.477 15.333-16.323z" />
    <path d="m440.759 134.505-14.115-57.289 29.448 40.967z" />
    <path d="m465.668 107.936-24.732 26.145 13.108-23.655z" />
  </g>
  <g class="D">
    <path d="m557.948 186.813 11.624-13.284 36.532 34.041z" />
    <path d="m557.948 186.813 26.569-25.739-16.748 35.861z" />
    <path d="m555.368 173.934 49.905 12.048-47.325.831z" />
  </g>
  <g class="B">
    <path d="m419.292 97.973 19.096 36.532 47.325 2.492z" />
    <path d="m488.204 113.748-56.955 6.765 57.237 17.277z" />
  </g>
  <g class="C">
    <path d="m348.717 151.94 19.927 24.079 50.648-5.812z" />
    <path d="m371.965 128.693-3.32 47.325 25.737-4.151z" />
  </g>
  <path d="m402.685 138.656-34.04 37.363 21.728-1.408z" class="B" />
  <path d="m474.09 163.565 20.756-101.294 150.281-29.889z" class="C" />
  <path d="m647.618 55.628-2.491-23.248-107.106-19.927L635.163 63.1z" class="D" />
  <g class="C">
    <path d="M474.09 165.225 647.618 56.459 538.021 12.453z" />
    <path d="m494.846 62.27 48.721 59.656-6.376 82.321-58.951 45.665z" />
  </g>
  <path d="m419.292 170.207-71.405 92.992-4.151-29.891 50.647-73.065z" class="B" />
  <path d="m347.887 263.199 77.216 48.156 2.491-19.096-62.271-64.761z" class="E" />
  <path d="m395.213 258.217 16.605 68.913 15.775-34.872z" class="D" />
  <g class="B">
    <path d="m376.116 371.136 45.665 24.908-13.884-34.148-3.551-31.444z" />
    <path d="m374.456 344.566 49.816 11.624-57.641 18.141z" />
    <path d="m411.572 328.26-13.037 84.388-24.079-68.082z" />
  </g>
  <path
    d="m343.736 233.309 200.097-111.257 21.588 34.871-28.229 47.327-58.951 45.665-132.014 13.284zM494.846 62.27l43.175-49.817L595.31-.001l-51.477 122.05z"
    class="E"
  />
  <path d="m595.31 0-51.476 122.05 103.784-65.592z" class="D" />
  <path
    d="m565.42 156.923 16.605 55.629-24.077-25.74-14.115-64.761zm-221.684 76.386-85.52 33.211 8.304 142.809 31.965-113.333z"
    class="E"
  />
  <path d="M326.3 408.497 258.216 266.52l-29.057 81.366z" class="D" />
  <path d="m352.868 358.681-86.349 50.647-37.361-61.441z" class="C" />
  <g class="B">
    <path d="m298.07 296.41 28.229 112.088-59.78.831z" />
    <path d="m319.657 318.827 33.211 39.855-26.569 49.816-97.141-60.611z" />
  </g>
  <path d="m298.07 296.41 51.035-34.288-5.369-28.813-34.872 29.06z" class="C" />
  <path d="m362.001 390.232 63.101-78.877 2.491-19.096-53.137 52.308z" class="D" />
  <g clip-path="url(#A)" transform="matrix(1.33333 0 0 -1.33333 -275.385 1015.544)">
    <path
      fill="#27272a"
      d="M213.033 397.237h7.643c2.336-.519 3.503-1.687 3.503-3.504v-23.459c0-2.467.942-4.024 2.823-4.673l1.023-.145h2.336c3.373 0 5.645 2.594 6.813 7.787l8.324 21.513c1.459 1.654 2.902 2.481 4.33 2.481h7.301c1.785 0 2.677-.941 2.677-2.822l-12.654-34.994v-1.656c0-1.979 1.281-6.019 3.846-12.119l8.808-24.481v-.341c0-1.168-.828-1.898-2.482-2.19h-7.689c-2.889 0-5.047 2.774-6.473 8.323l-7.838 20.685c-1.361 1.881-3.195 2.823-5.498 2.823h-1.656c-2.369 0-3.699-1.509-3.991-4.527v-24.14c-.388-2.207-2.06-3.31-5.013-3.31h-4.137c-3.666 0-5.5 1.217-5.5 3.65v71.595c.551 2.336 1.721 3.504 3.504 3.504m161.024-25.892v-26.964c0-4.283 2.287-7.674 6.861-10.172 1.428-.552 2.694-.827 3.797-.827h.535c4.965 0 8.453 3.001 10.465 9.004a25.51 25.51 0 0 1 .34 3.991v22.973c0 5.84-2.271 9.831-6.812 11.973-1.461.681-2.856 1.022-4.186 1.022-5.16 0-8.762-3.066-10.807-9.199-.129-.747-.193-1.347-.193-1.801m9.393 25.893h3.115c8.664 0 15.721-4.218 21.172-12.655 2.011-3.861 3.017-7.852 3.017-11.972V342.97c0-9.021-4.396-16.24-13.189-21.658-3.797-1.883-7.951-2.823-12.461-2.823-11.649 0-19.809 5.548-24.481 16.645-.877 2.66-1.314 5.71-1.314 9.15v27.499c0 11.097 5.209 19.031 15.623 23.8 2.791 1.103 5.629 1.655 8.518 1.655m129.679-.001h7.641c2.336-.519 3.504-1.687 3.504-3.504v-23.459c0-2.467.941-4.024 2.824-4.673l1.021-.145h2.336c3.375 0 5.647 2.594 6.815 7.787l8.322 21.513c1.461 1.654 2.904 2.481 4.332 2.481h7.301c1.783 0 2.675-.941 2.675-2.822l-12.654-34.994v-1.656c0-1.979 1.281-6.019 3.846-12.119l8.808-24.481v-.341c0-1.168-.826-1.898-2.48-2.19h-7.691c-2.889 0-5.045 2.774-6.473 8.323l-7.836 20.685c-1.363 1.881-3.197 2.823-5.5 2.823h-1.654c-2.369 0-3.699-1.509-3.992-4.527v-24.14c-.389-2.207-2.061-3.31-5.012-3.31h-4.137c-3.668 0-5.5 1.217-5.5 3.65v71.595c.551 2.336 1.719 3.504 3.504 3.504m161.021-25.892v-26.964c0-4.283 2.287-7.674 6.863-10.172 1.428-.552 2.694-.827 3.797-.827h.535c4.965 0 8.451 3.001 10.463 9.004.227 1.428.342 2.758.342 3.991v22.973c0 5.84-2.271 9.831-6.814 11.973-1.459.681-2.856 1.022-4.186 1.022-5.158 0-8.76-3.066-10.805-9.199-.131-.747-.195-1.347-.195-1.801m9.395 25.893h3.115c8.662 0 15.72-4.218 21.172-12.655 2.009-3.861 3.017-7.852 3.017-11.972V342.97c0-9.021-4.398-16.24-13.191-21.658-3.795-1.883-7.949-2.823-12.459-2.823-11.649 0-19.809 5.548-24.483 16.645-.875 2.66-1.312 5.71-1.312 9.15v27.499c0 11.097 5.207 19.031 15.623 23.8 2.789 1.103 5.629 1.655 8.518 1.655m150.656-36.649c0-1.396.988-2.271 2.969-2.629h2.189c1.979.227 2.969 1.217 2.969 2.97-2.207 9.539-3.537 14.308-3.99 14.308h-.147c-.455 0-1.785-4.883-3.99-14.649m.633 36.648h6.668c3.308 0 5.304-2.335 5.986-7.007l19.322-68.724v-.682c0-1.557-1.103-2.336-3.31-2.336h-6.182c-2.498 0-4.265 1.33-5.305 3.992-2.791 11.486-4.412 17.586-4.867 18.299-1.103 1.558-2.92 2.337-5.451 2.337h-6.861c-3.115 0-5.16-1.216-6.133-3.65-2.92-12.655-4.641-18.982-5.16-18.982-1.233-1.331-2.676-1.996-4.332-1.996h-6.18c-2.207 0-3.31.892-3.31 2.677v.147c0 .648 3.488 13.416 10.464 38.303l10.026 34.946c1.363 1.784 2.904 2.676 4.625 2.676"
    />
    <path d="m206.54 629.021 148.827 84.689-148.536-138.626z" class="B" />
    <path
      fill="#8cc63f"
      d="m206.54 574.845 148.827-82.82L206.54 629.021zm666.92 1.868-148.827-84.688 148.536 138.626z"
    />
    <path d="m873.46 630.89-148.827 82.821L873.46 576.714z" class="B" />
  </g>
</svg>
