<svg xmlns="http://www.w3.org/2000/svg" width="909.836" height="955.434">
  <style>
    .B {
      fill: #c45321;
    }
    .C {
      fill: #fd9415;
    }
    .D {
      fill: #553721;
    }
    .E {
      fill: #8cc63f;
    }
    .F {
      fill: #7caa37;
    }
    .G {
      fill: #fff2ce;
    }
  </style>
  <defs>
    <clipPath id="A"><path d="M0 1080h1080V0H0Z" /></clipPath>
  </defs>
  <g clip-path="url(#A)" transform="matrix(1.33333 0 0 -1.33333 -365.333 1181.925)">
    <path
      d="M665.67 447.02c2.068-4.753 16.703-.878 17.813-4.741 1.52-5.288-23.949-19.36-50.17-26.217-21.94-5.737-40.849-5.493-52.874-4.506l27.02-40.902c21.821-6.441 75.299-18.799 134.524 3.281 22.594 8.423 67.941 25.329 91.666 72.435 4.483 8.899 17.075 40.434 12.602 78.823-12.275 105.354-116.838 124.452-116.838 124.452-11.449.8-50.855 2.114-87.212-24.97-6.129-4.565-47.249-36.25-50.608-90.342-.858-13.808-2.991-48.169 20.941-71.293 28.363-27.406 77.904-24.118 108.895-2.069 21.435 15.251 43.438 46.194 35.887 77.156-3.501 14.352-15.267 36.56-36.505 39.613-21.356 3.07-37.423-15.365-41.75-20.329-3.6-4.13-10.025-11.501-7.568-17.458 1.764-4.276 7.641-6.701 12.392-6.591 4.723.108 5.666 2.66 12.513 4.945 2.25.751 13.031 4.348 16.233.536 2.86-3.406-.882-12.068-5.795-17.26-7.902-8.355-22.875-12.01-30.519-5.679-2.86 2.368-6.403 7.484-4.945 12.513.875 3.016 3.25 4.79 4.211 5.494 20.805 15.228 25.206 25.515 34.639 24.326 12.031-1.515 24.497-20.723 23.136-38.087-3.045-38.858-72.262-62.617-67.688-73.13"
      class="C"
    />
    <path
      d="M711.517 535.583c1.51-3.333-.998-7.015-3.359-9.81l-7.559-8.951c-3.003-3.556-6.558-7.397-11.207-7.61-1.935-.088-3.834.486-5.656 1.141a60.047 60.047 0 0 0-9.325 4.285c-2.411 1.367-4.934 3.201-5.426 5.927-.651 3.682 3.458 9.499 6.392 11.489 3.979 2.697 10.78.861 15.395.615.88-.047 1.78-.092 2.623.164.736.223 1.385.662 2.012 1.107 2.542 1.804 5.035 3.853 8.051 4.639s6.774-.157 8.059-2.996m.531 108.477c-50.177 3.046-91.898-34.99-110.599-72.217-14.37-28.607-8.335-58.44-6.823-67.037 2.529-14.372 4.935-28.051 16.115-39.001 12.63-12.371 31.799-16.697 46.929-20.111 14.398-3.25 21.745-2.894 22.017-4.993.373-2.878-12.776-8.565-70.587-20.831 1.067-4.243 3.18-10.062 7.777-15.316 17.494-19.99 54.196-11.995 70.103-9.701 39.445 5.687 122.629 35.227 131.652 110.825 7.657 64.154-41.319 134.419-106.584 138.382"
      class="D"
    />
    <path
      d="M683.355 490.973c-1.029 5.938-1.005 12.775 2.892 17.805.977 1.261 2.222 2.388 3.69 2.865s3.176.174 4.028-1.011c.778-1.081.719-2.607.586-4.014-.462-4.892-1.467-9.807-3.31-14.475-.994-2.519-2.256-5.251-1.525-7.701.59-1.978 2.335-3.225 3.866-4.516 4.015-3.387 7.042-7.897 8.838-12.976 1.902-5.375-.931-10.267-5.794-5.81-6.979 6.395-11.63 20.368-13.271 29.833m-83.469 13.189c1.578 3.157 3.758 6.229 7.392 7.234 2.297.636 4.946.375 7.444.512 7.724.421 13.73 4.579 20.061 7.805 5.154 2.627 10.713 4.692 16.566 6.155 5.368 1.341 12.195 1.813 17.025-2.46.602-.532 1.177-1.176 1.317-1.88.186-.939-.448-1.663-1.076-2.245-7.033-6.516-17.84-9.331-28.997-7.554-4.796.765-10.084 2.298-13.901.412-2.209-1.092-3.531-3.175-4.865-5.139-4.664-6.868-11.2-16.621-19.254-20.269-10.228-4.632-3.542 13.768-1.712 17.429m74.367 59.864c-3.329 1.836-6.479 4.037-10.017 5.432-3.96 1.562-8.563 2.227-11.419 5.383-.633.701-1.173 1.705-.76 2.555.234.483.723.785 1.205 1.023 4.644 2.29 10.177.858 15.141-.612l13.035-3.858c3.133-.928 6.768-2.364 7.492-5.55 2.402-10.593-10.019-6.941-14.677-4.373m-77.865-4.163c4.315 4.889 9.115 10.064 15.522 11.279 3.657.694 7.459-.005 11.134.587 3.414.551 6.54 2.182 9.772 3.415a43.416 43.416 0 0 0 15.429 2.844c-.669 2.977-3.943 5.1-6.933 4.499-1.002-.202-1.944-.661-2.954-.806-2.852-.407-5.362 1.681-7.861 3.112-6.068 3.477-13.472 3.344-20.462 3.114-.965-.031-1.977-.076-2.811-.565-.859-.503-1.397-1.401-1.898-2.261l-8.307-14.248c-.526-.9-1.069-1.907-.867-2.929s1.593-1.784 2.323-1.039m161.682-56.968c1.432 6.362 3.151 13.208 8.184 17.355 2.873 2.367 6.543 3.583 9.479 5.87 2.729 2.124 4.685 5.058 6.925 7.693a43.415 43.415 0 0 0 12.159 9.915c-2.018 2.288-5.91 2.575-8.242.609-.781-.658-1.386-1.513-2.203-2.127-2.304-1.728-5.509-1.106-8.388-1.052-6.993.13-13.42-3.548-19.437-7.112-.832-.492-1.698-1.017-2.194-1.847-.511-.855-.551-1.9-.576-2.896l-.431-16.487c-.027-1.042-.02-2.186.65-2.984s2.255-.798 2.536.206m-42.979 10.206c5.347-3.951 12.154-5.875 18.778-5.306 2.836.244 6.119 1.37 6.859 4.119.509 1.891-.42 3.869-1.552 5.466-.509.718-1.089 1.422-1.87 1.825-1.389.716-3.066.333-4.574-.074-5.198-1.403-10.777-2.912-15.847-1.105-1.125.402-2.202.961-3.374 1.19s-2.514.058-3.332-.809c-2.539-2.689 3.502-4.264 4.912-5.306m19.351 67.392c.959 1.47 3.169 1.131 4.847.619 1.566-.479 3.183-.985 4.421-2.057 2.785-2.416 2.704-6.725 2.04-10.351-.532-2.901-1.359-5.891-3.369-8.05-1.206-1.294-4.718-3.507-6.373-1.833-1.425 1.442.482 5.139.774 6.744.926 5.084.228 10.402-2.34 14.928m6.147 11.439a18.07 18.07 0 0 1 5.578 3.333c1.477 1.294 2.822 3.115 2.488 5.05-.192 1.114-.922 2.066-1.763 2.821-1.128 1.012-2.541 1.77-4.054 1.858s-3.111-.585-3.89-1.885c-.806-1.346-.612-3.11.097-4.51s1.862-2.518 2.993-3.607l-.542-1.589m-53.403-186.851a18.065 18.065 0 0 1 5.577 3.333c1.477 1.294 2.823 3.115 2.489 5.05-.192 1.114-.923 2.066-1.764 2.821-1.127 1.012-2.541 1.77-4.053 1.858s-3.111-.585-3.891-1.885c-.806-1.347-.612-3.11.098-4.511s1.861-2.518 2.993-3.606l-.543-1.589M672.466 627.21c1.32-.752 2.666-1.526 3.666-2.67 1.237-1.415 1.833-3.266 2.782-4.888 1.69-2.889 4.44-4.964 6.906-7.227 5.409-4.962 9.636-11.05 13.815-17.084 1.644.946 2.197 3.14 1.84 5.003s-1.421 3.497-2.37 5.139a48.667 48.667 0 0 0-4.254 9.635c-.724 2.282-1.297 4.656-2.581 6.677-1.952 3.07-5.274 4.929-8.175 7.124a36.805 36.805 0 0 0-9.948 11.473c4.001 2.059 8.552 4.172 12.831 2.779 6.309-2.055 8.341-10.428 14.194-13.552 1.39 1.549.33 3.976-.768 5.743-2.386 3.847-5.125 7.975-9.442 9.333-3.596 1.132-7.491.059-11.025-1.254-5.2-1.932-10.292-4.367-14.965-7.365-2.939-1.886-3.32-2.327-.443-4.344 2.453-1.72 5.333-3.039 7.937-4.522m68.644-163.542c1.518.069 3.068.133 4.525-.3 1.801-.536 3.292-1.783 4.961-2.649 2.972-1.54 6.406-1.827 9.699-2.424 7.222-1.308 14.046-4.199 20.801-7.069.885 1.677.181 3.827-1.115 5.212s-3.068 2.198-4.748 3.08a48.68 48.68 0 0 0-8.739 5.876c-1.831 1.543-3.583 3.245-5.748 4.268-3.289 1.554-7.091 1.352-10.716 1.66a36.797 36.797 0 0 0-14.536 4.39c2.284 3.877 5.004 8.094 9.366 9.2 6.432 1.631 12.619-4.366 19.237-3.882.348 2.052-1.844 3.538-3.716 4.447-4.071 1.978-8.59 4.007-12.966 2.851-3.645-.963-6.367-3.95-8.654-6.947-3.365-4.41-6.371-9.187-8.721-14.217-1.478-3.163-1.566-3.74 1.944-3.909 2.992-.145 6.132.278 9.126.413m-13.824-25.003c.36-1.717-1.441-3.041-2.99-3.865-1.447-.769-2.947-1.554-4.581-1.671-3.677-.262-6.666 2.843-8.761 5.876-1.676 2.428-3.206 5.126-3.311 8.075-.062 1.767.857 5.815 3.21 5.802 2.029-.011 3.293-3.975 4.222-5.316 2.94-4.249 7.194-7.517 12.211-8.901"
      class="G"
    />
    <g class="B">
      <path
        d="M709.18 535.922c-.728.222-3.678.736-11.376-1.832-2.608-.87-4.157-1.747-5.657-2.594-2.164-1.225-4.403-2.491-8.159-2.578-2.064-.048-4.285.262-6.427.925-.776-.631-1.591-1.528-1.92-2.664-.799-2.749 1.573-6.247 3.51-7.852 5.397-4.469 17.74-1.789 24.456 5.311a22.915 22.915 0 0 1 1.521 1.787c2.917 3.805 4.307 8.007 4.052 9.497m-69.636 92.319c34.318 25.564 71.23 27.161 90.178 25.838.165-.011.327-.032.489-.061 45.354-8.114 110.678-56.297 120.454-128.31 1.662-12.242 5.087-49.834-16.248-87.986-11.98-21.424-26.775-33.983-33.713-39.759-60.214-50.137-151.278-38.083-168.637-35.512 4.877-4.097 9.227-6.425 10.402-5.368 1.197 1.078-.746 5.818-4.671 11.418 20.757-2.619 56.565-4.364 97.621 8.715 26.676 8.498 59.043 18.809 82.735 50.429 31.004 41.382 24.794 89.417 23.681 97.034-8.03 54.961-52.424 101.623-112.989 120.55-17.795 1.205-52.127-.381-83.99-24.118-7.603-5.663-45.686-36.481-48.826-87.054-.859-13.801-2.869-46.12 19.591-67.821 27.645-26.71 75.109-21.649 103.23-1.643 21.269 15.129 41.028 44.267 34.144 72.483-2.961 12.142-13.206 33.446-32.818 36.264-12.584 1.809-25.291-4.533-37.766-18.85-2.46-2.821-8.215-9.427-6.808-12.843.861-2.089 4.759-3.92 8.18-3.84 1.526.034 2.196.413 3.987 1.426 1.601.907 3.796 2.149 7.225 3.293 10.697 3.566 17.579 3.297 21.039-.824 5.175-6.162-.377-17.252-5.968-23.174-9.1-9.62-26.68-14.25-36.585-6.047-4.56 3.776-8.3 10.552-6.378 17.174.516 1.781 1.404 3.436 2.646 4.921a12.47 12.47 0 0 0-2.365 3.682c-3.506 8.501 4.191 17.331 8.325 22.074 14.585 16.736 29.972 24.073 45.734 21.808 24.306-3.492 36.699-28.647 40.19-42.959 7.864-32.236-13.995-65.014-37.628-81.833-31.016-22.064-83.635-27.386-114.56 2.493-25.411 24.554-23.143 61.034-22.288 74.767 1.778 28.64 13.535 51.132 25.79 67.119 10.477 13.667 21.318 22.58 26.597 26.514"
      />
      <path
        d="m612.618 418.207-7.653.261.562 6.538c.458-.04 46.662-3.648 77.541 22.087l4.2-5.04c-25.506-21.259-59.584-23.846-74.65-23.846"
      />
    </g>
    <g class="C">
      <path
        d="M536.148 557.75s-21.86-6.076-48.412-2.739c-53.251 6.693-68.651 69.225-69.286 71.991l60.499 33.577s44.04-72.781 107.041-38.183c0 0 15.009 6.133 23.438 27.29s13.664 27.724 33.677 35.901c5.736 2.344 10.78 2.949 15.024 2.555 6.778-.629 14.001-4.333 15.205-10.13.188-.912.863-4.162-1.598-7.295-2.194-2.792-4.928-3.009-13.874-7.883-4.296-2.34-6.377-3.582-7.699-4.916-4.499-4.537-4.164-9.235-4.164-9.235"
      />
      <path d="M641.726 645.443c16.419 12.893 34.55 18.273 34.55 18.273" />
    </g>
    <g class="B">
      <path
        d="M481.114 661.417c5.05-7.319 11.143-14.355 17.92-20.821 6.822-6.453 14.619-12.305 23.491-16.931 8.89-4.526 19.195-7.693 30.062-7.535 5.408.093 10.833.994 16.056 2.512 5.261 1.481 10.142 3.879 14.889 6.362.161.083.323.162.488.235l.097.043c.276.122 1.184.62 1.784.981a39.2 39.2 0 0 1 5.753 4.347 47.27 47.27 0 0 1 6.292 7.01c1.765 2.512 3.431 5.083 4.702 7.776 1.355 2.661 2.388 5.378 3.596 8.346 1.208 2.91 2.441 5.827 3.933 8.768 1.462 2.933 3.131 5.904 5.356 8.828a41.09 41.09 0 0 0 8.294 8.239c3.298 2.472 6.979 4.517 10.674 6.296 1.854.884 3.717 1.715 5.586 2.491 1.849.804 4.132 1.662 6.381 2.257 4.552 1.243 9.69 1.758 14.491 1.013 4.732-.765 8.856-2.451 12.096-4.97 1.61-1.261 2.967-2.758 3.873-4.459a10.37 10.37 0 0 0 1.039-2.657c.256-.927.348-1.732.384-2.7a11.21 11.21 0 0 0-1.421-5.793 12.92 12.92 0 0 0-2.175-2.826c-.945-.944-2.203-1.797-3.29-2.38-2.192-1.158-3.884-1.806-5.605-2.601a144.354 144.354 0 0 1-5.047-2.351 164.776 164.776 0 0 1-4.921-2.508 27.32 27.32 0 0 1-2.068-1.198c-.586-.37-.965-.713-1.529-1.259-2.011-1.952-3.389-4.631-3.721-6.956l-.037-.259c-.15-1.046-1.414-1.892-2.824-1.888-1.254.002-2.202.676-2.29 1.561-.357 3.486.739 6.795 3.187 9.982.576.726 1.399 1.64 2.302 2.349.876.713 1.74 1.305 2.582 1.862 1.698 1.106 3.315 2.05 5.002 3.038a114.26 114.26 0 0 0 5.184 2.854c1.728.892 3.616 1.78 4.737 2.47 1.61.943 2.496 2.872 2.33 4.943-.196 2.209-1.291 3.892-3.253 5.436-1.937 1.489-4.699 2.58-7.518 2.995-2.786.415-5.876.193-8.964-.631-1.588-.418-3.002-.924-4.716-1.653a105.378 105.378 0 0 1-5.042-2.208c-6.577-3.053-11.755-6.686-15.345-11.499-3.669-4.779-6.158-10.397-8.568-15.999-1.157-2.757-2.346-5.798-3.892-8.768-1.45-2.977-3.352-5.889-5.412-8.749a55.91 55.91 0 0 0-7.496-8.199 48.8 48.8 0 0 0-4.707-3.724 40.95 40.95 0 0 0-2.688-1.711c-1.04-.574-1.774-1.023-3.285-1.668l.584.278c-5.454-2.749-11.116-5.392-17.401-7.067-6.225-1.707-12.801-2.683-19.262-2.677-13.033.05-24.543 3.983-33.986 9.051-9.416 5.212-17.137 11.654-23.865 18.524-6.703 6.917-12.451 14.232-17.148 22.12-.502.842.063 1.896 1.262 2.355 1.158.443 2.484.167 3.024-.612zM584.16 569.13c-6.375-.498-13.396-3.548-21.003-6.946l-11.902-5.152a146.055 146.055 0 0 0-13.076-4.534l-1.236-.264c.192.021.383.053.571.093l.259.06-.103-.027-.416-.108-.807-.203-1.558-.368-3.059-.655a153.72 153.72 0 0 0-6.068-1.079c-4.041-.634-8.093-1.023-12.141-1.314-8.089-.526-16.202-.508-24.099.333-1.975.225-3.917.394-5.975.777-2.043.314-4.059.676-5.992 1.189-1.986.429-3.874.994-5.727 1.607-1.906.549-3.637 1.293-5.415 1.984-7.009 2.892-12.965 6.715-18.093 10.91-10.21 8.474-17.163 18.464-22.306 28.794-4.975 10.418-8.403 21.173-9.576 32.379-.086.82.758 1.605 1.884 1.753.973.128 1.839-.261 2.112-.898l.026-.063c4.348-10.138 9.554-20.06 15.835-29.324 6.237-9.266 13.707-17.957 23.001-24.943a63.23 63.23 0 0 1 15.444-8.666c1.425-.524 2.806-1.119 4.304-1.515 1.458-.466 2.933-.894 4.47-1.197 1.498-.39 3.052-.642 4.62-.862 1.497-.28 3.247-.412 4.928-.586a129.25 129.25 0 0 1 20.723-.24c3.491.236 6.984.617 10.449 1.094 1.729.252 3.451.521 5.147.836l2.507.499 3.462.773-1.234-.264c7.487 2.025 14.748 5.036 22.528 8.41 3.901 1.658 7.972 3.43 12.557 4.921 4.545 1.492 9.705 2.754 15.118 3.05"
      />
      <path
        d="m676.361 661.028-.088-.001 1.059.194c-2.882-.834-6.075-1.995-9.034-3.198l-8.801-3.986a109.7 109.7 0 0 1-16.023-9.789l-.025-.019c-1.032-.761-2.623-.821-3.554-.133-.897.662-.847 1.782.081 2.543 4.934 4.028 10.386 7.733 16.267 11.008 2.928 1.652 5.977 3.179 9.109 4.613 3.176 1.441 6.263 2.741 9.866 3.95.25.084.504.138.756.165l.304.029.137.015c3.776.379 7.272.461 10.89.341"
      />
    </g>
    <path
      d="M669.342 354.783c-1.034 7.417-3.787 14.479-6.773 21.347-6.476 14.89-14.307 29.461-25.592 41.135s-26.41 20.282-42.626 21.117c-17.952.924-35.651-7.958-47.435-21.532-8.79-10.126-14.664-23.145-14.601-36.554.036-7.914 2.102-15.707 5.005-23.07 5.355-13.587 13.897-26.285 26.046-34.388 7.921-5.284 17.061-8.435 26.234-10.983 7.4-2.055 14.936-3.76 22.6-4.259 16.628-1.08 33.581 3.755 47.137 13.445 5.721 4.09 5.715 7.844 7.401 13.75 1.978 6.935 3.633 12.605 2.604 19.992"
      class="C"
    />
    <g class="B">
      <path
        d="M672.411 355.21a36.48 36.48 0 0 0 .125-7.155c-.224-2.37-.702-4.681-1.294-6.883l-2.043-6.383-2.054-6.273c-.762-2.212-2.066-4.531-3.83-6.235a19.342 19.342 0 0 0-2.772-2.253l-2.832-1.817c-3.804-2.324-7.756-4.384-11.854-6.103a75.49 75.49 0 0 0-25.864-6.002c-8.924-.512-17.852.812-26.413 2.897-8.538 2.085-17.137 4.422-25.26 8.406-8.16 3.923-15.369 9.913-21.088 16.922-5.735 7.036-10.16 15.028-13.474 23.41-3.286 8.356-5.597 17.586-4.842 27.062.694 9.4 3.969 18.421 8.852 26.294 4.909 7.869 11.401 14.748 19.028 20.06 7.633 5.284 16.39 9.082 25.683 10.663 4.663.796 9.407.999 14.121.602s9.336-1.459 13.76-2.97c8.853-3.066 16.859-7.999 23.804-13.999 6.927-6.079 12.696-13.216 17.561-20.791 4.873-7.582 8.88-15.587 12.433-23.699 3.48-8.052 7.036-16.475 8.253-25.753m-6.14-.855c-1.245 8.104-4.703 15.946-8.338 23.795-3.645 7.807-7.682 15.382-12.436 22.398-4.739 7.009-10.25 13.453-16.603 18.757-6.317 5.349-13.507 9.668-21.217 12.255-7.718 2.569-15.857 3.355-23.815 2.014-7.959-1.311-15.64-4.573-22.386-9.199a61.192 61.192 0 0 1-17.082-17.468c-4.424-6.883-7.521-14.669-8.308-22.723-.861-8.012.741-16.294 3.557-24.244 2.817-7.973 6.688-15.596 11.763-22.313 5.095-6.7 11.434-12.384 18.915-16.329 7.466-3.993 15.752-6.652 24.108-8.934 8.345-2.235 16.868-3.745 25.44-3.407a72.84 72.84 0 0 1 25.018 5.454c3.956 1.67 7.766 3.705 11.267 6.178 1.765 1.255 3.478 2.5 4.705 3.972 1.26 1.479 1.956 3.171 2.434 5.14.468 1.953.827 4.221 1.35 6.384.492 2.13.946 4.232 1.315 6.287.765 4.113.961 8.053.313 11.983"
      />
      <path
        d="M567.896 318.32c-.543-1.909 21.343-12.201 46.629-14.657 18.116-1.759 26.997 1.57 30.859 3.295 6.477 2.893 10.634 6.543 11.83 7.631 11.172 10.151 13.727 23.564 14.432 28.868-1.405-2.712-2.206-4.026-2.401-3.942-.143.062.038.875.545 2.438-.264 2.501-.616 4.971-1.107 7.384-1.66-7.012-4.575-13.708-8.718-19.485-4.678-6.575-10.99-11.775-18.262-15.415-7.282-3.622-15.42-5.653-23.67-6.338-.048-.004-.097-.005-.145-.009a109.29 109.29 0 0 0-18.059 1.802 109.78 109.78 0 0 0-26.651 8.564c-4.286.521-5.184.209-5.282-.136"
      />
    </g>
    <path
      d="M561.747 877.49c7.286 4.172 17.507 2.151 22.656-4.48.409-.527.794-1.089.994-1.727.343-1.092.107-2.27-.108-3.395-.678-3.555-1.117-7.178-.912-10.792.492-8.668 4.662-17.156 3.181-25.711-.143-.819-.351-1.661-.882-2.3-.678-.817-1.756-1.161-2.773-1.466l-5.433-1.63c-1.957-.587-4.035-1.178-6.013-.666-1.733.448-3.143 1.685-4.408 2.952-7.606 7.61-10.905 16.462-13.608 26.595-2.271 8.512-1.186 17.756 7.306 22.62"
      class="C"
    />
    <path
      d="M583.61 832.106zm-19.706 41.618c-7.55-4.323-6.543-12.969-5.272-17.736 2.733-10.238 5.775-17.933 12.486-24.647.478-.479 1.604-1.605 2.425-1.817.865-.224 2.418.243 3.681.621l5.432 1.63c.139.041.383.115.596.188l.03.163c.745 4.31-.297 8.907-1.401 13.775-.797 3.517-1.622 7.153-1.836 10.95-.201 3.524.111 7.29.98 11.85.089.457.201 1.045.206 1.322-.027.018-.106.134-.257.327-3.83 4.934-11.642 6.482-17.07 3.374m15.509-51.982c-2.14-.638-4.982-1.411-8.042-.62-2.741.708-4.769 2.462-6.391 4.084-8.056 8.06-11.715 17.24-14.731 28.545-3.212 12.033.282 22.315 9.342 27.505 9.11 5.221 21.79 2.72 28.239-5.585.578-.746 1.294-1.768 1.708-3.088.663-2.116.294-4.04.025-5.447-.745-3.905-1.013-6.998-.854-9.794.174-3.074.884-6.206 1.636-9.523 1.244-5.484 2.53-11.155 1.488-17.175-.219-1.261-.623-2.893-1.821-4.333-1.54-1.854-3.621-2.477-4.865-2.849l-5.734-1.72"
      class="B"
    />
    <path
      d="M594.737 827.616c-7.203-2.64-15.034.656-17.492 7.361s-6.517 34.143.686 36.783 22.942-20.518 25.399-27.223-1.39-14.281-8.593-16.921"
    />
    <path
      d="M465.148 588.826c-1.178 59.67 16.255 91.355 33.197 109.386 18.628 19.824 82.821 47.826 116.847 62.205 12.779 5.4 39.506 13.025 47.197 34.646 2.092 5.878 2.273 11.279 2.073 15.022l-2.215 28.132-57.326 2.563a585.39 585.39 0 0 1-69.913-3.473c-14.223-1.563-6.937 2.618-19.641.315 0 0-15.238 20.702-37.761 12.481s-22.152-34.568-22.152-34.568c-10.633-4.483-25.186-11.531-40.964-22.379-76.061-52.299-149.804-171.763-108.941-283.903 36.038-98.901 139.897-133.586 155.411-138.501"
      class="C"
    />
    <path
      d="M405.558 674.934c12.447 39.065 38.77 68.998 38.77 68.998 3.371 3.442 11.094 14.048 15.604 15.744 5.655-2.014 3.479-5.943 9.48-6.137 5.902-.191 5.363-5.513 11.225-4.806 8.264.997 16.567 2.001 24.576 4.27 14.778 4.186 27.975 12.494 41.539 19.698s28.279 13.503 43.631 13.083c24.8-.679 50.198.063 72.211 11.505.3.156.637.367.666.704s-.553.565-.632.236c-2.907-12.147-12.489-21.857-22.638-29.138-10.49-7.526-23.018-11.528-34.781-16.846-20.405-9.226-43.588-9.385-61.686-22.572-12.288-8.954-36.17-26.968-42.365-33.636-4.672-5.029-22.687-25.231-31.502-57.976-3.787-14.064-7.034-26.122-4.922-39.373 5.97-37.475 52.005-62.784 83.667-96.791 17.551-18.851 57.489-35.572 60.699-96.791-3.927-34.997-10.791-43.299-16.405-44.295-13.766-2.44-23.154 38.494-63.981 72.184-22.64 18.683-32.188 16.355-52.497 29.529-64.805 42.042-91.727 146.283-70.659 212.41M344.9 709.975c4.506-2.531 4.282-11.482-.499-19.992s-12.309-13.357-16.814-10.826-4.283 11.482.499 19.992 12.309 13.357 16.814 10.826m206.449 119.927c.567-4.866-6.423-9.678-15.613-10.749s-17.1 2.005-17.666 6.871 6.423 9.677 15.613 10.748 17.1-2.005 17.666-6.87m43.805 4.832c.566-4.866-6.424-9.678-15.613-10.749s-17.101 2.005-17.667 6.871 6.424 9.677 15.613 10.748 17.1-2.005 17.667-6.87m-27.323-14.964c.309-2.652-3.502-5.275-8.512-5.859s-9.321 1.093-9.63 3.745 3.501 5.275 8.511 5.859 9.321-1.093 9.631-3.745m-184.827-92.515c1.94-1.834.704-6.292-2.762-9.957s-7.847-5.148-9.787-3.313-.704 6.292 2.762 9.957 7.848 5.148 9.787 3.313m11.478 49.309c1.939-1.834.703-6.292-2.762-9.957s-7.847-5.147-9.788-3.313-.703 6.292 2.763 9.957 7.847 5.148 9.787 3.313m-83.218-147.95c2.411-1.148 2.607-5.77.438-10.324s-5.879-7.314-8.291-6.166-2.607 5.77-.438 10.323 5.88 7.315 8.291 6.167m65.353 122.376c3.754-3.55 1.361-12.178-5.346-19.271s-15.188-9.962-18.942-6.412-1.361 12.179 5.346 19.271 15.187 9.963 18.942 6.412m-55.311-83.557c4.743-2.05 5.45-10.975 1.578-19.936s-10.856-14.562-15.6-12.512-5.451 10.975-1.579 19.936 10.857 14.562 15.601 12.512m9.151-187.845c4.318 2.838 12.165-1.475 17.525-9.632s6.205-17.072 1.886-19.91-12.165 1.475-17.525 9.633-6.205 17.071-1.886 19.909m9.998 22.743c2.23 1.468 6.286-.757 9.06-4.97s3.212-8.818.983-10.286-6.287.757-9.06 4.97-3.213 8.818-.983 10.286m21.468-31.646c2.077 1.678 6.33-.143 9.499-4.066s4.055-8.465 1.978-10.142-6.331.143-9.5 4.066-4.054 8.464-1.977 10.142m30.251-55.085c2.127 1.613 6.322-.337 9.37-4.356s3.792-8.584 1.665-10.198-6.323.337-9.37 4.356-3.793 8.585-1.665 10.198m-80.282 101.165c4.879 1.702 11.441-4.389 14.657-13.605s1.867-18.068-3.012-19.77-11.442 4.389-14.658 13.605-1.866 18.067 3.013 19.77m3.868 48.225c5.119.704 10.347-6.565 11.676-16.235s-1.743-18.08-6.864-18.784-10.346 6.565-11.675 16.235 1.743 18.08 6.863 18.784m18.81 16.229c2.646.366 5.35-3.388 6.04-8.384s-.893-9.343-3.538-9.708-5.349 3.387-6.04 8.384.893 9.342 3.538 9.708m-37.732-9.844c2.646.366 5.35-3.388 6.041-8.384s-.894-9.343-3.538-9.708-5.35 3.387-6.04 8.384.892 9.342 3.537 9.708m18.158 35.163c5.137-.562 8.44-8.884 7.378-18.587s-6.089-17.114-11.226-16.551-8.439 8.884-7.377 18.587 6.088 17.113 11.225 16.551m47.319-164.178c4.001 3.271 12.252-.205 18.43-7.762s7.943-16.335 3.942-19.606-12.253.204-18.431 7.762-7.942 16.335-3.941 19.606"
      class="G"
    />
    <path
      d="M464.413 584.55a4.34 4.34 0 0 0-3.604 4.19c-.972 49.301 10.592 87.132 34.374 112.444 20.045 21.331 84.896 49.106 118.32 63.23.86.364 2.067.825 3.542 1.386 9.835 3.747 35.958 13.697 41.201 30.552.51 1.636 1.229 4.624 1.72 8.11 1.432 10.163.351 20.505-3.21 30.783-40.22.496-80.857-.9-120.832-4.151-7.63-.62-10.177.377-12.715 1.746-1.073.578-2.001 1.078-7.353.471a4.34 4.34 0 0 0-3.923 1.659c-3.397 4.398-10.693 12.041-21.398 13.802-2.052.337-5.867.965-10.329-.366l-.028-.008c-4.928-1.477-9.251-4.909-12.502-9.928a4.45 4.45 0 0 0-.505-.639l.001.001c.012.004-4.041-5.068-7.454-23.104a4.343 4.343 0 0 0-2.001-2.896c-2.072-1.265-6.968-3.242-14.783-6.362-5.928-2.367-14.044-5.608-15.715-6.74-89.978-60.876-159.271-179.323-117.618-287.922C350.524 404.11 457.716 376.04 461.85 375.002m-1.669-8.518c-.077.014-.152.03-.228.047-1.148.274-115.313 28.687-158.455 141.169-19.744 51.478-16.717 108.893 8.752 166.038 23.182 52.01 62.993 98.953 112.105 132.181 2.282 1.544 8.08 3.905 17.36 7.61l11.885 4.907c3.466 17.149 7.559 23.312 8.959 25.008 4.371 6.633 10.288 11.218 17.127 13.267l.042.012c6.377 1.902 11.67 1.031 14.216.611 12.162-2 20.669-9.698 25.33-15.177 5.643.396 7.851-.492 10.053-1.678 1.091-.588 2.218-1.196 7.893-.735a1307.79 1307.79 0 0 0 124.639 4.139 4.34 4.34 0 0 0 3.979-2.763c4.903-12.576 6.491-25.318 4.722-37.87-.479-3.395-1.237-6.938-2.027-9.476-6.496-20.884-34.458-31.536-46.399-36.083l-3.253-1.271c-31.936-13.495-96.356-40.941-115.374-61.18-21.612-23.002-32.394-57.572-32.069-102.784"
      class="B"
    />
    <path
      d="M496.69 788.061c-12.184-4.38-24.296-1.712-27.054 5.958s-4.305 40.059 7.877 44.439 33.485-20.906 36.242-28.577-4.882-17.44-17.065-21.82"
    />
    <path
      d="m601.081 825.603 7.945-3.204c1.284-.518 2.838-.45 3.725-1.49.946-.985 1.726-2.14 2.416-4.301l-.216-.614a6.24 6.24 0 0 0-2.797-.971c-.903-.127-1.709-.024-2.49.155-1.591.311-2.444 1.851-3.518 2.883a32.31 32.31 0 0 0-2.989 3.335l-2.51 3.722zm38.813-2.253.115 8.566c.019 1.385-.606 2.809.043 4.012.575 1.238 1.371 2.382 3.136 3.807l.651.021a6.235 6.235 0 0 0 1.916-2.257c.445-.796.64-1.585.755-2.378.286-1.595-.841-2.948-1.415-4.321a32.33 32.33 0 0 0-2.03-3.993l-2.562-3.686zm-180.718-44.248c-1.667-4.303-2.311-8.978-.397-12.851 1.988-4.198 5.146-7.848 9.185-10.342 4.019-2.51 8.708-4.02 13.487-4.668 2.403-.301 4.809-.487 7.083-.002 2.445.461 4.928.765 7.34 1.351 4.872.99 9.606 2.483 14.2 4.257 4.574 1.846 8.94 4.127 13.222 6.663s8.547 5.266 13.036 7.758c4.492 2.461 9.11 4.827 13.929 6.676 19.137 7.789 40.002 10.53 60.227 10.681l15.069.205c4.97.162 9.905.339 14.652 1.152 4.729.812 9.312 2.171 13.093 4.851 1.908 1.302 3.587 2.939 5.018 4.813.68.954 1.55 1.812 2.322 2.779s1.473 1.996 2.214 3.056l.614-.215c-.094-1.319-.387-2.609-.751-3.894-.371-1.278-.772-2.604-1.586-3.681-1.427-2.266-3.194-4.403-5.332-6.116-4.251-3.49-9.448-5.533-14.568-6.674-10.32-2.289-20.533-2.266-30.544-2.824-10.023-.458-19.934-.995-29.726-2.387-9.762-1.42-19.495-3.496-28.74-6.884-4.659-1.601-9.113-3.695-13.535-5.923-4.414-2.241-8.714-4.835-13.232-7.223-4.499-2.412-9.203-4.577-14.04-6.355-4.865-1.707-9.844-2.998-14.85-4.022-2.495-.578-5.03-.866-7.541-1.311l-.945-.153a13.45 13.45 0 0 0-1.068-.102 27.99 27.99 0 0 0-2.021-.028 39.76 39.76 0 0 0-3.944.247c-5.205.598-10.368 2.118-14.977 4.856-2.296 1.365-4.458 3.007-6.373 4.927a29.603 29.603 0 0 0-4.821 6.533c-1.399 2.507-2.13 5.491-2.183 8.319-.069 2.852.403 5.612 1.072 8.251z"
      class="B"
    />
    <path
      fill="#fff"
      d="M487.153 819.088c.06-6.058-3.291-11.002-7.484-11.043s-7.643 4.835-7.703 10.892 3.291 11.002 7.485 11.044 7.641-4.835 7.702-10.893m102.985 42.114c2.405-3.435 2.765-7.334.801-8.709s-5.504.296-7.91 3.731-2.764 7.334-.801 8.709 5.504-.295 7.91-3.731"
    />
    <path
      d="M582.852 482.21c-11.974 13.422-19.291 13.55-54.11 37.29a660.119 660.119 0 0 0-20.044 14.214c.82-5.603-3.427-11.812-9.949-9.674-16.022 5.253-28.763 36.201-35.029 51.037-4.222 9.994-7.689 20.862-10.178 32.065-1.562 1.849-2.326 4.325-1.5 7.06l.049.154c-3.076 16.936-3.843 34.373-1.472 50.538 2.144 14.619 7.21 27.874 14.244 40.005-1.095 2.665-.806 5.838 1.854 8.422 3.061 2.973 6.272 5.75 9.595 8.377 2.642 3.36 28.395 6.622 31.292 9.802a401.93 401.93 0 0 1-22.505 5.12c-3.27-.244-6.536-.544-9.796-.9-11.043-1.236-25.587-3.254-37.322.259-8.587-11.406-23.818-34.04-32.423-61.045-21.068-66.128 5.854-170.369 70.659-212.41 20.309-13.175 29.857-10.847 52.497-29.53 40.827-33.689 50.215-74.623 63.981-72.183 5.614.996 12.478 9.297 16.405 44.295a113.883 113.883 0 0 1-4.922 37.731c-2.22 7.228-7.526 23.904-21.326 39.373"
      class="G"
    />
    <path
      d="m613.528 400.188-6.553.34c1.782 34.356-10.14 63.787-35.436 87.477-19.013 17.808-38.872 25.514-39.072 25.589l2.334 6.134c.853-.325 21.094-8.148 41.043-26.764 18.492-17.255 40.039-47.357 37.684-92.776"
      class="B"
    />
    <path
      d="M590.947 356.024c3.684.531 6.266 2.579 6.995 3.116 5.38 3.962 16.856 4.497 22.236-.993 5.603-5.718 4.549-17.921-.993-22.237-5.243-4.082-11.902.919-22.466-4.138-1.411-.676-4.443-2.128-7.071-4.827"
      class="C"
    />
    <path
      d="M591.78 354.036c1.543.241 3.026.733 4.406 1.39.692.328 1.356.703 1.994 1.109l.93.61c.282.205.483.286.724.437.93.534 2.002.957 3.133 1.239 4.48 1.192 9.778.647 13.262-1.519a8.32 8.32 0 0 0 3.479-4.578 14.89 14.89 0 0 0 .654-6.428c-.239-2.181-.906-4.364-1.992-5.914-.518-.8-1.131-1.398-1.736-1.746-.602-.366-1.232-.561-2.175-.658-1.92-.167-4.74.192-7.718.138-3.002-.046-6.19-.544-9.12-1.584-.746-.236-1.439-.567-2.159-.852-.738-.297-1.31-.583-2.024-.934a29.79 29.79 0 0 1-2.686-1.552l-.137-12.283a13.99 13.99 0 0 0 3.862 4.694c.847.671 1.78 1.276 2.788 1.832a30.909 30.909 0 0 0 3.144 1.489c2.092.825 4.243 1.256 6.589 1.39 2.371.17 4.913-.161 8.334.202 1.712.213 3.706.832 5.332 1.954 1.65 1.098 2.882 2.531 3.773 4.001 1.838 2.958 2.577 6.109 2.823 9.237.232 3.129-.172 6.313-1.37 9.366-1.106 3.035-3.582 5.965-6.509 7.577-2.919 1.596-6.05 2.228-9.058 2.296-3.022.066-5.999-.343-8.858-1.361a17.076 17.076 0 0 1-4.155-2.07c-.311-.225-.697-.473-.94-.684l-.707-.551a12.756 12.756 0 0 0-4.635-2.114l-.047-4.231.799.098"
      class="B"
    />
    <path
      d="m634.36 356.747-10.711-6.924c-1.732-1.119-2.981-3.068-5.008-3.256-2.01-.307-4.084-.265-7.306.746l-.562.79c.083 1.72.569 3.106 1.215 4.236.621 1.208 1.437 2.101 2.325 2.898 1.741 1.67 4.348 1.39 6.524 1.811a48.23 48.23 0 0 0 6.623.778l6.682-.135z"
      class="D"
    />
    <path
      d="M602.69 340.846c3.496-1.551 6.256-4.36 8.864-7.158a275.735 275.735 0 0 0 11.53-13.175c5.014-6.112 9.835-12.562 12.556-19.984 3.918-10.69 3.17-22.447 2.369-33.804-.363-5.155-.752-10.418-2.755-15.182a23.96 23.96 0 0 0-13.265-12.892c-1.254-.486-2.6-.868-3.932-.68-1.399.2-2.628 1.005-3.79 1.81-16.395 11.353-29.826 26.839-39.092 44.474-5.983 11.388-24.454 49.621-3.442 52.825 5.251.801 9.042.875 14.203 2.742 5.525 1.999 11.07 3.545 16.754 1.024"
      class="C"
    />
    <path
      d="m585.727 352.85-2.483 6.074c1.028.429 25.204 10.985 23.936 51.629l6.56.205c1.416-45.426-26.812-57.419-28.013-57.908"
      class="B"
    />
    <path
      d="M402.34 421.07c.842-7.441 3.412-14.572 6.221-21.514 6.091-15.052 13.543-29.819 24.524-41.781s25.88-20.955 42.068-22.207c17.922-1.386 35.844 7.038 47.973 20.304 9.048 9.896 15.256 22.76 15.539 36.166.167 7.912-1.698 15.755-4.41 23.191-5.004 13.72-13.216 26.634-25.153 35.048-7.783 5.484-16.837 8.871-25.942 11.654-7.344 2.245-14.835 4.144-22.483 4.839-16.595 1.508-33.666-2.889-47.468-12.227-5.824-3.941-5.915-7.694-7.751-13.555-2.156-6.881-3.958-12.507-3.118-19.918"
      class="C"
    />
    <g class="B">
      <path
        d="M399.26 420.72a36.407 36.407 0 0 0 .06 7.156c.284 2.364.822 4.661 1.47 6.847l2.207 6.329 2.214 6.217c.82 2.192 2.182 4.477 3.989 6.135a19.36 19.36 0 0 0 2.831 2.181l2.877 1.742c3.863 2.227 7.866 4.185 12.007 5.797a75.48 75.48 0 0 0 26.01 5.333c8.934.284 17.825-1.27 26.33-3.575 8.482-2.305 17.017-4.861 25.034-9.053 8.057-4.132 15.11-10.306 20.646-17.46 5.553-7.181 9.77-15.284 12.867-23.749 3.069-8.438 5.143-17.724 4.144-27.177-.937-9.38-4.442-18.313-9.527-26.057-5.108-7.741-11.776-14.45-19.537-19.564-7.767-5.086-16.619-8.658-25.95-9.998-4.682-.677-9.43-.757-14.132-.239s-9.295 1.699-13.679 3.323c-8.77 3.293-16.646 8.431-23.434 14.608-6.769 6.255-12.353 13.538-17.021 21.236-4.677 7.705-8.476 15.811-11.819 24.011-3.271 8.139-6.609 16.65-7.587 25.957m6.159.697c1.037-8.134 4.292-16.063 7.724-24.002 3.443-7.898 7.283-15.575 11.855-22.711 4.557-7.129 9.901-13.712 16.115-19.178 6.176-5.51 13.253-10.013 20.895-12.798 7.648-2.766 15.765-3.762 23.754-2.626 7.99 1.106 15.754 4.169 22.615 8.62a61.166 61.166 0 0 1 17.527 17.022c4.6 6.767 7.896 14.471 8.89 22.502 1.067 7.987-.321 16.308-2.931 24.328-2.612 8.042-6.285 15.763-11.186 22.607-4.92 6.831-11.11 12.676-18.487 16.811-7.362 4.185-15.576 7.057-23.87 9.552-8.286 2.449-16.766 4.178-25.344 4.061a72.847 72.847 0 0 1-25.151-4.808c-3.997-1.567-7.858-3.504-11.422-5.887-1.796-1.209-3.541-2.409-4.806-3.849-1.297-1.445-2.037-3.12-2.565-5.075-.517-1.94-.935-4.199-1.515-6.348a133.694 133.694 0 0 1-1.476-6.25c-.87-4.092-1.168-8.026-.622-11.971"
      />
      <path
        d="M504.69 454.91c.592 1.894-21.022 12.747-46.237 15.853-18.065 2.225-27.029-.875-30.934-2.5-6.55-2.725-10.799-6.267-12.022-7.323-11.43-9.861-14.329-23.203-15.17-28.488 1.474 2.676 2.308 3.968 2.502 3.879.141-.066-.062-.873-.608-2.422.199-2.507.488-4.985.915-7.41 1.841 6.966 4.928 13.585 9.217 19.254 4.847 6.452 11.29 11.487 18.654 14.939 7.372 3.434 15.561 5.254 23.825 5.726.048.003.097.003.145.006a109.338 109.338 0 0 0 18.007-2.266 109.744 109.744 0 0 0 26.422-9.248c4.27-.631 5.177-.342 5.284 0"
      />
    </g>
    <path
      d="m718.855 662.09 118.853 98.183a122.48 122.48 0 0 1-29.163 11.072c-1.877.448-3.823.851-5.749.382-2.733-.666-5.015-2.971-7.177-5.149-14.86-14.966-30.945-28.123-47.378-40.502-28.667-21.597-58.454-40.895-88.213-60.172l-109.386-70.86c-11.783-7.633-23.988-15.766-33.796-26.432l-1.072 2.771-63.731 157.314-32.262 79.383-15.448 39.108c-3.006 7.716-8.669 31.304-15.221 35.249-12.486 7.517-3.728-45.611-2.526-55.799 2.904-24.596 7.172-49.283 12.429-73.874 10.584-49.506 25.156-98.56 41.293-147.013 21.665-65.05 46.076-129.242 70.472-193.391l87.356-229.711c1.273-3.346 2.835-7.064 5.511-8.634 1.604-.942 3.299-.901 4.912-.839l35.483 1.362c-25.344 70.671-42.51 143.526-64.279 215.21-12.564 41.378-26.685 82.341-41.701 122.991L718.855 662.09"
      class="E"
    />
    <path
      d="M387.168 879.765c-1.52-2.132-2.964-11.386 2.001-47.645l.676-5.097c2.738-23.203 6.903-47.956 12.379-73.572 9.353-43.754 22.443-90.357 41.197-146.664 21.665-65.048 46.453-130.228 70.425-193.26l87.356-229.712c.781-2.052 2.237-5.873 4.106-6.97.757-.446 1.732-.444 3.126-.39l31.016 1.19c-15.584 44.072-28.277 89.578-40.564 133.627l-22.263 77.522c-11.573 38.117-25.194 78.288-41.638 122.809l-.807 2.184 297.579 245.826a118.877 118.877 0 0 1-23.975 8.541c-1.6.382-3.018.674-4.211.385-1.826-.445-3.749-2.383-5.608-4.257-13.057-13.15-28.224-26.119-47.748-40.827-28.78-21.682-59.092-41.316-88.404-60.305l-109.387-70.86c-12.651-8.196-23.878-15.802-33.162-25.899l-3.56-3.869-2.986 7.673L458.02 705.52l-9.012 21.931-32.274 79.411-15.459 39.135c-.786 2.018-1.708 4.949-2.774 8.344-2.523 8.024-7.221 22.961-11.082 25.285a3.4 3.4 0 0 1-.251.139m220.268-709.897c-1.571 0-3.533.192-5.451 1.317-3.559 2.09-5.368 6.232-6.916 10.297l-87.356 229.712-70.518 193.521c-18.832 56.542-31.983 103.367-41.389 147.364-5.518 25.814-9.716 50.77-12.479 74.175l-.66 4.976c-4.902 35.806-4.605 50.514 1.093 54.267 1.182.779 3.671 1.78 7.043-.249 5.55-3.34 9.444-14.586 13.957-28.939 1.032-3.282 1.924-6.117 2.629-7.93l15.439-39.081 32.252-79.355 9.01-21.928 53.964-133.449c9.076 8.88 19.756 16.075 30.801 23.232l109.389 70.86c29.215 18.926 59.428 38.497 88.023 60.039 19.266 14.514 34.209 27.286 47.024 40.193 2.398 2.417 5.102 5.14 8.729 6.024 2.604.636 5.027.163 7.286-.378a125.739 125.739 0 0 0 29.944-11.368l4.324-2.304-301.628-249.172c16.128-43.773 29.534-83.375 40.957-120.991l22.302-77.665c12.649-45.344 25.73-92.232 41.924-137.39l1.511-4.214-39.956-1.534a30.82 30.82 0 0 0-1.248-.03"
      class="F"
    />
    <path
      d="M615.491 335.672c-2.033.437-4.228.653-8.534.185-6.914-.751-8.405.472-15.103-1.506-1.2-.354-1.724-.835-2.405-1.323-3.862-2.767-8.212-9.35-6.812-17.047.852-4.682 3.7-9.063 7.345-10.985 1.284-.677 2.337-1.061 3.191-1.028 4.64.18 6.93 1.3 12.425 2.819 1.147.317 10.433 2.885 11.991-.385.532-1.114.004-2.571-.061-2.744-.881-2.347-3.801-2.797-4.735-2.959-1.936-.336-14.696-2.656-20.072-8.762-5.301-6.022-5.935-17.065-1.401-24.414 1.079-1.751 2.43-3.313 4.049-4.288 1.431-.861 3.022-1.237 4.597-1.333 8.186-.497 15.056 6.153 22.71 9.213.739.296 1.533.561 2.309.338 2.236-.644 2.404-4.806.758-6.598s-4.101-1.968-6.332-2.4c-7.563-1.467-15.752-8.491-17.531-16.97-1.343-6.397.483-15.318 5.399-19.341 6.34-5.189 9.882-2.71 17.695 1.746 5.85 3.337 12.248 6.987 16.569 14.574 7.417 13.024 3.937 29.278.265 46.43-1.519 7.098-8.753 43.002-26.317 46.778"
      class="C"
    />
    <path
      d="M615.83 338.64c2.235-.833 7.128-2.359 11.515-7.431 3.094-3.579 5.5-7.704 7.505-11.96 4-8.542 6.604-17.624 8.636-26.752 1.91-9.013 4.164-18.047 4.838-27.737.342-4.816.12-9.826-.962-14.642-1.057-4.831-3.124-9.323-5.872-12.999-2.755-3.704-6.186-6.466-9.637-8.699-3.504-2.212-1.509-1.451-5.062-3.352-3.568-1.813-7.324-3.594-11.703-4.018-2.174-.168-4.574.035-6.865 1.167-2.285 1.115-4.299 3.064-5.689 5.347-1.409 2.292-2.314 4.833-2.861 7.403a28.096 28.096 0 0 0-.582 7.825c.137 2.61.817 5.291 1.835 7.553 1.016 2.28 2.339 4.253 3.812 5.975 2.958 3.438 6.525 5.924 10.428 7.473 1.901.795 4.163 1.245 5.895 1.531.869.174 1.658.386 2.262.712.305.161.567.344.792.55.271.256.256.285.39.532.209.411.274 1.13.165 1.558-.043.22-.122.324-.126.31s.054-.068.007-.037c-.08.055-.837-.155-1.713-.595-.83-.374-1.654-.815-2.479-1.27-3.315-1.802-6.531-4.216-10.251-6.09-3.698-1.88-8.008-3.228-12.762-2.304-2.412.433-5.025 2.146-6.75 4.223-1.787 2.046-3.066 4.51-4.002 7.12-1.82 5.237-1.907 11.009-.443 16.089.728 2.545 1.863 4.937 3.402 6.931 1.532 2.029 3.485 3.543 5.328 4.602 3.758 2.152 7.603 3.326 11.461 4.221 1.931.439 3.857.832 5.816 1.115.984.117 1.696.273 2.377.569.665.287 1.104.692 1.246 1.036.089.135.184.563.188.72-.019.219.019.079.024.002.111-.007-.644.4-1.41.444-1.591.186-3.459-.024-5.244-.378-3.613-.727-7.112-2.16-11.028-3.289a25.69 25.69 0 0 0-3.027-.619c-.51-.071-1.02-.133-1.527-.175l-.382-.034a5.13 5.13 0 0 0-.583-.004 6.288 6.288 0 0 0-1.066.157c-1.333.348-2.231.767-3.355 1.386a14.75 14.75 0 0 0-2.996 2.312c-1.816 1.826-3.274 4.039-4.53 6.504-1.23 2.463-2.021 5.484-1.875 8.461.112 2.977.921 5.738 2.021 8.144 1.129 2.399 2.573 4.475 4.298 6.216.426.441.884.853 1.355 1.242a27.93 27.93 0 0 0 1.365 1.005c.434.315 1.149.779 1.828 1.054.34.145.673.257.991.348l.743.198a44.48 44.48 0 0 0 5.738 1.355c4.414.738 10.927 1.827 18.521-1.005m-.677-5.933s-5.864 2.071-16.373-.357c-2.006-.463-4.415-1.26-5.42-1.581-1.125-.359-1.007-.318-1.704-.838-.472-.36-.712-.563-1.013-.82-.289-.274-.585-.533-.864-.838-2.274-2.378-3.863-5.772-3.951-8.991-.058-1.596-.088-3.251.311-5.037.355-1.788 1.277-3.452 2.419-4.722a10 10 0 0 1 1.852-1.652c.624-.426 1.548-.904 2.107-1.085.144-.047.271-.078.368-.096l.137-.015.337.003 1.342.046c.888.054 1.763.162 2.648.324 3.56.648 7.301 2.076 11.254 2.713 1.981.327 3.953.647 6.21.393a7.629 7.629 0 0 0 1.813-.431c.643-.277 1.411-.633 2.101-1.573.757-.888.993-2.293.947-3.194-.045-.983-.186-1.688-.539-2.546-.718-1.7-1.969-2.594-3.047-3.124-1.083-.542-2.266-.778-3.173-.967-1.815-.406-3.639-.868-5.414-1.466-3.539-1.194-7.013-2.718-9.938-4.788-1.48-1.058-2.653-2.192-3.549-3.613-.9-1.434-1.579-3.088-2.008-4.857-.845-3.547-.689-7.524.474-10.923.578-1.677 1.433-3.266 2.441-4.533 1.036-1.276 2.006-1.935 3.414-2.381 2.919-.821 6.369-.242 9.683 1.15 3.36 1.377 6.75 3.385 10.379 5.169.912.438 1.837.867 2.798 1.236.887.311 1.965 1.008 3.833.736.902-.179 1.891-.748 2.561-1.627.678-.865 1.037-1.86 1.209-2.765.318-1.829.136-3.52-.559-5.09-.311-.744-.946-1.59-1.432-2.006a7.6 7.6 0 0 0-1.641-1.156c-1.128-.593-2.222-.848-3.231-1.057-2.046-.354-3.571-.643-5.252-1.354a22.85 22.85 0 0 1-8.682-6.573c-2.379-2.943-3.987-6.426-4.095-10.277-.17-3.877.788-8.114 2.693-11.064 1.828-3.061 4.59-4.444 7.895-4.08 3.284.352 6.7 1.928 10.036 3.717 3.323 1.853 1.479 1.223 4.631 3.266 3.162 2.077 6.002 4.52 8.275 7.527 4.709 5.97 6.387 14.391 5.829 23.096-.51 8.732-2.537 17.702-4.423 26.659-1.973 8.789-4.498 17.483-8.203 25.287-1.854 3.88-4.039 7.508-6.624 10.451-3.324 3.784-7.069 5.07-8.862 5.704"
      class="B"
    />
    <path
      d="m573.935 305.902 11.935 3.32c1.929.538 4.151.003 5.593 1.537 1.519 1.424 2.826 3.185 4.167 6.684l-.211 1.105c-1.303 1.321-2.624 2.036-3.861 2.412-1.277.459-2.452.502-3.603.407-2.336-.1-3.813-2.496-5.521-3.967a46.85 46.85 0 0 1-4.834-4.883l-4.209-5.67zm19.369-72.476 11.348 5.32c1.834.86 3.336 2.777 5.306 2.509 1.975-.127 3.957-.668 6.889-2.581l.415-1.03c-.348-1.933-1.03-3.391-1.825-4.521-.783-1.225-1.704-2.045-2.68-2.739-1.93-1.483-4.385-.546-6.536-.508a39.88 39.88 0 0 0-6.471.688c-2.155.509-4.264.919-6.384 1.738zm-14.002 41.171 11.348 5.32c1.835.859 3.336 2.776 5.307 2.509 1.975-.128 3.957-.668 6.888-2.581l.416-1.03c-.348-1.933-1.03-3.391-1.825-4.522-.783-1.224-1.705-2.044-2.68-2.738-1.93-1.483-4.386-.546-6.536-.508a39.88 39.88 0 0 0-6.471.688c-2.155.509-4.265.918-6.384 1.738z"
      class="D"
    />
    <path
      d="M509.373 400.41s-2.382 4.036-1.406 9.236c.287 1.529 1.131 3.181 2.975 6.397 3.843 6.698 5.601 7.627 5.811 10.672.235 3.417-1.713 6.089-2.26 6.839-3.474 4.766-10.08 6.068-14.973 4.79-3.063-.801-6.211-2.695-9.034-6.304-3.93-5.026-6.481-9.833-7.651-13.719-1.367-4.54-3.181-13.285.425-31.319a147.07 147.07 0 0 1 12.709-36.972c5.566-11.129 10.574-20.903 21.028-30.012 7.512-6.546 14.902-11.671 24.147-11.277 8.188.349 17.451 11.231 15.998 20.457-1.395 8.859-12.662 16.119-20.457 15.997-1.056-.017-4.895-.214-8.754 1.775-.778.4-4.036 2.079-3.926 4.109.031.572.319.992.435 1.156 3.82 5.416 18.943 8.009 18.943 8.009 15.842 2.717 16.245 2.322 18.055 3.632 5.99 4.333 10.625 15.085 5.668 23.462-4.176 7.057-13.597 9.782-19.427 7.584-3.777-1.424-9.244-6.12-11.761-8.554-.41-.396-2.371-2.036-5.265-3.489-2.596-1.304-4.837-1.603-5.608-.687-.824.979.232 3.097.888 4.378 3.356 6.564 9.712 9.568 10.187 9.784 2.08.95 3.24 1.108 12.446 2.946 0 0 16.139 7.666 6.012 20.658-6.089 7.811-21.384 7.646-31.531 1.835-13.354-7.646-14.943-23.603-15.091-25.383"
      class="C"
    />
    <path
      d="M507.804 398.815c-1.021 1.768-1.564 3.383-1.905 5.227a16.258 16.258 0 0 0-.034 5.562c.429 2.115 1.261 3.63 2.008 5.11l2.404 4.327 2.605 4.15c.414.65.778 1.258.975 1.734a3.6 3.6 0 0 1 .291 1.396c.037 1.077-.225 2.21-.772 3.315a9.89 9.89 0 0 1-1.004 1.619 9.71 9.71 0 0 1-1.243 1.352c-1.839 1.62-4.43 2.579-7.073 2.677-2.655.12-5.152-.552-7.372-2.023-2.235-1.436-3.963-3.653-5.774-6.231-1.74-2.501-3.289-5.135-4.416-7.844-2.234-5.353-2.732-11.541-2.457-17.717.292-6.196 1.299-12.451 2.646-18.62 2.666-12.377 7.207-24.237 13.095-35.519 2.942-5.665 5.996-11.175 9.779-16.079 3.766-4.943 8.301-9.085 13.304-12.876 4.906-3.724 10.225-6.638 15.747-6.927.687-.05 1.376-.053 2.065-.018.374-.009.635.049.899.092.269.052.534.042.817.15 1.114.222 2.262.84 3.365 1.488 2.179 1.442 4.19 3.45 5.601 5.775 1.442 2.297 2.377 4.886 2.427 7.275.154 2.347-.758 4.571-2.294 6.714-1.581 2.092-3.712 3.971-6.124 5.36-2.379 1.422-5.069 2.392-7.516 2.633-.866.088-3.126-.074-4.967.213a20.25 20.25 0 0 0-5.648 1.565c-1.769.872-3.428 1.629-5.279 3.713a7.024 7.024 0 0 0-1.247 2.255c-.327.981-.361 2.32-.007 3.373.166.528.4 1 .655 1.402.259.411.397.523.606.791.386.444.789.966 1.194 1.279 1.634 1.514 3.282 2.388 4.915 3.209 1.635.814 3.26 1.414 4.889 1.986 1.628.558 3.257 1.021 4.891 1.449l2.459.591 1.241.265.628.126.321.061.109.021a1.14 1.14 0 0 1-.181-.054l.416.097 15.361 2.58c.539.115.829.224.858.247.088.026.609.459.957.737.746.662 1.477 1.416 2.103 2.286 1.275 1.711 2.286 3.709 2.833 5.776 1.155 4.156.53 8.383-2.062 11.451-2.503 3.102-6.918 5.098-10.94 5.044-2.08-.023-3.401-.51-5.496-1.83-1.968-1.244-3.95-2.797-5.833-4.419l-1.389-1.237-.672-.625a13.73 13.73 0 0 0-.984-.851 29.56 29.56 0 0 0-3.721-2.496c-1.259-.711-2.645-1.431-4.331-1.935-.846-.243-1.764-.456-2.986-.455-.631.021-1.362.076-2.299.466-.918.339-2.107 1.382-2.538 2.557-.451 1.15-.396 2.032-.332 2.696.079.677.226 1.184.375 1.644.305.918.658 1.632.985 2.286.678 1.302 1.494 2.695 2.435 3.875 1.866 2.427 4.119 4.443 6.603 6.083.63.406 1.263.799 1.939 1.163.35.186.669.356 1.103.553.349.154.717.314 1.109.46 1.612.595 2.996.852 4.31 1.136l7.761 1.521-.783-.26a19.45 19.45 0 0 1 3.857 2.622c1.184 1.032 2.133 2.203 2.763 3.4.371.593.498 1.214.719 1.818.048.622.225 1.229.11 1.869.044.628-.219 1.282-.359 1.937-.197.658-.595 1.314-.849 1.992l-1.288 1.968c-.484.518-.871 1.087-1.465 1.518-1.063.958-2.423 1.692-3.905 2.237-2.962 1.114-6.397 1.492-9.804 1.288-6.832-.449-13.721-2.871-18.552-7.799-2.406-2.465-4.394-5.407-5.943-8.617-1.515-3.215-1.312-3.046-1.9-6.569l-.008-.048a1.275 1.275 0 0 0-2.529.259c.154 3.937-.31 4.064 1.04 7.773 1.363 3.691 3.312 7.259 6.002 10.309a29.75 29.75 0 0 0 9.741 7.28 34.452 34.452 0 0 0 11.686 3.213c4.048.378 8.261.201 12.372-1.242 2.044-.7 4.078-1.71 5.86-3.203.93-.678 1.703-1.608 2.479-2.471l1.852-2.696c.487-1.04 1.053-2.021 1.412-3.148.312-1.161.691-2.293.7-3.561.163-1.236-.05-2.483-.228-3.72-.338-1.181-.682-2.39-1.272-3.423-1.097-2.124-2.583-3.89-4.206-5.339a25.54 25.54 0 0 0-5.404-3.711 2.62 2.62 0 0 0-.657-.234l-.127-.025-7.67-1.577c-2.69-.549-4.052-1.006-6.073-2.389-1.881-1.265-3.57-2.821-4.883-4.571-.688-.881-1.188-1.772-1.718-2.796-.258-.517-.468-.993-.569-1.324a1.15 1.15 0 0 1-.068-.269c-.007.016.061.222-.141.761-.191.562-.86 1.128-1.173 1.22-.332.135-.4.107-.378.112.092.003.475.048.883.182.831.251 1.799.731 2.813 1.322a22.756 22.756 0 0 1 2.794 1.906 6.67 6.67 0 0 1 .501.439l.761.723 1.536 1.394c2.076 1.816 4.211 3.542 6.662 5.129 1.242.78 2.536 1.569 4.24 2.161 1.683.612 3.356.817 4.985.867 6.458.054 12.558-2.625 16.806-7.575 2.086-2.474 3.577-5.57 4.128-8.786.545-3.22.261-6.455-.567-9.442-.824-3-2.225-5.767-4.088-8.254-.919-1.251-2.012-2.404-3.236-3.469-.684-.529-1.14-.986-2.207-1.59-1.129-.606-2.126-.824-2.864-.989-2.912-.568-5.337-.878-7.962-1.314l-7.729-1.27.415.096-2.606-.535-2.23-.527c-1.474-.381-2.941-.792-4.354-1.272-1.404-.485-2.801-.999-4.043-1.618-1.236-.6-2.444-1.295-3.16-1.988-.246-.169-.295-.329-.452-.475-.041-.045-.202-.21-.148-.147a1.33 1.33 0 0 1 .143.317c.11.286.099.786.008 1.001-.062.214-.117.235-.065.171.26-.365 1.496-1.202 2.615-1.691a13.01 13.01 0 0 1 3.607-1.006c1.348-.218 2.318-.055 4.657-.198 3.958-.417 7.415-1.788 10.549-3.643 3.139-1.845 5.948-4.268 8.23-7.315 1.094-1.562 2.119-3.235 2.749-5.177.383-.924.542-1.978.754-2.975.083-1.023.234-2.065.138-3.062-.161-4.066-1.679-7.664-3.676-10.766-2.005-3.12-4.663-5.75-7.88-7.786-1.663-.953-3.411-1.845-5.465-2.259-.482-.151-1.031-.177-1.555-.241-.534-.059-1.071-.11-1.501-.087a23.18 23.18 0 0 0-2.75.127c-3.661.35-7.188 1.524-10.299 3.144-3.144 1.6-5.908 3.623-8.504 5.718-5.105 4.137-9.92 8.972-13.827 14.363-3.976 5.366-7.06 11.219-9.928 17.005-2.938 5.733-5.728 11.718-7.994 17.827-2.269 6.123-4.213 12.372-5.739 18.73-1.511 6.355-2.686 12.816-3.129 19.457-.393 6.596-.121 13.587 2.55 20.195 1.334 3.234 3.063 6.171 4.977 8.95.99 1.402 1.903 2.683 3.133 4.098a21.51 21.51 0 0 0 4.165 3.675 17.93 17.93 0 0 0 5.199 2.39c1.893.517 3.817.647 5.704.538 3.759-.225 7.553-1.601 10.507-4.289 1.442-1.342 2.613-2.947 3.451-4.73s1.368-3.876 1.192-6.017a9.031 9.031 0 0 0-.856-3.255c-.473-.985-.993-1.727-1.466-2.416l-2.684-3.907a97.942 97.942 0 0 1-2.445-4.005c-.764-1.34-1.535-2.671-1.79-3.712-.625-2.515-2.084-4.963-1.023-7.285l.092-.2a1.913 1.913 0 0 0-.947-2.534c-.902-.412-.116-.699-.604.141"
      class="B"
    />
    <path
      d="m568.259 314.09-14.996 1.035c-2.424.168-4.98-.789-7.024.465-2.113 1.129-4.041 2.635-6.366 5.865l.029 1.142c1.293 1.564 2.731 2.527 4.138 3.138 1.44.701 2.84.967 4.24 1.092 2.823.345 5.083-1.761 7.433-2.901a56.8 56.8 0 0 0 6.798-3.944l6.208-4.847zm12.164 62.914-14.831-2.446c-2.398-.394-4.665-1.913-6.942-1.164-2.317.612-4.539 1.634-7.545 4.242l-.236 1.118c.899 1.82 2.076 3.088 3.305 4.006 1.239 1.014 2.541 1.595 3.875 2.039 2.667.986 5.353-.544 7.901-1.111a56.855 56.855 0 0 0 7.523-2.273l7.157-3.288zm-11.677 39.602-13.453-6.704c-2.176-1.083-3.895-3.202-6.292-3.156-2.394-.097-4.818.225-8.459 1.832l-.555.999c.322 2.004 1.075 3.562 1.979 4.802.886 1.333 1.959 2.271 3.103 3.089 2.258 1.727 5.275 1.056 7.878 1.264 2.625.198 5.245.207 7.859.043l7.808-1.035zm-54.305 33.812-3.438-14.633c-.556-2.366-.025-5.042-1.591-6.857-1.455-1.904-3.251-3.563-6.815-5.337l-1.122.211c-1.335 1.529-2.054 3.103-2.43 4.591-.459 1.533-.497 2.958-.394 4.36.114 2.841 2.557 4.733 4.061 6.869a56.64 56.64 0 0 0 4.988 6.073l5.784 5.346z"
      class="D"
    />
    <path
      d="M492.853 611.321c15.363 3.955 28.187 1.034 28.187 1.034s20.04-11.401 14.858-26.258-19.693-5.874-19.693-5.874c-6.244 6.438-6.971 7.287-8.811 8.465-.419.269-6.122 3.814-13.129 3.11-1.368-.138-3.614-.387-3.974-1.556-.334-1.093 1.065-2.737 3.456-4.145 2.666-1.57 4.997-2.295 5.528-2.419 3.257-.76 9.857-2.716 12.956-5.009 4.783-3.54 7.476-12.513 3.974-19.521-4.156-8.316-15.187-10.164-21.767-7.601-1.988.775-1.88 1.303-12.265 12.61 0 0-9.914 10.795-16.238 11.056-.192.008-.679.022-1.153-.249-1.687-.963-1.347-4.448-1.266-5.279.402-4.128 2.549-7.107 3.109-7.946 4.136-6.193 4.143-18.995-2.245-24.703-6.651-5.944-20.182-4.146-24.703 2.245-4.275 6.046 1.634 13.204-3.455 25.221-.68 1.606-2.14 5.056-5.01 8.119-9.234 9.859-23.258 5.252-39.386 9.328 0 0-15.271 3.86-28.809 17.367-27.15 27.088-6.675 84.785-5.742 87.318l50.097 3.11s-8.983-77.736 43.015-74.799c0 0 11.402-1.036 26.084 12.957s20.73 17.274 35.932 15.893c4.357-.396 7.509-1.942 9.738-3.987 3.56-3.264 5.935-9.24 3.909-14.497-.318-.827-1.454-3.775-4.318-5.355-2.553-1.409-4.209-.479-11.574-.864-3.537-.185-5.301-.363-6.676-.925-4.679-1.91-6.685-5.912-6.685-5.912"
      class="C"
    />
    <g class="B">
      <path
        d="M408.995 689.557c-.551-8.069-.376-16.329.456-24.395.862-8.075 2.56-16.05 5.442-23.453 2.939-7.326 7.319-14.109 13.572-18.383 3.118-2.115 6.624-3.572 10.303-4.441 3.684-.912 7.581-.918 11.441-.798.13.004.259.002.387-.004l.075-.005c.214-.011.963.031 1.473.085a22.77 22.77 0 0 1 1.754.279 26.45 26.45 0 0 1 3.549.966 37.35 37.35 0 0 1 6.855 3.218c2.178 1.352 4.327 2.793 6.309 4.494 2.014 1.64 3.871 3.457 5.946 5.41 2.047 1.905 4.112 3.805 6.335 5.62 2.203 1.822 4.541 3.59 7.172 5.094 2.611 1.514 5.536 2.735 8.568 3.419 3.031.698 6.081.888 9.012.854a65.519 65.519 0 0 0 4.341-.213c1.428-.088 3.127-.308 4.685-.73 3.169-.821 6.331-2.48 8.712-5.039a18.48 18.48 0 0 0 4.555-8.992c.326-1.69.398-3.472.119-5.238a13.175 13.175 0 0 0-.653-2.608c-.287-.867-.611-1.566-1.044-2.377-.84-1.543-1.986-3.024-3.515-4.191a11.035 11.035 0 0 0-2.559-1.444c-.978-.394-2.092-.586-2.983-.625-1.787-.064-3.052.088-4.403.131-1.327.064-2.64.113-3.968.111a92.194 92.194 0 0 1-3.97-.07 16.04 16.04 0 0 1-1.737-.147c-.506-.068-.882-.195-1.458-.417-2.055-.79-4.091-2.436-5.368-4.215l-.141-.198a1.783 1.783 0 0 0-3.062 1.803c1.427 3.014 3.597 5.292 6.479 6.922.668.364 1.562.783 2.407 1 .831.232 1.6.369 2.339.486 1.482.222 2.844.343 4.263.473 1.42.122 2.859.217 4.283.247 1.399.034 2.887 0 3.847.113 1.358.123 2.763 1.351 3.637 3.123.921 1.898 1.085 3.726.691 5.792a11.57 11.57 0 0 1-2.875 5.511c-1.389 1.471-3.25 2.54-5.391 3.113-1.1.3-2.14.457-3.455.552a57.701 57.701 0 0 1-3.899.226c-5.167.153-9.81-.738-14.101-3.244-4.321-2.445-8.362-6.059-12.352-9.692-1.945-1.799-4.043-3.82-6.311-5.637-2.216-1.862-4.658-3.487-7.167-5.007a43.8 43.8 0 0 0-8.095-3.708 32.84 32.84 0 0 0-4.418-1.157 26.01 26.01 0 0 0-2.327-.319c-.86-.05-1.487-.122-2.649-.04l.462-.008c-4.385-.052-8.84.068-13.198 1.236-4.337 1.119-8.532 2.981-12.203 5.604-7.388 5.324-12.094 13.225-15.095 21.222-2.917 8.105-4.296 16.534-4.909 24.915-.578 8.407-.428 16.756.589 25.151a1.634 1.634 0 0 0 3.253-.303z"
      />
      <path
        d="M358.603 686.145c-2.267-10.104-3.945-20.378-4.704-30.547-.785-10.152-.601-20.331 1.419-29.846.978-4.756 2.542-9.3 4.729-13.391.566-1.009 1.074-2.057 1.74-2.99.611-.974 1.25-1.925 1.982-2.798.669-.927 1.436-1.764 2.224-2.581.72-.837 1.654-1.655 2.528-2.479a67.41 67.41 0 0 1 11.671-8.597 76.988 76.988 0 0 1 6.453-3.334 67.4 67.4 0 0 1 3.317-1.397l1.66-.606 2.33-.767-.826.282c5.205-1.367 10.74-1.832 16.742-2.209 2.993-.216 6.136-.408 9.44-1.04 3.282-.614 6.807-1.666 10.023-3.617a25.126 25.126 0 0 0 7.874-7.638 31.9 31.9 0 0 0 2.497-4.587c.353-.813.643-1.464.935-2.301.28-.817.614-1.605.838-2.447 1.008-3.316 1.399-6.89 1.296-10.234-.092-3.319-.636-6.438-.549-8.584.059-1.055.244-1.766.62-2.455.358-.691.991-1.406 1.855-2.022 1.671-1.289 4.065-2.143 6.482-2.521a16.603 16.603 0 0 1 7.19.398c2.292.629 3.949 1.828 5.274 3.638 2.59 3.768 3.468 9.637 2.371 14.686a13.733 13.733 0 0 1-1.219 3.551c-.156.276-.235.503-.449.828l-.632 1.066a20.974 20.974 0 0 0-1.132 2.277c-.66 1.571-1.132 3.246-1.322 4.976-.145 1.696-.293 3.354.413 5.487a5.05 5.05 0 0 0 1.005 1.691 4.14 4.14 0 0 0 3.133 1.355c.332 0 .51-.05.772-.076.474-.075 1-.108 1.411-.258 1.802-.455 3.226-1.276 4.656-2.049 2.785-1.635 5.238-3.538 7.585-5.55a74.65 74.65 0 0 0 3.413-3.147l3.169-3.25 6.236-6.431c.987-1.061 2.068-2.174 2.321-2.132.985-.38 2.211-.728 3.434-.875 2.475-.323 5.134-.184 7.565.601 4.934 1.509 8.429 5.751 8.723 10.819.354 4.98-1.824 10.569-6.117 12.579-2.37 1.236-5.117 2.241-7.847 3.121a50.17 50.17 0 0 1-2.061.609c-.826.199-1.687.52-2.409.821-1.516.623-2.912 1.376-4.326 2.233-.724.446-1.432.942-2.121 1.566-.675.651-1.39 1.297-1.927 2.656-.255.659-.393 1.829.167 2.85.552.974 1.283 1.366 1.815 1.647 1.104.519 1.975.649 2.813.791 3.244.522 6.695.29 9.87-.545a26.15 26.15 0 0 0 4.689-1.672c1.576-.696 3.186-1.877 4.357-2.946 2.34-2.109 4.43-4.136 6.623-6.186l-.645.519c1.553-.814 3.678-1.562 5.458-1.829 1.845-.279 3.508-.124 4.818.487 1.31.618 2.425 1.746 3.31 3.356.832 1.714 1.555 3.485 1.61 5.271.4 3.579-1.297 7.357-3.804 10.757-2.565 3.362-5.983 6.492-9.537 8.979l-.049.035.693-.269c-2.029.481-4.388.819-6.633 1.029a63.88 63.88 0 0 1-6.867.287 65.992 65.992 0 0 1-13.687-1.562l-.023-.005a1.75 1.75 0 0 0-2.084 1.331c-.2.909.352 1.81 1.235 2.06a69.919 69.919 0 0 0 14.396 2.465c2.437.173 4.885.193 7.336.105 2.479-.102 4.843-.283 7.457-.749.181-.032.351-.09.507-.171l.186-.098.084-.044c2.324-1.219 4.351-2.567 6.353-4.133 1.977-1.562 3.888-3.265 5.585-5.249 1.646-2.028 3.261-4.183 4.3-6.798 1.051-2.555 1.794-5.462 1.536-8.401-.083-2.963-1.092-5.727-2.304-8.24-1.359-2.542-3.59-5.065-6.58-6.45-2.985-1.418-6.267-1.492-9.057-.963a20 20 0 0 0-4.021 1.181 23.823 23.823 0 0 0-3.763 1.891l-.086.052a2.57 2.57 0 0 0-.559.467l-5.893 6.61c-.948 1.026-1.708 1.714-2.806 2.358a20.84 20.84 0 0 1-3.589 1.693c-2.531.879-5.153 1.269-7.827.937-.633-.061-1.254-.193-1.507-.303-.132-.039-.052-.086.133.229.204.353.112.717.107.679-.005-.045.328-.529.742-.881.415-.381.93-.751 1.475-1.087 1.134-.692 2.422-1.266 3.684-1.733.666-.237 1.216-.421 1.848-.541l2.266-.529c3.001-.758 5.939-1.662 8.912-3.091 1.458-.689 3.142-1.778 4.344-3.155 1.228-1.342 2.161-2.843 2.89-4.407 1.459-3.131 2.05-6.573 1.822-10.021a19.585 19.585 0 0 0-1.107-5.099c-.658-1.633-1.509-3.213-2.629-4.591-2.219-2.781-5.267-4.737-8.445-5.93-3.198-1.21-6.606-1.729-10.066-1.455-1.744.193-3.434.56-5.225 1.275a7.81 7.81 0 0 0-1.594.947c-.459.362-.813.703-1.123 1.017-.619.63-1.107 1.194-1.623 1.773-3.898 4.533-7.535 9.365-11.608 13.322-2.06 2.002-4.235 3.914-6.561 5.367-1.142.716-2.374 1.341-3.483 1.593-.293.115-.527.084-.787.137-.107.012-.296.054-.338.048-.03-.002-.031-.005-.015-.003a.74.74 0 0 1 .168.07c.018-.003-.04-.061-.083-.245-.22-.722-.188-2.136.031-3.379.2-1.229.607-2.436 1.163-3.588.279-.575.598-1.135.952-1.679l.577-.815c.223-.282.48-.724.715-1.083a19.05 19.05 0 0 0 2.09-4.73c.987-3.236 1.29-6.57 1.06-9.931-.228-3.345-1.092-6.798-3.019-9.966-1.944-3.175-5.333-5.782-8.77-6.858-3.459-1.176-7.024-1.462-10.496-1.044-3.468.434-6.938 1.418-10.137 3.616-1.591 1.068-3.123 2.512-4.26 4.406-1.166 1.867-1.753 4.119-1.902 6.035-.229 3.827.27 6.639.202 9.288-.029 2.618-.398 5.035-1.21 7.406a35.062 35.062 0 0 1-1.495 3.577 22.578 22.578 0 0 1-1.898 3.197 15.5 15.5 0 0 1-5.026 4.54c-3.858 2.174-9.277 2.509-15.19 2.796-2.957.144-6.035.291-9.176.584a76.14 76.14 0 0 0-9.554 1.569l-.826.283c.118-.059.242-.111.368-.155l.176-.055-.073.02-.287.08-.552.16-1.059.328-2.046.701a75.1 75.1 0 0 0-3.954 1.572c-2.595 1.115-5.08 2.438-7.518 3.839-4.845 2.844-9.45 6.147-13.548 10.04-1.017.985-2.042 1.912-3.034 3.061-1.014 1.086-1.992 2.201-2.851 3.406-.928 1.159-1.738 2.389-2.505 3.644-.827 1.224-1.464 2.538-2.151 3.828-2.634 5.219-4.234 10.779-5.189 16.309-1.844 11.112-1.128 22.149.777 32.735 2.041 10.587 5.12 20.826 9.692 30.523a1.42 1.42 0 0 0 2.672-.916z"
      />
    </g>
    <path
      d="m462.095 521.32-7.158 12.28c-1.157 1.985-3.263 3.476-3.368 5.741-.24 2.253-.086 4.56 1.205 8.095l.908.585c1.91-.18 3.428-.793 4.653-1.57 1.314-.753 2.265-1.707 3.108-2.736 1.769-2.024 1.323-4.912 1.68-7.355a53.6 53.6 0 0 0 .527-7.414l-.493-7.431zm55.675 23.913-9.794 10.302c-1.582 1.665-3.976 2.631-4.599 4.811-.752 2.137-1.133 4.418-.691 8.156l.749.778c1.901.264 3.519.017 4.891-.457 1.45-.43 2.596-1.14 3.652-1.947 2.188-1.562 2.42-4.476 3.329-6.771a53.62 53.62 0 0 0 2.22-7.092l1.231-7.345zm24.772 30.177-12.393 6.961c-2.003 1.126-4.573 1.345-5.811 3.245-1.348 1.821-2.384 3.888-3.062 7.59l.487.964c1.739.813 3.358 1.052 4.807 1.004 1.514.016 2.818-.325 4.066-.785 2.551-.85 3.629-3.565 5.175-5.491a53.85 53.85 0 0 0 4.209-6.125l3.339-6.656zm-2.407 60.442-13.272-5.086c-2.147-.822-3.957-2.66-6.209-2.399-2.263.127-4.515.65-7.796 2.494l-.431.991c.486 1.856 1.336 3.255 2.299 4.339.955 1.175 2.051 1.96 3.202 2.625 2.282 1.421 5.061.515 7.529.474a53.66 53.66 0 0 0 7.402-.675l7.255-1.683z"
      class="D"
    />
    <path
      d="M401.212 791.45c-3.694 3.637-6.923 5.812-10.676 7.73-14.31 7.312-30.123 12.368-46.187 11.956-23.22-.596-44.498-12.337-64.715-23.772 3.469-3.048 8.732-2.095 13.316-2.648 10.888-1.314 18.185-11.341 25.287-19.697 17.087-20.103 42.255-35.192 68.579-33.408 3.777.256 18.897 1.768 25.874 12.631 8.742 13.614.45 35.467-11.478 47.208"
      class="E"
    />
    <path
      d="m287.929 788.266 1.254-.041 4.161-.251c11.094-1.339 18.63-10.358 25.28-18.316l2.112-2.514c18.483-21.741 43.079-33.802 65.858-32.259 3.971.268 17.385 1.865 23.336 11.131 7.588 11.819.43 31.826-11.019 43.096-3.158 3.108-6.016 5.179-9.867 7.147-15.755 8.049-30.744 11.953-44.611 11.597-20.276-.519-39.331-10.025-56.504-19.59m94.766-60.075c-23.554 0-48.286 12.737-66.957 34.703l-2.149 2.556c-6.155 7.366-12.52 14.981-21.032 16.01-1.106.133-2.302.169-3.567.206-3.804.113-8.114.24-11.521 3.233L274 787.947l4.02 2.273c19.529 11.046 41.664 23.566 66.244 24.197 14.969.374 31.024-3.76 47.767-12.315 4.429-2.264 7.864-4.751 11.485-8.314 13.225-13.021 21.549-36.344 11.934-51.317-7.397-11.522-22.335-13.722-28.414-14.134a64.818 64.818 0 0 0-4.341-.146"
      class="F"
    />
    <path
      d="M678.942 690.004s3.116 3.152 8.107 3.514c1.467.107 3.182-.266 6.569-1.178 7.052-1.899 8.326-3.281 11.161-2.739 3.182.609 5.155 3.035 5.71 3.716 3.52 4.328 3.117 10.683.768 14.849-1.471 2.609-3.963 5.031-7.944 6.741-5.546 2.383-10.557 3.556-14.392 3.688-4.483.155-12.917-.296-28.541-7.943a139.143 139.143 0 0 1-30.748-20.543c-8.835-7.775-16.564-14.713-22.374-26.471-4.174-8.449-7.078-16.445-4.487-24.805 2.294-7.404 14.481-13.249 22.567-9.695 7.766 3.413 11.688 15.468 9.696 22.567-.271.963-1.377 4.426-.489 8.436.178.806.928 4.192 2.811 4.581.53.11.983-.053 1.162-.119 5.874-2.187 11.895-15.392 11.895-15.392 6.306-13.832 6.042-14.297 7.676-15.636 5.409-4.433 16.36-6.079 22.825.476 5.447 5.522 5.667 14.796 2.25 19.597-2.213 3.11-7.827 6.977-10.66 8.692-.462.28-2.434 1.677-4.462 3.973-1.819 2.06-2.632 4.037-1.981 4.964.696.989 2.889.534 4.218.244 6.813-1.487 11.094-6.575 11.406-6.956 1.37-1.674 1.795-2.697 5.696-10.673 0 0 10.905-12.91 20.343-.514 5.675 7.453 1.834 21.4-5.928 29.279-10.214 10.368-25.191 7.972-26.854 7.678"
      class="C"
    />
    <path
      d="M677.104 691.055c1.371 1.36 2.717 2.247 4.32 3.003a15.4 15.4 0 0 0 5.079 1.372c2.039.119 3.624-.277 5.159-.604l4.537-1.153 4.424-1.383c.694-.221 1.337-.407 1.821-.472a3.39 3.39 0 0 1 1.346.07c.995.226 1.967.739 2.845 1.505.446.385.835.803 1.24 1.309.359.473.672.941.936 1.464 1.038 2.072 1.289 4.674.741 7.115-.53 2.457-1.748 4.578-3.628 6.253-1.852 1.698-4.297 2.743-7.091 3.777-2.708.988-5.491 1.769-8.239 2.146-5.435.753-11.215-.285-16.796-2.027-5.596-1.762-11.074-4.191-16.39-6.911-10.677-5.424-20.428-12.438-29.326-20.545-4.471-4.056-8.773-8.179-12.345-12.822-3.612-4.636-6.307-9.783-8.567-15.273-2.222-5.385-3.604-10.953-2.537-16.073.12-.64.284-1.271.483-1.893.083-.344.197-.568.3-.799.113-.234.167-.478.334-.711.473-.966 1.315-1.866 2.174-2.72 1.844-1.645 4.166-2.999 6.632-3.729 2.448-.764 5.042-.994 7.238-.463 2.185.425 3.998 1.795 5.588 3.718 1.532 1.95 2.737 4.352 3.424 6.892.728 2.519.965 5.214.595 7.51-.128.813-.821 2.84-1.003 4.593a19.18 19.18 0 0 0 .069 5.544c.37 1.828.662 3.528 2.122 5.723a6.64 6.64 0 0 0 1.761 1.684c.818.536 2.035.891 3.083.821a5.69 5.69 0 0 0 1.441-.261c.438-.138.574-.237.87-.364.499-.245 1.073-.488 1.457-.782 1.778-1.131 2.975-2.427 4.121-3.722 1.139-1.299 2.08-2.641 2.995-3.993a65.03 65.03 0 0 0 2.506-4.123l1.134-2.106.542-1.071.266-.544.133-.278.045-.095a1.03 1.03 0 0 1-.093.152l.189-.357 6.066-13.426c.234-.466.404-.704.432-.724.046-.075.568-.447.905-.698.786-.523 1.652-1.01 2.599-1.373 1.873-.753 3.943-1.195 5.965-1.197 4.079-.053 7.794 1.538 9.975 4.649 2.233 3.037 2.993 7.556 1.974 11.221-.523 1.897-1.287 2.988-2.999 4.585-1.613 1.501-3.511 2.938-5.449 4.269l-1.466.973-.734.463a12.68 12.68 0 0 0-1.016.694 27.87 27.87 0 0 0-3.18 2.801c-.953.98-1.946 2.074-2.815 3.495-.426.715-.841 1.503-1.136 2.62-.132.582-.259 1.264-.128 2.215.089.922.756 2.261 1.726 2.938.943.69 1.763.853 2.385.954a7.55 7.55 0 0 0 1.595.053c.912-.057 1.65-.206 2.328-.348 1.354-.307 2.824-.717 4.131-1.293 2.67-1.121 5.056-2.695 7.156-4.571.53-.477 1.04-.975 1.531-1.493.254-.275.488-.526.772-.875.225-.282.461-.58.688-.904.934-1.329 1.502-2.533 2.079-3.667l3.263-6.731-.426.653a18.37 18.37 0 0 1 3.328-2.894c1.229-.834 2.53-1.419 3.777-1.707.631-.196 1.23-.163 1.835-.219.581.106 1.178.092 1.736.35.586.111 1.119.51 1.686.796.553.339 1.057.861 1.616 1.257l1.489 1.653c.357.567.784 1.058 1.035 1.706.619 1.203.963 2.624 1.104 4.11.303 2.978-.179 6.211-1.188 9.278-2.058 6.14-5.935 11.856-11.607 15.085-2.836 1.606-6.006 2.714-9.315 3.356-3.306.61-3.102.466-6.466.153l-.046-.004a1.205 1.205 0 0 0-.372 2.375c3.637.809 3.641 1.264 7.359.924 3.704-.356 7.437-1.277 10.875-3.002a28.13 28.13 0 0 0 9.009-7.153 32.595 32.595 0 0 0 5.758-9.911c1.321-3.611 2.176-7.507 1.848-11.615-.147-2.038-.58-4.142-1.515-6.132-.396-1.014-1.061-1.945-1.664-2.862l-2.017-2.346c-.834-.695-1.595-1.45-2.538-2.05-.987-.565-1.932-1.185-3.088-1.5-1.092-.446-2.283-.552-3.458-.688-1.162.024-2.351.047-3.437.338-2.208.49-4.18 1.424-5.897 2.558-1.748 1.175-3.187 2.373-4.697 4.047a2.44 2.44 0 0 0-.373.544l-.054.11-3.293 6.635c-1.15 2.328-1.898 3.462-3.649 4.978-1.612 1.414-3.442 2.584-5.36 3.362-.971.417-1.906.659-2.971.897-.535.111-1.021.188-1.348.201-.161.011-.287 0-.262-.002.013.01.217-.003.661.312.469.309.824 1.059.834 1.367.043.336.001.392.011.372a3.6 3.6 0 0 1 .38-.763c.43-.699 1.102-1.469 1.888-2.254a21.3 21.3 0 0 1 2.417-2.095c.221-.16.355-.255.522-.352l.845-.522 1.644-1.069c2.163-1.46 4.256-2.996 6.299-4.855 1.013-.948 2.046-1.941 2.999-3.355.966-1.392 1.557-2.873 1.995-4.351 1.609-5.892.629-12.118-2.874-17.197-1.758-2.505-4.23-4.615-7.038-5.896-2.814-1.275-5.841-1.795-8.772-1.758-2.944.03-5.812.644-8.536 1.747-1.365.539-2.684 1.26-3.952 2.123-.649.498-1.177.804-1.988 1.635-.826.886-1.266 1.746-1.595 2.38-1.22 2.526-2.09 4.669-3.122 6.965l-3.026 6.762.188-.357-1.118 2.255-1.02 1.911a57.758 57.758 0 0 1-2.213 3.677c-.783 1.165-1.59 2.32-2.455 3.307-.848.985-1.774 1.922-2.581 2.41-.214.185-.372.191-.543.298-.051.027-.242.134-.17.1a1.28 1.28 0 0 1 .323-.053 1.6 1.6 0 0 1 .918.234c.181.108.187.163.141.1-.272-.326-.739-1.658-.916-2.8a12.32 12.32 0 0 1-.049-3.541c.125-1.285.509-2.132.941-4.307.574-3.72.153-7.212-.787-10.526-.929-3.316-2.468-6.47-4.704-9.291-1.165-1.378-2.447-2.719-4.071-3.763-.753-.573-1.678-.973-2.539-1.408-.914-.323-1.831-.712-2.768-.864-3.757-.834-7.414-.314-10.731.764-3.338 1.08-6.384 2.877-9.023 5.328-1.272 1.291-2.51 2.675-3.384 4.453-.254.405-.411.901-.595 1.364-.183.474-.36.953-.443 1.353a22.2 22.2 0 0 0-.547 2.545c-.562 3.433-.339 6.941.391 10.177.705 3.261 1.889 6.278 3.179 9.157 2.551 5.666 5.811 11.237 9.8 16.11 3.948 4.931 8.557 9.163 13.156 13.183 4.534 4.07 9.335 8.064 14.375 11.611 5.053 3.552 10.299 6.838 15.745 9.767 5.448 2.915 11.073 5.548 17.04 7.556 5.937 1.95 12.396 3.388 19.084 2.54 3.279-.441 6.384-1.314 9.387-2.394 1.52-.567 2.912-1.093 4.503-1.876a20.39 20.39 0 0 0 4.366-2.922 16.97 16.97 0 0 0 3.44-4.179c.93-1.606 1.512-3.334 1.868-5.087.702-3.492.358-7.293-1.388-10.644a14.67 14.67 0 0 0-3.493-4.297c-1.432-1.196-3.215-2.187-5.215-2.541a8.5 8.5 0 0 0-3.184-.002c-1.016.194-1.819.491-2.563.757l-4.221 1.513a91.95 91.95 0 0 1-4.253 1.269c-1.409.376-2.813.759-3.826.742-2.451-.036-5.041.707-6.909-.822l-.161-.132a1.81 1.81 0 0 0-2.546.254c-.594.725-.667-.062-.017.587"
      class="B"
    />
    <path
      d="m614.203 615.327-2.671 13.964c-.432 2.257-1.923 4.364-1.268 6.536.522 2.205 1.434 4.33 3.828 7.236l1.05.25c1.743-.805 2.971-1.888 3.869-3.028.988-1.147 1.569-2.364 2.021-3.614.996-2.498-.384-5.074-.859-7.498a53.867 53.867 0 0 0-1.968-7.168l-2.935-6.847zm60.473 4.052-5.814 12.974c-.94 2.097-2.876 3.804-2.74 6.068.001 2.266.399 4.544 2.059 7.923l.966.486c1.881-.383 3.325-1.154 4.461-2.056 1.225-.889 2.071-1.939 2.798-3.052 1.545-2.201.795-5.026.891-7.494a53.58 53.58 0 0 0-.265-7.429l-1.279-7.339zm33.401 20.232-9.377 10.687c-1.515 1.728-3.868 2.789-4.404 4.992-.666 2.166-.956 4.461-.365 8.179l.78.747c1.91.189 3.517-.123 4.869-.65 1.433-.489 2.55-1.244 3.573-2.093 2.125-1.649 2.239-4.569 3.057-6.9a53.8 53.8 0 0 0 1.935-7.177l.938-7.39zm17.821 57.822-14.212-.386c-2.298-.062-4.617-1.194-6.654-.199-2.093.872-4.043 2.114-6.526 4.944l-.077 1.078c1.075 1.59 2.342 2.627 3.612 3.33 1.292.79 2.586 1.168 3.892 1.412 2.626.581 4.946-1.197 7.262-2.056a53.86 53.86 0 0 0 6.757-3.097l6.285-4z"
      class="D"
    />
    <path d="m605.125 572.673 281-109 64-23-44-46-346 140" class="E" />
    <path
      d="m907.013 390.539-348.2 140.89 1.625 3.489 344.8-136.109 38.635 40.392-58.931 21.179L603.86 569.411l4.531 4.526 279-107 68.986-24.791z"
      class="F"
    />
    <path
      d="M876.367 485.916c.691 3.527 1.687 6.034 3.085 8.6 5.328 9.783 12.398 18.862 21.753 24.912 13.519 8.744 30.29 10.35 46.332 11.717-.792-3.102-4.178-4.616-6.584-6.726-5.716-5.011-5.969-13.604-6.764-21.165-1.913-18.188-10.411-36.67-26.172-45.948-2.261-1.331-11.505-6.382-19.748-2.894-10.329 4.369-14.133 20.118-11.902 31.504"
      class="E"
    />
    <path
      d="M902.44 517.517c-8.072-5.223-15.125-13.32-20.99-24.089-1.434-2.635-2.26-4.939-2.85-7.951-2.142-10.929 1.589-25.178 10.556-28.972 7.031-2.973 15.332 1.361 17.708 2.761 13.642 8.029 22.995 24.553 25.065 44.227l.225 2.266c.692 7.154 1.476 15.263 7.3 20.369.735.646 1.522 1.219 2.283 1.773l.702.514c-13.569-1.245-28.191-3.262-39.999-10.898m6.732-62.171c-3.638-2.142-13.046-6.728-21.789-3.03-11.361 4.806-15.721 21.41-13.248 34.036.677 3.454 1.67 6.22 3.321 9.251 6.232 11.444 13.824 20.1 22.513 25.734 14.314 9.257 31.878 10.753 47.375 12.073l3.19.272-.792-3.102c-.78-3.045-3.196-4.805-5.327-6.357-.71-.517-1.381-1.005-1.962-1.515-4.469-3.918-5.131-10.765-5.772-17.387l-.228-2.305c-2.091-19.875-11.26-36.84-24.739-46.055a43.959 43.959 0 0 0-2.542-1.615"
      class="F"
    />
    <path
      d="M863.102 447.46c-2.199 1.282-3.646 2.532-5.038 4.063-5.309 5.839-9.741 12.68-11.615 20.346-2.709 11.079.114 22.674 2.927 33.727 1.891-1.251 2.118-3.868 2.97-5.969 2.026-4.989 7.717-7.155 12.591-9.444 11.728-5.508 22.119-15.49 24.665-28.193.365-1.822 1.597-9.182-2.652-13.887-5.325-5.896-16.748-4.782-23.848-.643"
      class="E"
    />
    <path
      d="M848.014 472.252c1.619-6.616 5.398-13.217 11.241-19.644 1.43-1.572 2.78-2.661 4.658-3.755 6.816-3.974 17.218-4.788 21.841.33 3.624 4.014 2.653 10.576 2.268 12.491-2.202 10.995-11.086 21.095-23.77 27.052l-1.465.677c-4.626 2.125-9.87 4.535-11.933 9.619-.261.642-.462 1.302-.655 1.939l-.181.59c-2.32-9.37-4.37-19.623-2.004-29.299m43.168-9.943c.588-2.933 1.47-10.295-3.037-15.285-5.857-6.486-17.981-5.545-25.855-.956-2.153 1.256-3.774 2.563-5.419 4.372-6.21 6.831-10.237 13.922-11.988 21.047-2.867 11.729.214 23.83 2.932 34.507l.559 2.198 1.891-1.251c1.857-1.229 2.474-3.255 3.017-5.043.18-.595.351-1.157.557-1.665 1.583-3.9 6.012-5.935 10.294-7.902l1.489-.689c12.814-6.018 22.036-16.097 25.07-27.257.186-.688.35-1.382.49-2.076"
      class="F"
    />
  </g>
</svg>
