<?xml version="1.0" encoding="UTF-8" standalone="no"?>
<!-- Created with Inkscape (http://www.inkscape.org/) -->

<svg
   version="1.1"
   id="svg2"
   width="909.836"
   height="955.43396"
   viewBox="0 0 909.836 955.43396"
   xmlns="http://www.w3.org/2000/svg"
   xmlns:svg="http://www.w3.org/2000/svg">
  <defs
     id="defs6">
    <clipPath
       clipPathUnits="userSpaceOnUse"
       id="clipPath16">
      <path
         d="M 0,1080 H 1080 V 0 H 0 Z"
         id="path14" />
    </clipPath>
  </defs>
  <g
     id="g8"
     transform="matrix(1.3333333,0,0,-1.3333333,-365.33292,1181.9248)">
    <g
       id="g10">
      <g
         id="g12"
         clip-path="url(#clipPath16)">
        <g
           id="g18"
           transform="translate(665.6699,447.0205)">
          <path
             d="m 0,0 c 2.068,-4.753 16.703,-0.878 17.813,-4.741 1.52,-5.288 -23.949,-19.36 -50.17,-26.217 -21.94,-5.737 -40.849,-5.493 -52.874,-4.506 9.006,-13.634 18.013,-27.268 27.02,-40.902 21.821,-6.441 75.299,-18.799 134.524,3.281 22.594,8.423 67.941,25.329 91.666,72.435 4.483,8.899 17.075,40.434 12.602,78.823 -12.275,105.354 -116.838,124.452 -116.838,124.452 -11.449,0.8 -50.855,2.114 -87.212,-24.97 -6.129,-4.565 -47.249,-36.25 -50.608,-90.342 -0.858,-13.808 -2.991,-48.169 20.941,-71.293 28.363,-27.406 77.904,-24.118 108.895,-2.069 21.435,15.251 43.438,46.194 35.887,77.156 -3.501,14.352 -15.267,36.56 -36.505,39.613 -21.356,3.07 -37.423,-15.365 -41.75,-20.329 -3.6,-4.13 -10.025,-11.501 -7.568,-17.458 1.764,-4.276 7.641,-6.701 12.392,-6.591 4.723,0.108 5.666,2.66 12.513,4.945 2.25,0.751 13.031,4.348 16.233,0.536 2.86,-3.406 -0.882,-12.068 -5.795,-17.26 -7.902,-8.355 -22.875,-12.01 -30.519,-5.679 -2.86,2.368 -6.403,7.484 -4.945,12.513 0.875,3.016 3.25,4.79 4.211,5.494 20.805,15.228 25.206,25.515 34.639,24.326 C 56.583,109.702 69.049,90.494 67.688,73.13 64.643,34.272 -4.574,10.513 0,0"
             style="fill:#fd9415;fill-opacity:1;fill-rule:nonzero;stroke:none"
             id="path20" />
        </g>
        <g
           id="g22"
           transform="translate(711.5166,535.583)">
          <path
             d="m 0,0 c 1.51,-3.333 -0.998,-7.015 -3.359,-9.81 -2.52,-2.984 -5.039,-5.967 -7.559,-8.951 -3.003,-3.556 -6.558,-7.397 -11.207,-7.61 -1.935,-0.088 -3.834,0.486 -5.656,1.141 -3.223,1.159 -6.347,2.594 -9.325,4.285 -2.411,1.367 -4.934,3.201 -5.426,5.927 -0.651,3.682 3.458,9.499 6.392,11.489 3.979,2.697 10.78,0.861 15.395,0.615 0.88,-0.047 1.78,-0.092 2.623,0.164 0.736,0.223 1.385,0.662 2.012,1.107 2.542,1.804 5.035,3.853 8.051,4.639 C -5.043,3.781 -1.285,2.839 0,0 m 0.531,108.477 c -50.177,3.046 -91.898,-34.99 -110.599,-72.217 -14.37,-28.607 -8.335,-58.44 -6.823,-67.037 2.529,-14.372 4.935,-28.051 16.115,-39.001 12.63,-12.371 31.799,-16.697 46.929,-20.111 14.398,-3.25 21.745,-2.894 22.017,-4.993 0.373,-2.878 -12.776,-8.565 -70.587,-20.831 1.067,-4.243 3.18,-10.062 7.777,-15.316 17.494,-19.99 54.196,-11.995 70.103,-9.701 39.445,5.687 122.629,35.227 131.652,110.825 7.657,64.154 -41.319,134.419 -106.584,138.382"
             style="fill:#553721;fill-opacity:1;fill-rule:nonzero;stroke:none"
             id="path24" />
        </g>
        <g
           id="g26"
           transform="translate(683.3545,490.9727)">
          <path
             d="m 0,0 c -1.029,5.938 -1.005,12.775 2.892,17.805 0.977,1.261 2.222,2.388 3.69,2.865 1.469,0.477 3.176,0.174 4.028,-1.011 0.778,-1.081 0.719,-2.607 0.586,-4.014 C 10.734,10.753 9.729,5.838 7.886,1.17 6.892,-1.349 5.63,-4.081 6.361,-6.531 c 0.59,-1.978 2.335,-3.225 3.866,-4.516 4.015,-3.387 7.042,-7.897 8.838,-12.976 1.902,-5.375 -0.931,-10.267 -5.794,-5.81 C 6.292,-23.438 1.641,-9.465 0,0"
             style="fill:#fff2ce;fill-opacity:1;fill-rule:nonzero;stroke:none"
             id="path28" />
        </g>
        <g
           id="g30"
           transform="translate(599.8857,504.1616)">
          <path
             d="m 0,0 c 1.578,3.157 3.758,6.229 7.392,7.234 2.297,0.636 4.946,0.375 7.444,0.512 7.724,0.421 13.73,4.579 20.061,7.805 5.154,2.627 10.713,4.692 16.566,6.155 5.368,1.341 12.195,1.813 17.025,-2.46 0.602,-0.532 1.177,-1.176 1.317,-1.88 0.186,-0.939 -0.448,-1.663 -1.076,-2.245 C 61.696,8.605 50.889,5.79 39.732,7.567 34.936,8.332 29.648,9.865 25.831,7.979 23.622,6.887 22.3,4.804 20.966,2.84 16.302,-4.028 9.766,-13.781 1.712,-17.429 -8.516,-22.061 -1.83,-3.661 0,0"
             style="fill:#fff2ce;fill-opacity:1;fill-rule:nonzero;stroke:none"
             id="path32" />
        </g>
        <g
           id="g34"
           transform="translate(674.2529,564.0264)">
          <path
             d="m 0,0 c -3.329,1.836 -6.479,4.037 -10.017,5.432 -3.96,1.562 -8.563,2.227 -11.419,5.383 -0.633,0.701 -1.173,1.705 -0.76,2.555 0.234,0.483 0.723,0.785 1.205,1.023 4.644,2.29 10.177,0.858 15.141,-0.612 L 7.185,9.923 C 10.318,8.995 13.953,7.559 14.677,4.373 17.079,-6.22 4.658,-2.568 0,0"
             style="fill:#fff2ce;fill-opacity:1;fill-rule:nonzero;stroke:none"
             id="path36" />
        </g>
        <g
           id="g38"
           transform="translate(596.3877,559.8628)">
          <path
             d="m 0,0 c 4.315,4.889 9.115,10.064 15.522,11.279 3.657,0.694 7.459,-0.005 11.134,0.587 3.414,0.551 6.54,2.182 9.772,3.415 4.913,1.874 10.171,2.844 15.429,2.844 -0.669,2.977 -3.943,5.1 -6.933,4.499 C 43.922,22.422 42.98,21.963 41.97,21.818 39.118,21.411 36.608,23.499 34.109,24.93 28.041,28.407 20.637,28.274 13.647,28.044 12.682,28.013 11.67,27.968 10.836,27.479 9.977,26.976 9.439,26.078 8.938,25.218 6.169,20.469 3.399,15.719 0.631,10.97 0.105,10.07 -0.438,9.063 -0.236,8.041 -0.033,7.019 1.357,6.257 2.087,7.002"
             style="fill:#fff2ce;fill-opacity:1;fill-rule:nonzero;stroke:none"
             id="path40" />
        </g>
        <g
           id="g42"
           transform="translate(760.1572,509.8965)">
          <path
             d="m 0,0 c 1.432,6.362 3.151,13.208 8.184,17.355 2.873,2.367 6.543,3.583 9.479,5.87 2.729,2.124 4.685,5.058 6.925,7.693 3.406,4.007 7.549,7.385 12.159,9.915 -2.018,2.288 -5.91,2.575 -8.242,0.609 -0.781,-0.658 -1.386,-1.513 -2.203,-2.127 -2.304,-1.728 -5.509,-1.106 -8.388,-1.052 -6.993,0.13 -13.42,-3.548 -19.437,-7.112 -0.832,-0.492 -1.698,-1.017 -2.194,-1.847 -0.511,-0.855 -0.551,-1.9 -0.576,-2.896 C -4.437,20.913 -4.58,15.417 -4.724,9.921 -4.751,8.879 -4.744,7.735 -4.074,6.937 -3.405,6.138 -1.819,6.139 -1.538,7.143"
             style="fill:#fff2ce;fill-opacity:1;fill-rule:nonzero;stroke:none"
             id="path44" />
        </g>
        <g
           id="g46"
           transform="translate(715.6396,527.2461)">
          <path
             d="m 0,0 c 5.347,-3.951 12.154,-5.875 18.778,-5.306 2.836,0.244 6.119,1.37 6.859,4.119 0.509,1.891 -0.42,3.869 -1.552,5.466 -0.509,0.718 -1.089,1.422 -1.87,1.825 C 20.826,6.82 19.149,6.437 17.641,6.03 12.443,4.627 6.864,3.118 1.794,4.925 0.669,5.327 -0.408,5.886 -1.58,6.115 -2.752,6.343 -4.094,6.173 -4.912,5.306 -7.451,2.617 -1.41,1.042 0,0"
             style="fill:#fff2ce;fill-opacity:1;fill-rule:nonzero;stroke:none"
             id="path48" />
        </g>
        <g
           id="g50"
           transform="translate(734.9912,594.6382)">
          <path
             d="M 0,0 C 0.959,1.47 3.169,1.131 4.847,0.619 6.413,0.14 8.03,-0.366 9.268,-1.438 c 2.785,-2.416 2.704,-6.725 2.04,-10.351 -0.532,-2.901 -1.359,-5.891 -3.369,-8.05 -1.206,-1.294 -4.718,-3.507 -6.373,-1.833 -1.425,1.442 0.482,5.139 0.774,6.744 C 3.266,-9.844 2.568,-4.526 0,0"
             style="fill:#fff2ce;fill-opacity:1;fill-rule:nonzero;stroke:none"
             id="path52" />
        </g>
        <g
           id="g54"
           transform="translate(741.1377,606.0767)">
          <path
             d="M 0,0 C 2.041,0.762 3.94,1.897 5.578,3.333 7.055,4.627 8.4,6.448 8.066,8.383 7.874,9.497 7.144,10.449 6.303,11.204 5.175,12.216 3.762,12.974 2.249,13.062 0.737,13.15 -0.862,12.477 -1.641,11.177 -2.447,9.831 -2.253,8.067 -1.544,6.667 -0.835,5.266 0.318,4.149 1.449,3.06 1.269,2.53 1.088,2.001 0.907,1.471"
             style="fill:#fff2ce;fill-opacity:1;fill-rule:nonzero;stroke:none"
             id="path56" />
        </g>
        <g
           id="g58"
           transform="translate(688.6416,420.6973)">
          <path
             d="M 0,0 C 2.04,0.762 3.939,1.897 5.577,3.333 7.054,4.627 8.4,6.448 8.066,8.383 7.874,9.497 7.143,10.449 6.302,11.204 5.175,12.216 3.761,12.974 2.249,13.062 0.736,13.149 -0.862,12.477 -1.642,11.177 -2.448,9.83 -2.254,8.067 -1.544,6.666 -0.835,5.265 0.317,4.148 1.449,3.06 1.268,2.53 1.087,2 0.906,1.471"
             style="fill:#fff2ce;fill-opacity:1;fill-rule:nonzero;stroke:none"
             id="path60" />
        </g>
        <g
           id="g62"
           transform="translate(672.4658,627.2104)">
          <path
             d="m 0,0 c 1.32,-0.752 2.666,-1.526 3.666,-2.67 1.237,-1.415 1.833,-3.266 2.782,-4.888 1.69,-2.889 4.44,-4.964 6.906,-7.227 5.409,-4.962 9.636,-11.05 13.815,-17.084 1.644,0.946 2.197,3.14 1.84,5.003 -0.358,1.863 -1.421,3.497 -2.37,5.139 -1.761,3.045 -3.19,6.282 -4.254,9.635 -0.724,2.282 -1.297,4.656 -2.581,6.677 -1.952,3.07 -5.274,4.929 -8.175,7.124 -4.066,3.078 -7.478,7.013 -9.948,11.473 4.001,2.059 8.552,4.172 12.831,2.779 6.309,-2.055 8.341,-10.428 14.194,-13.552 1.39,1.549 0.33,3.976 -0.768,5.743 -2.386,3.847 -5.125,7.975 -9.442,9.333 C 14.9,18.617 11.005,17.544 7.471,16.231 2.271,14.299 -2.821,11.864 -7.494,8.866 -10.433,6.98 -10.814,6.539 -7.937,4.522 -5.484,2.802 -2.604,1.483 0,0"
             style="fill:#fff2ce;fill-opacity:1;fill-rule:nonzero;stroke:none"
             id="path64" />
        </g>
        <g
           id="g66"
           transform="translate(741.1094,463.6685)">
          <path
             d="m 0,0 c 1.518,0.069 3.068,0.133 4.525,-0.3 1.801,-0.536 3.292,-1.783 4.961,-2.649 2.972,-1.54 6.406,-1.827 9.699,-2.424 7.222,-1.308 14.046,-4.199 20.801,-7.069 0.885,1.677 0.181,3.827 -1.115,5.212 -1.296,1.384 -3.068,2.198 -4.748,3.08 -3.114,1.635 -6.05,3.609 -8.739,5.876 -1.831,1.543 -3.583,3.245 -5.748,4.268 -3.289,1.554 -7.091,1.352 -10.716,1.66 -5.08,0.431 -10.066,1.937 -14.536,4.39 2.284,3.877 5.004,8.094 9.366,9.2 6.432,1.631 12.619,-4.366 19.237,-3.882 0.348,2.052 -1.844,3.538 -3.716,4.447 C 15.2,23.787 10.681,25.816 6.305,24.66 2.66,23.697 -0.062,20.71 -2.349,17.713 -5.714,13.303 -8.72,8.526 -11.07,3.496 -12.548,0.333 -12.636,-0.244 -9.126,-0.413 -6.134,-0.558 -2.994,-0.135 0,0"
             style="fill:#fff2ce;fill-opacity:1;fill-rule:nonzero;stroke:none"
             id="path68" />
        </g>
        <g
           id="g70"
           transform="translate(727.2861,438.6646)">
          <path
             d="m 0,0 c 0.36,-1.717 -1.441,-3.041 -2.99,-3.865 -1.447,-0.769 -2.947,-1.554 -4.581,-1.671 -3.677,-0.262 -6.666,2.843 -8.761,5.876 -1.676,2.428 -3.206,5.126 -3.311,8.075 -0.062,1.767 0.857,5.815 3.21,5.802 2.029,-0.011 3.293,-3.975 4.222,-5.316 C -9.271,4.652 -5.017,1.384 0,0"
             style="fill:#fff2ce;fill-opacity:1;fill-rule:nonzero;stroke:none"
             id="path72" />
        </g>
        <g
           id="g74"
           transform="translate(709.1807,535.9224)">
          <path
             d="m 0,0 c -0.728,0.222 -3.678,0.736 -11.376,-1.832 -2.608,-0.87 -4.157,-1.747 -5.657,-2.594 -2.164,-1.225 -4.403,-2.491 -8.159,-2.578 -2.064,-0.048 -4.285,0.262 -6.427,0.925 -0.776,-0.631 -1.591,-1.528 -1.92,-2.664 -0.799,-2.749 1.573,-6.247 3.51,-7.852 5.397,-4.469 17.74,-1.789 24.456,5.311 0.546,0.577 1.052,1.176 1.521,1.787 C -1.135,-5.692 0.255,-1.49 0,0 m -69.636,92.319 c 34.318,25.564 71.23,27.161 90.178,25.838 0.165,-0.011 0.327,-0.032 0.489,-0.061 45.354,-8.114 110.678,-56.297 120.454,-128.31 1.662,-12.242 5.087,-49.834 -16.248,-87.986 -11.98,-21.424 -26.775,-33.983 -33.713,-39.759 -60.214,-50.137 -151.278,-38.083 -168.637,-35.512 4.877,-4.097 9.227,-6.425 10.402,-5.368 1.197,1.078 -0.746,5.818 -4.671,11.418 20.757,-2.619 56.565,-4.364 97.621,8.715 26.676,8.498 59.043,18.809 82.735,50.429 31.004,41.382 24.794,89.417 23.681,97.034 -8.03,54.961 -52.424,101.623 -112.989,120.55 -17.795,1.205 -52.127,-0.381 -83.99,-24.118 -7.603,-5.663 -45.686,-36.481 -48.826,-87.054 -0.859,-13.801 -2.869,-46.12 19.591,-67.821 27.645,-26.71 75.109,-21.649 103.23,-1.643 C 30.94,-56.2 50.699,-27.062 43.815,1.154 40.854,13.296 30.609,34.6 10.997,37.418 c -12.584,1.809 -25.291,-4.533 -37.766,-18.85 -2.46,-2.821 -8.215,-9.427 -6.808,-12.843 0.861,-2.089 4.759,-3.92 8.18,-3.84 1.526,0.034 2.196,0.413 3.987,1.426 1.601,0.907 3.796,2.149 7.225,3.293 C -3.488,10.17 3.394,9.901 6.854,5.78 12.029,-0.382 6.477,-11.472 0.886,-17.394 c -9.1,-9.62 -26.68,-14.25 -36.585,-6.047 -4.56,3.776 -8.3,10.552 -6.378,17.174 0.516,1.781 1.404,3.436 2.646,4.921 -0.986,1.076 -1.798,2.304 -2.365,3.682 -3.506,8.501 4.191,17.331 8.325,22.074 14.585,16.736 29.972,24.073 45.734,21.808 24.306,-3.492 36.699,-28.647 40.19,-42.959 7.864,-32.236 -13.995,-65.014 -37.628,-81.833 -31.016,-22.064 -83.635,-27.386 -114.56,2.493 -25.411,24.554 -23.143,61.034 -22.288,74.767 1.778,28.64 13.535,51.132 25.79,67.119 10.477,13.667 21.318,22.58 26.597,26.514"
             style="fill:#c45321;fill-opacity:1;fill-rule:nonzero;stroke:none"
             id="path76" />
        </g>
        <g
           id="g78"
           transform="translate(612.6182,418.207)">
          <path
             d="m 0,0 c -4.418,0 -7.199,0.222 -7.653,0.261 l 0.562,6.538 C -6.633,6.759 39.571,3.151 70.45,28.886 l 4.2,-5.04 C 49.144,2.587 15.066,0 0,0"
             style="fill:#c45321;fill-opacity:1;fill-rule:nonzero;stroke:none"
             id="path80" />
        </g>
        <g
           id="g82"
           transform="translate(536.1475,557.7495)">
          <path
             d="m 0,0 c 0,0 -21.86,-6.076 -48.412,-2.739 -53.251,6.693 -68.651,69.225 -69.286,71.991 l 60.499,33.577 c 0,0 44.04,-72.781 107.041,-38.183 0,0 15.009,6.133 23.438,27.29 8.43,21.157 13.664,27.724 33.677,35.901 5.736,2.344 10.78,2.949 15.024,2.555 6.778,-0.629 14.001,-4.333 15.205,-10.13 0.188,-0.912 0.863,-4.162 -1.598,-7.295 -2.194,-2.792 -4.928,-3.009 -13.874,-7.883 -4.296,-2.34 -6.377,-3.582 -7.699,-4.916 -4.499,-4.537 -4.164,-9.235 -4.164,-9.235"
             style="fill:#fd9415;fill-opacity:1;fill-rule:nonzero;stroke:none"
             id="path84" />
        </g>
        <g
           id="g86"
           transform="translate(641.7256,645.4429)">
          <path
             d="M 0,0 C 16.419,12.893 34.55,18.273 34.55,18.273"
             style="fill:#fd9415;fill-opacity:1;fill-rule:nonzero;stroke:none"
             id="path88" />
        </g>
        <g
           id="g90"
           transform="translate(481.1143,661.417)">
          <path
             d="m 0,0 c 5.05,-7.319 11.143,-14.355 17.92,-20.821 6.822,-6.453 14.619,-12.305 23.491,-16.931 8.89,-4.526 19.195,-7.693 30.062,-7.535 5.408,0.093 10.833,0.994 16.056,2.512 5.261,1.481 10.142,3.879 14.889,6.362 0.161,0.083 0.323,0.162 0.488,0.235 l 0.097,0.043 c 0.276,0.122 1.184,0.62 1.784,0.981 0.675,0.414 1.337,0.857 1.997,1.323 1.311,0.935 2.578,1.942 3.756,3.024 2.363,2.157 4.472,4.519 6.292,7.01 1.765,2.512 3.431,5.083 4.702,7.776 1.355,2.661 2.388,5.378 3.596,8.346 1.208,2.91 2.441,5.827 3.933,8.768 1.462,2.933 3.131,5.904 5.356,8.828 2.191,2.919 4.985,5.779 8.294,8.239 3.298,2.472 6.979,4.517 10.674,6.296 1.854,0.884 3.717,1.715 5.586,2.491 1.849,0.804 4.132,1.662 6.381,2.257 4.552,1.243 9.69,1.758 14.491,1.013 4.732,-0.765 8.856,-2.451 12.096,-4.97 1.61,-1.261 2.967,-2.758 3.873,-4.459 0.467,-0.841 0.823,-1.736 1.039,-2.657 0.256,-0.927 0.348,-1.732 0.384,-2.7 0.046,-1.852 -0.336,-3.84 -1.421,-5.793 -0.557,-0.976 -1.235,-1.892 -2.175,-2.826 -0.945,-0.944 -2.203,-1.797 -3.29,-2.38 -2.192,-1.158 -3.884,-1.806 -5.605,-2.601 -1.707,-0.763 -3.385,-1.53 -5.047,-2.351 -1.665,-0.814 -3.386,-1.691 -4.921,-2.508 -0.769,-0.41 -1.486,-0.816 -2.068,-1.198 -0.586,-0.37 -0.965,-0.713 -1.529,-1.259 -2.011,-1.952 -3.389,-4.631 -3.721,-6.956 l -0.037,-0.259 c -0.15,-1.046 -1.414,-1.892 -2.824,-1.888 -1.254,0.002 -2.202,0.676 -2.29,1.561 -0.357,3.486 0.739,6.795 3.187,9.982 0.576,0.726 1.399,1.64 2.302,2.349 0.876,0.713 1.74,1.305 2.582,1.862 1.698,1.106 3.315,2.05 5.002,3.038 1.689,0.981 3.423,1.95 5.184,2.854 1.728,0.892 3.616,1.78 4.737,2.47 1.61,0.943 2.496,2.872 2.33,4.943 -0.196,2.209 -1.291,3.892 -3.253,5.436 -1.937,1.489 -4.699,2.58 -7.518,2.995 -2.786,0.415 -5.876,0.193 -8.964,-0.631 -1.588,-0.418 -3.002,-0.924 -4.716,-1.653 -1.734,-0.706 -3.413,-1.444 -5.042,-2.208 -6.577,-3.053 -11.755,-6.686 -15.345,-11.499 -3.669,-4.779 -6.158,-10.397 -8.568,-15.999 -1.157,-2.757 -2.346,-5.798 -3.892,-8.768 -1.45,-2.977 -3.352,-5.889 -5.412,-8.749 -2.123,-2.849 -4.609,-5.607 -7.496,-8.199 -1.439,-1.298 -3.014,-2.539 -4.707,-3.724 -0.849,-0.592 -1.749,-1.159 -2.688,-1.711 -1.04,-0.574 -1.774,-1.023 -3.285,-1.668 l 0.584,0.278 c -5.454,-2.749 -11.116,-5.392 -17.401,-7.067 -6.225,-1.707 -12.801,-2.683 -19.262,-2.677 -13.033,0.05 -24.543,3.983 -33.986,9.051 -9.416,5.212 -17.137,11.654 -23.865,18.524 -6.703,6.917 -12.451,14.232 -17.148,22.12 -0.502,0.842 0.063,1.896 1.262,2.355 1.158,0.443 2.484,0.167 3.024,-0.612 z"
             style="fill:#c45321;fill-opacity:1;fill-rule:nonzero;stroke:none"
             id="path92" />
        </g>
        <g
           id="g94"
           transform="translate(584.1602,569.1294)">
          <path
             d="m 0,0 c -6.375,-0.498 -13.396,-3.548 -21.003,-6.946 -3.804,-1.699 -7.761,-3.47 -11.902,-5.152 -4.174,-1.67 -8.549,-3.205 -13.076,-4.534 l -1.236,-0.264 c 0.192,0.021 0.383,0.053 0.571,0.093 l 0.259,0.06 -0.103,-0.027 -0.416,-0.108 -0.807,-0.203 -1.558,-0.368 -3.059,-0.655 c -2.027,-0.409 -4.047,-0.755 -6.068,-1.079 -4.041,-0.634 -8.093,-1.023 -12.141,-1.314 -8.089,-0.526 -16.202,-0.508 -24.099,0.333 -1.975,0.225 -3.917,0.394 -5.975,0.777 -2.043,0.314 -4.059,0.676 -5.992,1.189 -1.986,0.429 -3.874,0.994 -5.727,1.607 -1.906,0.549 -3.637,1.293 -5.415,1.984 -7.009,2.892 -12.965,6.715 -18.093,10.91 -10.21,8.474 -17.163,18.464 -22.306,28.794 -4.975,10.418 -8.403,21.173 -9.576,32.379 -0.086,0.82 0.758,1.605 1.884,1.753 0.973,0.128 1.839,-0.261 2.112,-0.898 l 0.026,-0.063 c 4.348,-10.138 9.554,-20.06 15.835,-29.324 6.237,-9.266 13.707,-17.957 23.001,-24.943 4.607,-3.51 9.796,-6.477 15.444,-8.666 1.425,-0.524 2.806,-1.119 4.304,-1.515 1.458,-0.466 2.933,-0.894 4.47,-1.197 1.498,-0.39 3.052,-0.642 4.62,-0.862 1.497,-0.28 3.247,-0.412 4.928,-0.586 6.773,-0.633 13.738,-0.714 20.723,-0.24 3.491,0.236 6.984,0.617 10.449,1.094 1.729,0.252 3.451,0.521 5.147,0.836 l 2.507,0.499 3.462,0.773 -1.234,-0.264 c 7.487,2.025 14.748,5.036 22.528,8.41 3.901,1.658 7.972,3.43 12.557,4.921 4.545,1.492 9.705,2.754 15.118,3.05"
             style="fill:#c45321;fill-opacity:1;fill-rule:nonzero;stroke:none"
             id="path96" />
        </g>
        <g
           id="g98"
           transform="translate(676.3613,661.0278)">
          <path
             d="m 0,0 -0.088,-0.001 1.059,0.194 c -2.882,-0.834 -6.075,-1.995 -9.034,-3.198 -2.999,-1.221 -5.952,-2.54 -8.801,-3.986 -5.725,-2.862 -11.096,-6.157 -16.023,-9.789 l -0.025,-0.019 c -1.032,-0.761 -2.623,-0.821 -3.554,-0.133 -0.897,0.662 -0.847,1.782 0.081,2.543 4.934,4.028 10.386,7.733 16.267,11.008 2.928,1.652 5.977,3.179 9.109,4.613 3.176,1.441 6.263,2.741 9.866,3.95 0.25,0.084 0.504,0.138 0.756,0.165 l 0.304,0.029 0.137,0.015 C 3.83,5.77 7.326,5.852 10.944,5.732"
             style="fill:#c45321;fill-opacity:1;fill-rule:nonzero;stroke:none"
             id="path100" />
        </g>
        <g
           id="g102"
           transform="translate(669.3418,354.7832)">
          <path
             d="m 0,0 c -1.034,7.417 -3.787,14.479 -6.773,21.347 -6.476,14.89 -14.307,29.461 -25.592,41.135 -11.284,11.675 -26.41,20.282 -42.626,21.117 -17.952,0.924 -35.651,-7.958 -47.435,-21.532 -8.79,-10.126 -14.664,-23.145 -14.601,-36.554 0.036,-7.914 2.102,-15.707 5.005,-23.07 5.355,-13.587 13.897,-26.285 26.046,-34.388 7.921,-5.284 17.061,-8.435 26.234,-10.983 7.4,-2.055 14.936,-3.76 22.6,-4.259 16.628,-1.08 33.581,3.755 47.137,13.445 5.721,4.09 5.715,7.844 7.401,13.75 C -0.626,-13.057 1.029,-7.387 0,0"
             style="fill:#fd9415;fill-opacity:1;fill-rule:nonzero;stroke:none"
             id="path104" />
        </g>
        <g
           id="g106"
           transform="translate(672.4111,355.2109)">
          <path
             d="m 0,0 c 0.275,-2.366 0.319,-4.781 0.125,-7.155 -0.224,-2.37 -0.702,-4.681 -1.294,-6.883 -0.599,-2.207 -1.336,-4.311 -2.043,-6.383 -0.73,-2.023 -1.263,-4.04 -2.054,-6.273 -0.762,-2.212 -2.066,-4.531 -3.83,-6.235 -0.875,-0.848 -1.801,-1.611 -2.772,-2.253 l -2.832,-1.817 c -3.804,-2.324 -7.756,-4.384 -11.854,-6.103 -8.169,-3.499 -16.964,-5.554 -25.864,-6.002 -8.924,-0.512 -17.852,0.812 -26.413,2.897 -8.538,2.085 -17.137,4.422 -25.26,8.406 -8.16,3.923 -15.369,9.913 -21.088,16.922 -5.735,7.036 -10.16,15.028 -13.474,23.41 -3.286,8.356 -5.597,17.586 -4.842,27.062 0.694,9.4 3.969,18.421 8.852,26.294 4.909,7.869 11.401,14.748 19.028,20.06 7.633,5.284 16.39,9.082 25.683,10.663 4.637,0.792 9.408,1.002 14.121,0.602 4.713,-0.401 9.336,-1.459 13.76,-2.97 8.853,-3.066 16.859,-7.999 23.804,-13.999 6.927,-6.079 12.696,-13.216 17.561,-20.791 4.873,-7.582 8.88,-15.587 12.433,-23.699 C -4.773,17.701 -1.217,9.278 0,0 m -6.14,-0.855 c -1.245,8.104 -4.703,15.946 -8.338,23.795 -3.645,7.807 -7.682,15.382 -12.436,22.398 -4.739,7.009 -10.25,13.453 -16.603,18.757 -6.317,5.349 -13.507,9.668 -21.217,12.255 -7.718,2.569 -15.857,3.355 -23.815,2.014 -7.959,-1.311 -15.64,-4.573 -22.386,-9.199 -6.785,-4.585 -12.633,-10.574 -17.082,-17.468 -4.424,-6.883 -7.521,-14.669 -8.308,-22.723 -0.861,-8.012 0.741,-16.294 3.557,-24.244 2.817,-7.973 6.688,-15.596 11.763,-22.313 5.095,-6.7 11.434,-12.384 18.915,-16.329 7.466,-3.993 15.752,-6.652 24.108,-8.934 8.345,-2.235 16.868,-3.745 25.44,-3.407 8.561,0.315 17.076,2.179 25.018,5.454 3.956,1.67 7.766,3.705 11.267,6.178 1.765,1.255 3.478,2.5 4.705,3.972 1.26,1.479 1.956,3.171 2.434,5.14 0.468,1.953 0.827,4.221 1.35,6.384 0.492,2.13 0.946,4.232 1.315,6.287 0.765,4.113 0.961,8.053 0.313,11.983"
             style="fill:#c45321;fill-opacity:1;fill-rule:nonzero;stroke:none"
             id="path108" />
        </g>
        <g
           id="g110"
           transform="translate(567.8965,318.3193)">
          <path
             d="m 0,0 c -0.543,-1.909 21.343,-12.201 46.629,-14.657 18.116,-1.759 26.997,1.57 30.859,3.295 6.477,2.893 10.634,6.543 11.83,7.631 11.172,10.151 13.727,23.564 14.432,28.868 -1.405,-2.712 -2.206,-4.026 -2.401,-3.942 -0.143,0.062 0.038,0.875 0.545,2.438 -0.264,2.501 -0.616,4.971 -1.107,7.384 C 99.127,24.005 96.212,17.309 92.069,11.532 87.391,4.957 81.079,-0.243 73.807,-3.883 c -7.282,-3.622 -15.42,-5.653 -23.67,-6.338 -0.048,-0.004 -0.097,-0.005 -0.145,-0.009 -5.28,0.087 -11.38,0.568 -18.059,1.802 C 21.04,-6.416 12.059,-3.04 5.282,0.136 0.996,0.657 0.098,0.345 0,0"
             style="fill:#c45321;fill-opacity:1;fill-rule:nonzero;stroke:none"
             id="path112" />
        </g>
        <g
           id="g114"
           transform="translate(561.7471,877.4893)">
          <path
             d="m 0,0 c 7.286,4.172 17.507,2.151 22.656,-4.48 0.409,-0.527 0.794,-1.089 0.994,-1.727 0.343,-1.092 0.107,-2.27 -0.108,-3.395 -0.678,-3.555 -1.117,-7.178 -0.912,-10.792 0.492,-8.668 4.662,-17.156 3.181,-25.711 -0.143,-0.819 -0.351,-1.661 -0.882,-2.3 -0.678,-0.817 -1.756,-1.161 -2.773,-1.466 -1.811,-0.544 -3.623,-1.087 -5.433,-1.63 -1.957,-0.587 -4.035,-1.178 -6.013,-0.666 -1.733,0.448 -3.143,1.685 -4.408,2.952 -7.606,7.61 -10.905,16.462 -13.608,26.595 C -9.577,-14.108 -8.492,-4.864 0,0"
             style="fill:#fd9415;fill-opacity:1;fill-rule:nonzero;stroke:none"
             id="path116" />
        </g>
        <g
           id="g118"
           transform="translate(583.6104,832.1055)">
          <path
             d="m 0,0 z m -19.706,41.618 c -7.55,-4.323 -6.543,-12.969 -5.272,-17.736 2.733,-10.238 5.775,-17.933 12.486,-24.647 0.478,-0.479 1.604,-1.605 2.425,-1.817 0.865,-0.224 2.418,0.243 3.681,0.621 l 5.432,1.63 c 0.139,0.041 0.383,0.115 0.596,0.188 0.009,0.048 0.019,0.102 0.03,0.163 0.745,4.31 -0.297,8.907 -1.401,13.775 -0.797,3.517 -1.622,7.153 -1.836,10.95 -0.201,3.524 0.111,7.29 0.98,11.85 0.089,0.457 0.201,1.045 0.206,1.322 -0.027,0.018 -0.106,0.134 -0.257,0.327 -3.83,4.934 -11.642,6.482 -17.07,3.374 m 15.509,-51.982 c -2.14,-0.638 -4.982,-1.411 -8.042,-0.62 -2.741,0.708 -4.769,2.462 -6.391,4.084 -8.056,8.06 -11.715,17.24 -14.731,28.545 -3.212,12.033 0.282,22.315 9.342,27.505 9.11,5.221 21.79,2.72 28.239,-5.585 C 4.798,42.819 5.514,41.797 5.928,40.477 6.591,38.361 6.222,36.437 5.953,35.03 5.208,31.125 4.94,28.032 5.099,25.236 5.273,22.162 5.983,19.03 6.735,15.713 7.979,10.229 9.265,4.558 8.223,-1.462 8.004,-2.723 7.6,-4.355 6.402,-5.795 4.862,-7.649 2.781,-8.272 1.537,-8.644 l -5.429,-1.629 c -0.099,-0.03 -0.202,-0.06 -0.305,-0.091"
             style="fill:#c45321;fill-opacity:1;fill-rule:nonzero;stroke:none"
             id="path120" />
        </g>
        <g
           id="g122"
           transform="translate(594.7373,827.6162)">
          <path
             d="m 0,0 c -7.203,-2.64 -15.034,0.656 -17.492,7.361 -2.457,6.705 -6.517,34.143 0.686,36.783 C -9.603,46.784 6.136,23.626 8.593,16.921 11.05,10.216 7.203,2.64 0,0"
             style="fill:#000000;fill-opacity:1;fill-rule:nonzero;stroke:none"
             id="path124" />
        </g>
        <g
           id="g126"
           transform="translate(465.1484,588.8257)">
          <path
             d="m 0,0 c -1.178,59.67 16.255,91.355 33.197,109.386 18.628,19.824 82.821,47.826 116.847,62.205 12.779,5.4 39.506,13.025 47.197,34.646 2.092,5.878 2.273,11.279 2.073,15.022 -0.739,9.378 -1.477,18.755 -2.215,28.132 -19.109,0.855 -38.217,1.709 -57.326,2.563 -21.27,0.215 -44.712,-0.702 -69.913,-3.473 -14.223,-1.563 -6.937,2.618 -19.641,0.315 0,0 -15.238,20.702 -37.761,12.481 -22.523,-8.221 -22.152,-34.568 -22.152,-34.568 -10.633,-4.483 -25.186,-11.531 -40.964,-22.379 -76.061,-52.299 -149.804,-171.763 -108.941,-283.903 36.038,-98.901 139.897,-133.586 155.411,-138.501"
             style="fill:#fd9415;fill-opacity:1;fill-rule:nonzero;stroke:none"
             id="path128" />
        </g>
        <g
           id="g130"
           transform="translate(405.5576,674.9336)">
          <path
             d="m 0,0 c 12.447,39.065 38.77,68.998 38.77,68.998 3.371,3.442 11.094,14.048 15.604,15.744 5.655,-2.014 3.479,-5.943 9.48,-6.137 5.902,-0.191 5.363,-5.513 11.225,-4.806 8.264,0.997 16.567,2.001 24.576,4.27 14.778,4.186 27.975,12.494 41.539,19.698 13.565,7.204 28.279,13.503 43.631,13.083 24.8,-0.679 50.198,0.063 72.211,11.505 0.3,0.156 0.637,0.367 0.666,0.704 0.029,0.336 -0.553,0.565 -0.632,0.236 C 254.163,111.148 244.581,101.438 234.432,94.157 223.942,86.631 211.414,82.629 199.651,77.311 179.246,68.085 156.063,67.926 137.965,54.739 125.677,45.785 101.795,27.771 95.6,21.103 90.928,16.074 72.913,-4.128 64.098,-36.873 c -3.787,-14.064 -7.034,-26.122 -4.922,-39.373 5.97,-37.475 52.005,-62.784 83.667,-96.791 17.551,-18.851 57.489,-35.572 60.699,-96.791 -3.927,-34.997 -10.791,-43.299 -16.405,-44.295 -13.766,-2.44 -23.154,38.494 -63.981,72.184 -22.64,18.683 -32.188,16.355 -52.497,29.529 C 5.854,-170.368 -21.068,-66.127 0,0"
             style="fill:#fff2ce;fill-opacity:1;fill-rule:nonzero;stroke:none"
             id="path132" />
        </g>
        <g
           id="g134"
           transform="translate(344.9004,709.9751)">
          <path
             d="m 0,0 c 4.506,-2.531 4.282,-11.482 -0.499,-19.992 -4.78,-8.51 -12.309,-13.357 -16.814,-10.826 -4.505,2.531 -4.283,11.482 0.499,19.992 C -12.033,-2.316 -4.505,2.531 0,0"
             style="fill:#fff2ce;fill-opacity:1;fill-rule:nonzero;stroke:none"
             id="path136" />
        </g>
        <g
           id="g138"
           transform="translate(551.3486,829.9023)">
          <path
             d="m 0,0 c 0.567,-4.866 -6.423,-9.678 -15.613,-10.749 -9.19,-1.071 -17.1,2.005 -17.666,6.871 -0.568,4.865 6.423,9.677 15.613,10.748 C -8.477,7.941 -0.566,4.865 0,0"
             style="fill:#fff2ce;fill-opacity:1;fill-rule:nonzero;stroke:none"
             id="path140" />
        </g>
        <g
           id="g142"
           transform="translate(595.1543,834.7339)">
          <path
             d="m 0,0 c 0.566,-4.866 -6.424,-9.678 -15.613,-10.749 -9.191,-1.071 -17.101,2.005 -17.667,6.871 -0.568,4.865 6.424,9.677 15.613,10.748 C -8.477,7.941 -0.567,4.865 0,0"
             style="fill:#fff2ce;fill-opacity:1;fill-rule:nonzero;stroke:none"
             id="path144" />
        </g>
        <g
           id="g146"
           transform="translate(567.8311,819.77)">
          <path
             d="m 0,0 c 0.309,-2.652 -3.502,-5.275 -8.512,-5.859 -5.009,-0.584 -9.321,1.093 -9.63,3.745 -0.309,2.652 3.501,5.275 8.511,5.859 C -4.621,4.329 -0.31,2.652 0,0"
             style="fill:#fff2ce;fill-opacity:1;fill-rule:nonzero;stroke:none"
             id="path148" />
        </g>
        <g
           id="g150"
           transform="translate(383.0039,727.2554)">
          <path
             d="m 0,0 c 1.94,-1.834 0.704,-6.292 -2.762,-9.957 -3.466,-3.665 -7.847,-5.148 -9.787,-3.313 -1.94,1.834 -0.704,6.292 2.762,9.957 C -6.321,0.352 -1.939,1.835 0,0"
             style="fill:#fff2ce;fill-opacity:1;fill-rule:nonzero;stroke:none"
             id="path152" />
        </g>
        <g
           id="g154"
           transform="translate(394.4824,776.564)">
          <path
             d="m 0,0 c 1.939,-1.834 0.703,-6.292 -2.762,-9.957 -3.466,-3.664 -7.847,-5.147 -9.788,-3.313 -1.939,1.834 -0.703,6.292 2.763,9.957 C -6.322,0.352 -1.94,1.835 0,0"
             style="fill:#fff2ce;fill-opacity:1;fill-rule:nonzero;stroke:none"
             id="path156" />
        </g>
        <g
           id="g158"
           transform="translate(311.2637,628.6143)">
          <path
             d="m 0,0 c 2.411,-1.148 2.607,-5.77 0.438,-10.324 -2.167,-4.553 -5.879,-7.314 -8.291,-6.166 -2.411,1.148 -2.607,5.77 -0.438,10.323 C -6.123,-1.613 -2.411,1.148 0,0"
             style="fill:#fff2ce;fill-opacity:1;fill-rule:nonzero;stroke:none"
             id="path160" />
        </g>
        <g
           id="g162"
           transform="translate(376.6172,750.9893)">
          <path
             d="m 0,0 c 3.754,-3.55 1.361,-12.178 -5.346,-19.271 -6.707,-7.091 -15.188,-9.962 -18.942,-6.412 -3.755,3.551 -1.361,12.179 5.346,19.271 C -12.236,0.68 -3.755,3.551 0,0"
             style="fill:#fff2ce;fill-opacity:1;fill-rule:nonzero;stroke:none"
             id="path164" />
        </g>
        <g
           id="g166"
           transform="translate(321.3057,667.4331)">
          <path
             d="m 0,0 c 4.743,-2.05 5.45,-10.975 1.578,-19.936 -3.872,-8.96 -10.856,-14.562 -15.6,-12.512 -4.744,2.05 -5.451,10.975 -1.579,19.936 C -11.729,-3.552 -4.744,2.05 0,0"
             style="fill:#fff2ce;fill-opacity:1;fill-rule:nonzero;stroke:none"
             id="path168" />
        </g>
        <g
           id="g170"
           transform="translate(330.457,479.5884)">
          <path
             d="m 0,0 c 4.318,2.838 12.165,-1.475 17.525,-9.632 5.361,-8.158 6.205,-17.072 1.886,-19.91 -4.318,-2.837 -12.165,1.475 -17.525,9.633 C -3.475,-11.751 -4.319,-2.838 0,0"
             style="fill:#fff2ce;fill-opacity:1;fill-rule:nonzero;stroke:none"
             id="path172" />
        </g>
        <g
           id="g174"
           transform="translate(340.4551,502.3311)">
          <path
             d="m 0,0 c 2.23,1.468 6.286,-0.757 9.06,-4.97 2.773,-4.212 3.212,-8.818 0.983,-10.286 -2.231,-1.468 -6.287,0.757 -9.06,4.97 C -1.79,-6.074 -2.23,-1.468 0,0"
             style="fill:#fff2ce;fill-opacity:1;fill-rule:nonzero;stroke:none"
             id="path176" />
        </g>
        <g
           id="g178"
           transform="translate(361.9229,470.6855)">
          <path
             d="m 0,0 c 2.077,1.678 6.33,-0.143 9.499,-4.066 3.169,-3.924 4.055,-8.465 1.978,-10.142 -2.078,-1.678 -6.331,0.143 -9.5,4.066 C -1.192,-6.219 -2.077,-1.678 0,0"
             style="fill:#fff2ce;fill-opacity:1;fill-rule:nonzero;stroke:none"
             id="path180" />
        </g>
        <g
           id="g182"
           transform="translate(392.1738,415.5991)">
          <path
             d="m 0,0 c 2.127,1.613 6.322,-0.337 9.37,-4.356 3.047,-4.019 3.792,-8.584 1.665,-10.198 -2.128,-1.613 -6.323,0.337 -9.37,4.356 C -1.383,-6.179 -2.128,-1.613 0,0"
             style="fill:#fff2ce;fill-opacity:1;fill-rule:nonzero;stroke:none"
             id="path184" />
        </g>
        <g
           id="g186"
           transform="translate(311.8916,516.7651)">
          <path
             d="m 0,0 c 4.879,1.702 11.441,-4.389 14.657,-13.605 3.216,-9.217 1.867,-18.068 -3.012,-19.77 C 6.766,-35.078 0.203,-28.986 -3.013,-19.77 -6.228,-10.554 -4.879,-1.703 0,0"
             style="fill:#fff2ce;fill-opacity:1;fill-rule:nonzero;stroke:none"
             id="path188" />
        </g>
        <g
           id="g190"
           transform="translate(315.7607,564.9902)">
          <path
             d="m 0,0 c 5.119,0.704 10.347,-6.565 11.676,-16.235 1.329,-9.671 -1.743,-18.08 -6.864,-18.784 -5.119,-0.704 -10.346,6.565 -11.675,16.235 C -8.192,-9.113 -5.12,-0.704 0,0"
             style="fill:#fff2ce;fill-opacity:1;fill-rule:nonzero;stroke:none"
             id="path192" />
        </g>
        <g
           id="g194"
           transform="translate(334.5703,581.2187)">
          <path
             d="m 0,0 c 2.646,0.366 5.35,-3.388 6.04,-8.384 0.691,-4.996 -0.893,-9.343 -3.538,-9.708 -2.645,-0.366 -5.349,3.387 -6.04,8.384 C -4.229,-4.712 -2.645,-0.366 0,0"
             style="fill:#fff2ce;fill-opacity:1;fill-rule:nonzero;stroke:none"
             id="path196" />
        </g>
        <g
           id="g198"
           transform="translate(296.8379,571.3755)">
          <path
             d="m 0,0 c 2.646,0.366 5.35,-3.388 6.041,-8.384 0.69,-4.996 -0.894,-9.343 -3.538,-9.708 -2.646,-0.366 -5.35,3.387 -6.04,8.384 C -4.229,-4.712 -2.645,-0.366 0,0"
             style="fill:#fff2ce;fill-opacity:1;fill-rule:nonzero;stroke:none"
             id="path200" />
        </g>
        <g
           id="g202"
           transform="translate(314.9961,606.5376)">
          <path
             d="m 0,0 c 5.137,-0.562 8.44,-8.884 7.378,-18.587 -1.063,-9.704 -6.089,-17.114 -11.226,-16.551 -5.136,0.562 -8.439,8.884 -7.377,18.587 C -10.162,-6.848 -5.137,0.562 0,0"
             style="fill:#fff2ce;fill-opacity:1;fill-rule:nonzero;stroke:none"
             id="path204" />
        </g>
        <g
           id="g206"
           transform="translate(362.3145,442.3604)">
          <path
             d="m 0,0 c 4.001,3.271 12.252,-0.205 18.43,-7.762 6.178,-7.557 7.943,-16.335 3.942,-19.606 -4.001,-3.271 -12.253,0.204 -18.431,7.762 C -2.236,-12.049 -4.001,-3.271 0,0"
             style="fill:#fff2ce;fill-opacity:1;fill-rule:nonzero;stroke:none"
             id="path208" />
        </g>
        <g
           id="g210"
           transform="translate(464.4131,584.5493)">
          <path
             d="m 0,0 c -2.051,0.353 -3.562,2.111 -3.604,4.19 -0.972,49.301 10.592,87.132 34.374,112.444 20.045,21.331 84.896,49.106 118.32,63.23 0.86,0.364 2.067,0.825 3.542,1.386 9.835,3.747 35.958,13.697 41.201,30.552 0.51,1.636 1.229,4.624 1.72,8.11 1.432,10.163 0.351,20.505 -3.21,30.783 -40.22,0.496 -80.857,-0.9 -120.832,-4.151 -7.63,-0.62 -10.177,0.377 -12.715,1.746 -1.073,0.578 -2.001,1.078 -7.353,0.471 -1.507,-0.171 -2.996,0.458 -3.923,1.659 -3.397,4.398 -10.693,12.041 -21.398,13.802 -2.052,0.337 -5.867,0.965 -10.329,-0.366 -0.01,-0.002 -0.018,-0.005 -0.028,-0.008 -4.928,-1.477 -9.251,-4.909 -12.502,-9.928 -0.148,-0.228 -0.318,-0.442 -0.505,-0.639 l 10e-4,0.001 c 0.012,0.004 -4.041,-5.068 -7.454,-23.104 -0.229,-1.204 -0.955,-2.257 -2.001,-2.896 -2.072,-1.265 -6.968,-3.242 -14.783,-6.362 -5.928,-2.367 -14.044,-5.608 -15.715,-6.74 C -127.172,153.304 -196.465,34.857 -154.812,-73.742 -113.889,-180.44 -6.697,-208.51 -2.563,-209.548 m -1.669,-8.518 c -0.077,0.014 -0.152,0.03 -0.228,0.047 -1.148,0.274 -115.313,28.687 -158.455,141.169 -19.744,51.478 -16.717,108.893 8.752,166.038 23.182,52.01 62.993,98.953 112.105,132.181 2.282,1.544 8.08,3.905 17.36,7.61 4.195,1.675 9.201,3.673 11.885,4.907 3.466,17.149 7.559,23.312 8.959,25.008 4.371,6.633 10.288,11.218 17.127,13.267 0.015,0.005 0.029,0.008 0.042,0.012 6.377,1.902 11.67,1.031 14.216,0.611 12.162,-2 20.669,-9.698 25.33,-15.177 5.643,0.396 7.851,-0.492 10.053,-1.678 1.091,-0.588 2.218,-1.196 7.893,-0.735 41.238,3.354 83.172,4.746 124.639,4.139 1.765,-0.027 3.338,-1.119 3.979,-2.763 4.903,-12.576 6.491,-25.318 4.722,-37.87 -0.479,-3.395 -1.237,-6.938 -2.027,-9.476 -6.496,-20.884 -34.458,-31.536 -46.399,-36.083 -1.353,-0.515 -2.462,-0.936 -3.253,-1.271 C 120.532,158.375 56.112,130.929 37.094,110.69 15.482,87.688 4.7,53.118 5.025,7.906"
             style="fill:#c45321;fill-opacity:1;fill-rule:nonzero;stroke:none"
             id="path212" />
        </g>
        <g
           id="g214"
           transform="translate(496.6904,788.061)">
          <path
             d="m 0,0 c -12.184,-4.38 -24.296,-1.712 -27.054,5.958 -2.758,7.671 -4.305,40.059 7.877,44.439 C -6.993,54.777 14.308,29.491 17.065,21.82 19.823,14.149 12.183,4.38 0,0"
             style="fill:#000000;fill-opacity:1;fill-rule:nonzero;stroke:none"
             id="path216" />
        </g>
        <g
           id="g218"
           transform="translate(601.0811,825.603)">
          <path
             d="m 0,0 7.945,-3.204 c 1.284,-0.518 2.838,-0.45 3.725,-1.49 0.946,-0.985 1.726,-2.14 2.416,-4.301 L 13.87,-9.609 c -0.976,-0.62 -1.926,-0.888 -2.797,-0.971 -0.903,-0.127 -1.709,-0.024 -2.49,0.155 -1.591,0.311 -2.444,1.851 -3.518,2.883 -1.077,1.044 -2.071,2.158 -2.989,3.335 -0.879,1.225 -1.777,2.388 -2.51,3.722 z"
             style="fill:#c45321;fill-opacity:1;fill-rule:nonzero;stroke:none"
             id="path220" />
        </g>
        <g
           id="g222"
           transform="translate(639.8936,823.3501)">
          <path
             d="m 0,0 0.115,8.566 c 0.019,1.385 -0.606,2.809 0.043,4.012 0.575,1.238 1.371,2.382 3.136,3.807 l 0.651,0.021 C 4.876,15.719 5.47,14.931 5.861,14.149 6.306,13.353 6.501,12.564 6.616,11.771 6.902,10.176 5.775,8.823 5.201,7.45 4.616,6.068 3.937,4.738 3.171,3.457 2.347,2.194 1.588,0.937 0.609,-0.229 Z"
             style="fill:#c45321;fill-opacity:1;fill-rule:nonzero;stroke:none"
             id="path224" />
        </g>
        <g
           id="g226"
           transform="translate(459.1758,779.1016)">
          <path
             d="m 0,0 c -1.667,-4.303 -2.311,-8.978 -0.397,-12.851 1.988,-4.198 5.146,-7.848 9.185,-10.342 4.019,-2.51 8.708,-4.02 13.487,-4.668 2.403,-0.301 4.809,-0.487 7.083,-0.002 2.445,0.461 4.928,0.765 7.34,1.351 4.872,0.99 9.606,2.483 14.2,4.257 4.574,1.846 8.94,4.127 13.222,6.663 4.278,2.536 8.547,5.266 13.036,7.758 4.492,2.461 9.11,4.827 13.929,6.676 19.137,7.789 40.002,10.53 60.227,10.681 5.06,0.094 10.096,0.058 15.069,0.205 4.97,0.162 9.905,0.339 14.652,1.152 4.729,0.812 9.312,2.171 13.093,4.851 1.908,1.302 3.587,2.939 5.018,4.813 0.68,0.954 1.55,1.812 2.322,2.779 0.777,0.963 1.473,1.996 2.214,3.056 l 0.614,-0.215 c -0.094,-1.319 -0.387,-2.609 -0.751,-3.894 -0.371,-1.278 -0.772,-2.604 -1.586,-3.681 -1.427,-2.266 -3.194,-4.403 -5.332,-6.116 C 192.374,8.983 187.177,6.94 182.057,5.799 171.737,3.51 161.524,3.533 151.513,2.975 141.49,2.517 131.579,1.98 121.787,0.588 c -9.762,-1.42 -19.495,-3.496 -28.74,-6.884 -4.659,-1.601 -9.113,-3.695 -13.535,-5.923 -4.414,-2.241 -8.714,-4.835 -13.232,-7.223 -4.499,-2.412 -9.203,-4.577 -14.04,-6.355 -4.865,-1.707 -9.844,-2.998 -14.85,-4.022 -2.495,-0.578 -5.03,-0.866 -7.541,-1.311 l -0.945,-0.153 c -0.353,-0.051 -0.729,-0.081 -1.068,-0.102 -0.689,-0.037 -1.356,-0.04 -2.021,-0.028 -1.326,0.017 -2.638,0.1 -3.944,0.247 -5.205,0.598 -10.368,2.118 -14.977,4.856 -2.296,1.365 -4.458,3.007 -6.373,4.927 -1.896,1.935 -3.521,4.15 -4.821,6.533 -1.399,2.507 -2.13,5.491 -2.183,8.319 -0.069,2.852 0.403,5.612 1.072,8.251 z"
             style="fill:#c45321;fill-opacity:1;fill-rule:nonzero;stroke:none"
             id="path228" />
        </g>
        <g
           id="g230"
           transform="translate(487.1533,819.0879)">
          <path
             d="m 0,0 c 0.06,-6.058 -3.291,-11.002 -7.484,-11.043 -4.194,-0.042 -7.643,4.835 -7.703,10.892 -0.06,6.058 3.291,11.002 7.485,11.044 C -3.509,10.934 -0.061,6.058 0,0"
             style="fill:#ffffff;fill-opacity:1;fill-rule:nonzero;stroke:none"
             id="path232" />
        </g>
        <g
           id="g234"
           transform="translate(590.1377,861.2021)">
          <path
             d="m 0,0 c 2.405,-3.435 2.765,-7.334 0.801,-8.709 -1.963,-1.374 -5.504,0.296 -7.91,3.731 C -9.515,-1.542 -9.873,2.356 -7.91,3.731 -5.947,5.106 -2.406,3.436 0,0"
             style="fill:#ffffff;fill-opacity:1;fill-rule:nonzero;stroke:none"
             id="path236" />
        </g>
        <g
           id="g238"
           transform="translate(582.8516,482.21)">
          <path
             d="m 0,0 c -11.974,13.422 -19.291,13.55 -54.11,37.29 -8.664,5.906 -15.605,10.939 -20.044,14.214 0.82,-5.603 -3.427,-11.812 -9.949,-9.674 -16.022,5.253 -28.763,36.201 -35.029,51.037 -4.222,9.994 -7.689,20.862 -10.178,32.065 -1.562,1.849 -2.326,4.325 -1.5,7.06 0.016,0.051 0.034,0.102 0.049,0.154 -3.076,16.936 -3.843,34.373 -1.472,50.538 2.144,14.619 7.21,27.874 14.244,40.005 -1.095,2.665 -0.806,5.838 1.854,8.422 3.061,2.973 6.272,5.75 9.595,8.377 2.642,3.36 28.395,6.622 31.292,9.802 -7.456,1.916 -14.956,3.636 -22.505,5.12 -3.285,-0.253 -6.555,-0.538 -9.796,-0.9 -11.043,-1.236 -25.587,-3.254 -37.322,0.259 -8.587,-11.406 -23.818,-34.04 -32.423,-61.045 -21.068,-66.128 5.854,-170.369 70.659,-212.41 20.309,-13.175 29.857,-10.847 52.497,-29.53 40.827,-33.689 50.215,-74.623 63.981,-72.183 5.614,0.996 12.478,9.297 16.405,44.295 0.334,8.828 -0.175,22.279 -4.922,37.731 C 19.106,-32.145 13.8,-15.469 0,0"
             style="fill:#fff2ce;fill-opacity:1;fill-rule:nonzero;stroke:none"
             id="path240" />
        </g>
        <g
           id="g242"
           transform="translate(613.5283,400.1885)">
          <path
             d="m 0,0 -6.553,0.34 c 1.782,34.356 -10.14,63.787 -35.436,87.477 -19.013,17.808 -38.872,25.514 -39.072,25.589 l 2.334,6.134 c 0.853,-0.325 21.094,-8.148 41.043,-26.764 C -19.192,75.521 2.355,45.419 0,0"
             style="fill:#c45321;fill-opacity:1;fill-rule:nonzero;stroke:none"
             id="path244" />
        </g>
        <g
           id="g246"
           transform="translate(590.9473,356.0239)">
          <path
             d="m 0,0 c 3.684,0.531 6.266,2.579 6.995,3.116 5.38,3.962 16.856,4.497 22.236,-0.993 5.603,-5.718 4.549,-17.921 -0.993,-22.237 -5.243,-4.082 -11.902,0.919 -22.466,-4.138 -1.411,-0.676 -4.443,-2.128 -7.071,-4.827"
             style="fill:#fd9415;fill-opacity:1;fill-rule:nonzero;stroke:none"
             id="path248" />
        </g>
        <g
           id="g250"
           transform="translate(591.7803,354.0361)">
          <path
             d="M 0,0 C 1.543,0.241 3.026,0.733 4.406,1.39 5.098,1.718 5.762,2.093 6.4,2.499 l 0.93,0.61 c 0.282,0.205 0.483,0.286 0.724,0.437 0.93,0.534 2.002,0.957 3.133,1.239 4.48,1.192 9.778,0.647 13.262,-1.519 1.677,-1.113 2.821,-2.549 3.479,-4.578 0.66,-1.966 0.921,-4.23 0.654,-6.428 -0.239,-2.181 -0.906,-4.364 -1.992,-5.914 -0.518,-0.8 -1.131,-1.398 -1.736,-1.746 -0.602,-0.366 -1.232,-0.561 -2.175,-0.658 -1.92,-0.167 -4.74,0.192 -7.718,0.138 -3.002,-0.046 -6.19,-0.544 -9.12,-1.584 -0.746,-0.236 -1.439,-0.567 -2.159,-0.852 -0.738,-0.297 -1.31,-0.583 -2.024,-0.934 -0.907,-0.456 -1.804,-0.986 -2.686,-1.552 -0.046,-4.094 -0.091,-8.188 -0.137,-12.283 0.334,0.661 0.832,1.515 1.559,2.421 0.918,1.145 1.785,1.862 2.303,2.273 0.847,0.671 1.78,1.276 2.788,1.832 1.045,0.577 2.132,1.071 3.144,1.489 2.092,0.825 4.243,1.256 6.589,1.39 2.371,0.17 4.913,-0.161 8.334,0.202 1.712,0.213 3.706,0.832 5.332,1.954 1.65,1.098 2.882,2.531 3.773,4.001 1.838,2.958 2.577,6.109 2.823,9.237 0.232,3.129 -0.172,6.313 -1.37,9.366 -1.106,3.035 -3.582,5.965 -6.509,7.577 -2.919,1.596 -6.05,2.228 -9.058,2.296 C 15.521,10.979 12.544,10.57 9.685,9.552 8.255,9.061 6.853,8.392 5.53,7.482 5.219,7.257 4.833,7.009 4.59,6.798 L 3.883,6.247 C 3.461,5.939 2.973,5.623 2.416,5.324 1.245,4.694 0.142,4.34 -0.752,4.133 -0.768,2.723 -0.783,1.312 -0.799,-0.098 -0.532,-0.066 -0.266,-0.035 0,0"
             style="fill:#c45321;fill-opacity:1;fill-rule:nonzero;stroke:none"
             id="path252" />
        </g>
        <g
           id="g254"
           transform="translate(634.3604,356.7471)">
          <path
             d="m 0,0 -10.711,-6.924 c -1.732,-1.119 -2.981,-3.068 -5.008,-3.256 -2.01,-0.307 -4.084,-0.265 -7.306,0.746 l -0.562,0.79 c 0.083,1.72 0.569,3.106 1.215,4.236 0.621,1.208 1.437,2.101 2.325,2.898 1.741,1.67 4.348,1.39 6.524,1.811 2.195,0.415 4.404,0.67 6.623,0.778 2.245,0.021 4.43,0.117 6.682,-0.135 z"
             style="fill:#553721;fill-opacity:1;fill-rule:nonzero;stroke:none"
             id="path256" />
        </g>
        <g
           id="g258"
           transform="translate(602.6895,340.8462)">
          <path
             d="m 0,0 c 3.496,-1.551 6.256,-4.36 8.864,-7.158 3.982,-4.268 7.827,-8.663 11.53,-13.175 5.014,-6.112 9.835,-12.562 12.556,-19.984 3.918,-10.69 3.17,-22.447 2.369,-33.804 -0.363,-5.155 -0.752,-10.418 -2.755,-15.182 -2.455,-5.84 -7.358,-10.604 -13.265,-12.892 -1.254,-0.486 -2.6,-0.868 -3.932,-0.68 -1.399,0.2 -2.628,1.005 -3.79,1.81 -16.395,11.353 -29.826,26.839 -39.092,44.474 -5.983,11.388 -24.454,49.621 -3.442,52.825 5.251,0.801 9.042,0.875 14.203,2.742 C -11.229,0.975 -5.684,2.521 0,0"
             style="fill:#fd9415;fill-opacity:1;fill-rule:nonzero;stroke:none"
             id="path260" />
        </g>
        <g
           id="g262"
           transform="translate(585.7275,352.8496)">
          <path
             d="m 0,0 -2.483,6.074 c 1.028,0.429 25.204,10.985 23.936,51.629 l 6.56,0.205 C 29.429,12.482 1.201,0.489 0,0"
             style="fill:#c45321;fill-opacity:1;fill-rule:nonzero;stroke:none"
             id="path264" />
        </g>
        <g
           id="g266"
           transform="translate(402.3398,421.0693)">
          <path
             d="m 0,0 c 0.842,-7.441 3.412,-14.572 6.221,-21.514 6.091,-15.052 13.543,-29.819 24.524,-41.781 10.981,-11.961 25.88,-20.955 42.068,-22.207 17.922,-1.386 35.844,7.038 47.973,20.304 9.048,9.896 15.256,22.76 15.539,36.166 0.167,7.912 -1.698,15.755 -4.41,23.191 -5.004,13.72 -13.216,26.634 -25.153,35.048 C 98.979,34.691 89.925,38.078 80.82,40.861 73.476,43.106 65.985,45.005 58.337,45.7 41.742,47.208 24.671,42.811 10.869,33.473 5.045,29.532 4.954,25.779 3.118,19.918 0.962,13.037 -0.84,7.411 0,0"
             style="fill:#fd9415;fill-opacity:1;fill-rule:nonzero;stroke:none"
             id="path268" />
        </g>
        <g
           id="g270"
           transform="translate(399.2598,420.7207)">
          <path
             d="m 0,0 c -0.214,2.373 -0.196,4.788 0.06,7.156 0.284,2.364 0.822,4.661 1.47,6.847 0.655,2.191 1.447,4.275 2.207,6.329 0.782,2.003 1.367,4.006 2.214,6.217 0.82,2.192 2.182,4.477 3.989,6.135 0.897,0.825 1.843,1.564 2.831,2.181 l 2.877,1.742 c 3.863,2.227 7.866,4.185 12.007,5.797 8.256,3.287 17.101,5.115 26.01,5.333 8.934,0.284 17.825,-1.27 26.33,-3.575 8.482,-2.305 17.017,-4.861 25.034,-9.053 8.057,-4.132 15.11,-10.306 20.646,-17.46 5.553,-7.181 9.77,-15.284 12.867,-23.749 3.069,-8.438 5.143,-17.724 4.144,-27.177 -0.937,-9.38 -4.442,-18.313 -9.527,-26.057 -5.108,-7.741 -11.776,-14.45 -19.537,-19.564 -7.767,-5.086 -16.619,-8.658 -25.95,-9.998 -4.655,-0.673 -9.43,-0.76 -14.132,-0.239 -4.701,0.522 -9.295,1.699 -13.679,3.323 -8.77,3.293 -16.646,8.431 -23.434,14.608 -6.769,6.255 -12.353,13.538 -17.021,21.236 -4.677,7.705 -8.476,15.811 -11.819,24.011 C 4.316,-17.818 0.978,-9.307 0,0 m 6.159,0.697 c 1.037,-8.134 4.292,-16.063 7.724,-24.002 3.443,-7.898 7.283,-15.575 11.855,-22.711 4.557,-7.129 9.901,-13.712 16.115,-19.178 6.176,-5.51 13.253,-10.013 20.895,-12.798 7.648,-2.766 15.765,-3.762 23.754,-2.626 7.99,1.106 15.754,4.169 22.615,8.62 6.902,4.409 12.903,10.245 17.527,17.022 4.6,6.767 7.896,14.471 8.89,22.502 1.067,7.987 -0.321,16.308 -2.931,24.328 -2.612,8.042 -6.285,15.763 -11.186,22.607 -4.92,6.831 -11.11,12.676 -18.487,16.811 -7.362,4.185 -15.576,7.057 -23.87,9.552 -8.286,2.449 -16.766,4.178 -25.344,4.061 C 45.15,44.791 36.589,43.146 28.565,40.077 24.568,38.51 20.707,36.573 17.143,34.19 15.347,32.981 13.602,31.781 12.337,30.341 11.04,28.896 10.3,27.221 9.772,25.266 9.255,23.326 8.837,21.067 8.257,18.918 7.712,16.802 7.203,14.712 6.781,12.668 5.911,8.576 5.613,4.642 6.159,0.697"
             style="fill:#c45321;fill-opacity:1;fill-rule:nonzero;stroke:none"
             id="path272" />
        </g>
        <g
           id="g274"
           transform="translate(504.6904,454.9092)">
          <path
             d="m 0,0 c 0.592,1.894 -21.022,12.747 -46.237,15.853 -18.065,2.225 -27.029,-0.875 -30.934,-2.5 -6.55,-2.725 -10.799,-6.267 -12.022,-7.323 -11.43,-9.861 -14.329,-23.203 -15.17,-28.488 1.474,2.676 2.308,3.968 2.502,3.879 0.141,-0.066 -0.062,-0.873 -0.608,-2.422 0.199,-2.507 0.488,-4.985 0.915,-7.41 1.841,6.966 4.928,13.585 9.217,19.254 4.847,6.452 11.29,11.487 18.654,14.939 7.372,3.434 15.561,5.254 23.825,5.726 0.048,0.003 0.097,0.003 0.145,0.006 5.276,-0.223 11.361,-0.861 18.007,-2.266 C -20.868,6.956 -11.978,3.35 -5.284,0 -1.014,-0.631 -0.107,-0.342 0,0"
             style="fill:#c45321;fill-opacity:1;fill-rule:nonzero;stroke:none"
             id="path276" />
        </g>
        <g
           id="g278"
           transform="translate(718.8545,662.0903)">
          <path
             d="m 0,0 c 39.617,32.728 79.234,65.455 118.853,98.183 -9.271,4.942 -19.067,8.661 -29.163,11.072 -1.877,0.448 -3.823,0.851 -5.749,0.382 -2.733,-0.666 -5.015,-2.971 -7.177,-5.149 C 61.904,89.522 45.819,76.365 29.386,63.986 0.719,42.389 -29.068,23.091 -58.827,3.814 c -36.462,-23.62 -72.924,-47.24 -109.386,-70.86 -11.783,-7.633 -23.988,-15.766 -33.796,-26.432 -0.359,0.923 -0.712,1.849 -1.072,2.771 -20.58,52.712 -42.244,104.98 -63.731,157.314 -10.846,26.421 -21.657,52.86 -32.262,79.383 -5.203,13.014 -10.361,26.047 -15.448,39.108 -3.006,7.716 -8.669,31.304 -15.221,35.249 -12.486,7.517 -3.728,-45.611 -2.526,-55.799 2.904,-24.596 7.172,-49.283 12.429,-73.874 10.584,-49.506 25.156,-98.56 41.293,-147.013 21.665,-65.05 46.076,-129.242 70.472,-193.391 29.119,-76.57 58.238,-153.141 87.356,-229.711 1.273,-3.346 2.835,-7.064 5.511,-8.634 1.604,-0.942 3.299,-0.901 4.912,-0.839 11.827,0.454 23.654,0.908 35.483,1.362 -25.344,70.671 -42.51,143.526 -64.279,215.21 -12.564,41.378 -26.685,82.341 -41.701,122.991 20.923,17.284 41.845,34.568 62.767,51.851 C -78.685,-65 -39.342,-32.5 0,0"
             style="fill:#8cc63f;fill-opacity:1;fill-rule:nonzero;stroke:none"
             id="path280" />
        </g>
        <g
           id="g282"
           transform="translate(387.168,879.7651)">
          <path
             d="m 0,0 c -1.52,-2.132 -2.964,-11.386 2.001,-47.645 0.296,-2.164 0.536,-3.916 0.676,-5.097 2.738,-23.203 6.903,-47.956 12.379,-73.572 9.353,-43.754 22.443,-90.357 41.197,-146.664 21.665,-65.048 46.453,-130.228 70.425,-193.26 l 87.356,-229.712 c 0.781,-2.052 2.237,-5.873 4.106,-6.97 0.757,-0.446 1.732,-0.444 3.126,-0.39 l 31.016,1.19 c -15.584,44.072 -28.277,89.578 -40.564,133.627 -7.104,25.463 -14.449,51.793 -22.263,77.522 -11.573,38.117 -25.194,78.288 -41.638,122.809 l -0.807,2.184 297.579,245.826 c -7.701,3.709 -15.743,6.576 -23.975,8.541 -1.6,0.382 -3.018,0.674 -4.211,0.385 -1.826,-0.445 -3.749,-2.383 -5.608,-4.257 -13.057,-13.15 -28.224,-26.119 -47.748,-40.827 -28.78,-21.682 -59.092,-41.316 -88.404,-60.305 l -109.387,-70.86 c -12.651,-8.196 -23.878,-15.802 -33.162,-25.899 l -3.56,-3.869 -2.986,7.673 c -17.694,45.316 -36.505,91.074 -54.696,135.325 l -9.012,21.931 c -10.407,25.348 -21.52,52.513 -32.274,79.411 -5.599,14.004 -10.656,26.805 -15.459,39.135 -0.786,2.018 -1.708,4.949 -2.774,8.344 C 8.81,-17.4 4.112,-2.463 0.251,-0.139 0.155,-0.081 0.071,-0.035 0,0 m 220.268,-709.897 c -1.571,0 -3.533,0.192 -5.451,1.317 -3.559,2.09 -5.368,6.232 -6.916,10.297 l -87.356,229.712 c -23.996,63.096 -48.81,128.341 -70.518,193.521 -18.832,56.542 -31.983,103.367 -41.389,147.364 -5.518,25.814 -9.716,50.77 -12.479,74.175 -0.136,1.153 -0.37,2.863 -0.66,4.976 -4.902,35.806 -4.605,50.514 1.093,54.267 1.182,0.779 3.671,1.78 7.043,-0.249 5.55,-3.34 9.444,-14.586 13.957,-28.939 1.032,-3.282 1.924,-6.117 2.629,-7.93 4.797,-12.312 9.846,-25.095 15.439,-39.081 10.743,-26.873 21.85,-54.021 32.252,-79.355 l 9.01,-21.928 c 17.936,-43.632 36.473,-88.725 53.964,-133.449 9.076,8.88 19.756,16.075 30.801,23.232 l 109.389,70.86 c 29.215,18.926 59.428,38.497 88.023,60.039 19.266,14.514 34.209,27.286 47.024,40.193 2.398,2.417 5.102,5.14 8.729,6.024 2.604,0.636 5.027,0.163 7.286,-0.378 10.358,-2.472 20.434,-6.297 29.944,-11.368 l 4.324,-2.304 -301.628,-249.172 c 16.128,-43.773 29.534,-83.375 40.957,-120.991 7.834,-25.801 15.19,-52.167 22.302,-77.665 12.649,-45.344 25.73,-92.232 41.924,-137.39 l 1.511,-4.214 -39.956,-1.534 c -0.376,-0.015 -0.796,-0.03 -1.248,-0.03"
             style="fill:#7caa37;fill-opacity:1;fill-rule:nonzero;stroke:none"
             id="path284" />
        </g>
        <g
           id="g286"
           transform="translate(615.4912,335.6724)">
          <path
             d="m 0,0 c -2.033,0.437 -4.228,0.653 -8.534,0.185 -6.914,-0.751 -8.405,0.472 -15.103,-1.506 -1.2,-0.354 -1.724,-0.835 -2.405,-1.323 -3.862,-2.767 -8.212,-9.35 -6.812,-17.047 0.852,-4.682 3.7,-9.063 7.345,-10.985 1.284,-0.677 2.337,-1.061 3.191,-1.028 4.64,0.18 6.93,1.3 12.425,2.819 1.147,0.317 10.433,2.885 11.991,-0.385 0.532,-1.114 0.004,-2.571 -0.061,-2.744 -0.881,-2.347 -3.801,-2.797 -4.735,-2.959 -1.936,-0.336 -14.696,-2.656 -20.072,-8.762 -5.301,-6.022 -5.935,-17.065 -1.401,-24.414 1.079,-1.751 2.43,-3.313 4.049,-4.288 1.431,-0.861 3.022,-1.237 4.597,-1.333 8.186,-0.497 15.056,6.153 22.71,9.213 0.739,0.296 1.533,0.561 2.309,0.338 2.236,-0.644 2.404,-4.806 0.758,-6.598 -1.647,-1.792 -4.101,-1.968 -6.332,-2.4 -7.563,-1.467 -15.752,-8.491 -17.531,-16.97 -1.343,-6.397 0.483,-15.318 5.399,-19.341 6.34,-5.189 9.882,-2.71 17.695,1.746 5.85,3.337 12.248,6.987 16.569,14.574 7.417,13.024 3.937,29.278 0.265,46.43 C 24.798,-39.68 17.564,-3.776 0,0"
             style="fill:#fd9415;fill-opacity:1;fill-rule:nonzero;stroke:none"
             id="path288" />
        </g>
        <g
           id="g290"
           transform="translate(615.8301,338.6392)">
          <path
             d="m 0,0 c 2.235,-0.833 7.128,-2.359 11.515,-7.431 3.094,-3.579 5.5,-7.704 7.505,-11.96 4,-8.542 6.604,-17.624 8.636,-26.752 1.91,-9.013 4.164,-18.047 4.838,-27.737 0.342,-4.816 0.12,-9.826 -0.962,-14.642 -1.057,-4.831 -3.124,-9.323 -5.872,-12.999 -2.755,-3.704 -6.186,-6.466 -9.637,-8.699 -3.504,-2.212 -1.509,-1.451 -5.062,-3.352 -3.568,-1.813 -7.324,-3.594 -11.703,-4.018 -2.174,-0.168 -4.574,0.035 -6.865,1.167 -2.285,1.115 -4.299,3.064 -5.689,5.347 -1.409,2.292 -2.314,4.833 -2.861,7.403 -0.559,2.573 -0.756,5.203 -0.582,7.825 0.137,2.61 0.817,5.291 1.835,7.553 1.016,2.28 2.339,4.253 3.812,5.975 2.958,3.438 6.525,5.924 10.428,7.473 1.901,0.795 4.163,1.245 5.895,1.531 0.869,0.174 1.658,0.386 2.262,0.712 0.305,0.161 0.567,0.344 0.792,0.55 0.271,0.256 0.256,0.285 0.39,0.532 0.209,0.411 0.274,1.13 0.165,1.558 -0.043,0.22 -0.122,0.324 -0.126,0.31 -0.005,-0.011 0.054,-0.068 0.007,-0.037 -0.08,0.055 -0.837,-0.155 -1.713,-0.595 -0.83,-0.374 -1.654,-0.815 -2.479,-1.27 -3.315,-1.802 -6.531,-4.216 -10.251,-6.09 -3.698,-1.88 -8.008,-3.228 -12.762,-2.304 -2.412,0.433 -5.025,2.146 -6.75,4.223 -1.787,2.046 -3.066,4.51 -4.002,7.12 -1.82,5.237 -1.907,11.009 -0.443,16.089 0.728,2.545 1.863,4.937 3.402,6.931 1.532,2.029 3.485,3.543 5.328,4.602 3.758,2.152 7.603,3.326 11.461,4.221 1.931,0.439 3.857,0.832 5.816,1.115 0.984,0.117 1.696,0.273 2.377,0.569 0.665,0.287 1.104,0.692 1.246,1.036 0.089,0.135 0.184,0.563 0.188,0.72 -0.019,0.219 0.019,0.079 0.024,0.002 0.111,-0.007 -0.644,0.4 -1.41,0.444 -1.591,0.186 -3.459,-0.024 -5.244,-0.378 -3.613,-0.727 -7.112,-2.16 -11.028,-3.289 -0.988,-0.264 -2.007,-0.475 -3.027,-0.619 -0.51,-0.071 -1.02,-0.133 -1.527,-0.175 l -0.382,-0.034 c -0.172,-0.012 -0.398,-0.014 -0.583,-0.004 -0.385,0.022 -0.736,0.081 -1.066,0.157 -1.333,0.348 -2.231,0.767 -3.355,1.386 -1.081,0.623 -2.084,1.409 -2.996,2.312 -1.816,1.826 -3.274,4.039 -4.53,6.504 -1.23,2.463 -2.021,5.484 -1.875,8.461 0.112,2.977 0.921,5.738 2.021,8.144 1.129,2.399 2.573,4.475 4.298,6.216 0.426,0.441 0.884,0.853 1.355,1.242 0.477,0.376 1.033,0.778 1.365,1.005 0.434,0.315 1.149,0.779 1.828,1.054 0.34,0.145 0.673,0.257 0.991,0.348 l 0.743,0.198 c 1.33,0.409 3.307,0.949 5.738,1.355 C -14.107,1.743 -7.594,2.832 0,0 m -0.677,-5.933 c 0,0 -5.864,2.071 -16.373,-0.357 -2.006,-0.463 -4.415,-1.26 -5.42,-1.581 -1.125,-0.359 -1.007,-0.318 -1.704,-0.838 -0.472,-0.36 -0.712,-0.563 -1.013,-0.82 -0.289,-0.274 -0.585,-0.533 -0.864,-0.838 -2.274,-2.378 -3.863,-5.772 -3.951,-8.991 -0.058,-1.596 -0.088,-3.251 0.311,-5.037 0.355,-1.788 1.277,-3.452 2.419,-4.722 0.568,-0.643 1.192,-1.203 1.852,-1.652 0.624,-0.426 1.548,-0.904 2.107,-1.085 0.144,-0.047 0.271,-0.078 0.368,-0.096 l 0.137,-0.015 0.337,0.003 1.342,0.046 c 0.888,0.054 1.763,0.162 2.648,0.324 3.56,0.648 7.301,2.076 11.254,2.713 1.981,0.327 3.953,0.647 6.21,0.393 0.562,-0.06 1.168,-0.195 1.813,-0.431 0.643,-0.277 1.411,-0.633 2.101,-1.573 0.757,-0.888 0.993,-2.293 0.947,-3.194 -0.045,-0.983 -0.186,-1.688 -0.539,-2.546 -0.718,-1.7 -1.969,-2.594 -3.047,-3.124 -1.083,-0.542 -2.266,-0.778 -3.173,-0.967 -1.815,-0.406 -3.639,-0.868 -5.414,-1.466 -3.539,-1.194 -7.013,-2.718 -9.938,-4.788 -1.48,-1.058 -2.653,-2.192 -3.549,-3.613 -0.9,-1.434 -1.579,-3.088 -2.008,-4.857 -0.845,-3.547 -0.689,-7.524 0.474,-10.923 0.578,-1.677 1.433,-3.266 2.441,-4.533 1.036,-1.276 2.006,-1.935 3.414,-2.381 2.919,-0.821 6.369,-0.242 9.683,1.15 3.36,1.377 6.75,3.385 10.379,5.169 0.912,0.438 1.837,0.867 2.798,1.236 0.887,0.311 1.965,1.008 3.833,0.736 0.902,-0.179 1.891,-0.748 2.561,-1.627 0.678,-0.865 1.037,-1.86 1.209,-2.765 0.318,-1.829 0.136,-3.52 -0.559,-5.09 -0.311,-0.744 -0.946,-1.59 -1.432,-2.006 -0.519,-0.482 -1.081,-0.862 -1.641,-1.156 -1.128,-0.593 -2.222,-0.848 -3.231,-1.057 -2.046,-0.354 -3.571,-0.643 -5.252,-1.354 -3.258,-1.395 -6.318,-3.654 -8.682,-6.573 -2.379,-2.943 -3.987,-6.426 -4.095,-10.277 -0.17,-3.877 0.788,-8.114 2.693,-11.064 1.828,-3.061 4.59,-4.444 7.895,-4.08 3.284,0.352 6.7,1.928 10.036,3.717 3.323,1.853 1.479,1.223 4.631,3.266 3.162,2.077 6.002,4.52 8.275,7.527 4.709,5.97 6.387,14.391 5.829,23.096 -0.51,8.732 -2.537,17.702 -4.423,26.659 -1.973,8.789 -4.498,17.483 -8.203,25.287 -1.854,3.88 -4.039,7.508 -6.624,10.451 -3.324,3.784 -7.069,5.07 -8.862,5.704"
             style="fill:#c45321;fill-opacity:1;fill-rule:nonzero;stroke:none"
             id="path292" />
        </g>
        <g
           id="g294"
           transform="translate(573.9346,305.9023)">
          <path
             d="m 0,0 11.935,3.32 c 1.929,0.538 4.151,0.003 5.593,1.537 1.519,1.424 2.826,3.185 4.167,6.684 l -0.211,1.105 c -1.303,1.321 -2.624,2.036 -3.861,2.412 -1.277,0.459 -2.452,0.502 -3.603,0.407 -2.336,-0.1 -3.813,-2.496 -5.521,-3.967 C 6.783,10.007 5.174,8.375 3.665,6.615 2.202,4.763 0.724,3.022 -0.544,0.945 Z"
             style="fill:#553721;fill-opacity:1;fill-rule:nonzero;stroke:none"
             id="path296" />
        </g>
        <g
           id="g298"
           transform="translate(593.3037,233.4263)">
          <path
             d="m 0,0 11.348,5.32 c 1.834,0.86 3.336,2.777 5.306,2.509 1.975,-0.127 3.957,-0.668 6.889,-2.581 l 0.415,-1.03 C 23.61,2.285 22.928,0.827 22.133,-0.303 21.35,-1.528 20.429,-2.348 19.453,-3.042 17.523,-4.525 15.068,-3.588 12.917,-3.55 10.748,-3.5 8.591,-3.266 6.446,-2.862 4.291,-2.353 2.182,-1.943 0.062,-1.124 Z"
             style="fill:#553721;fill-opacity:1;fill-rule:nonzero;stroke:none"
             id="path300" />
        </g>
        <g
           id="g302"
           transform="translate(579.3018,274.5972)">
          <path
             d="m 0,0 11.348,5.32 c 1.835,0.859 3.336,2.776 5.307,2.509 1.975,-0.128 3.957,-0.668 6.888,-2.581 l 0.416,-1.03 c -0.348,-1.933 -1.03,-3.391 -1.825,-4.522 -0.783,-1.224 -1.705,-2.044 -2.68,-2.738 -1.93,-1.483 -4.386,-0.546 -6.536,-0.508 -2.169,0.05 -4.326,0.284 -6.471,0.688 -2.155,0.509 -4.265,0.918 -6.384,1.738 z"
             style="fill:#553721;fill-opacity:1;fill-rule:nonzero;stroke:none"
             id="path304" />
        </g>
        <g
           id="g306"
           transform="translate(509.373,400.4106)">
          <path
             d="m 0,0 c 0,0 -2.382,4.036 -1.406,9.236 0.287,1.529 1.131,3.181 2.975,6.397 3.843,6.698 5.601,7.627 5.811,10.672 0.235,3.417 -1.713,6.089 -2.26,6.839 -3.474,4.766 -10.08,6.068 -14.973,4.79 -3.063,-0.801 -6.211,-2.695 -9.034,-6.304 -3.93,-5.026 -6.481,-9.833 -7.651,-13.719 -1.367,-4.54 -3.181,-13.285 0.425,-31.319 3.333,-16.675 8.921,-29.397 12.709,-36.972 5.566,-11.129 10.574,-20.903 21.028,-30.012 7.512,-6.546 14.902,-11.671 24.147,-11.277 8.188,0.349 17.451,11.231 15.998,20.457 -1.395,8.859 -12.662,16.119 -20.457,15.997 -1.056,-0.017 -4.895,-0.214 -8.754,1.775 -0.778,0.4 -4.036,2.079 -3.926,4.109 0.031,0.572 0.319,0.992 0.435,1.156 3.82,5.416 18.943,8.009 18.943,8.009 15.842,2.717 16.245,2.322 18.055,3.632 5.99,4.333 10.625,15.085 5.668,23.462 -4.176,7.057 -13.597,9.782 -19.427,7.584 -3.777,-1.424 -9.244,-6.12 -11.761,-8.554 -0.41,-0.396 -2.371,-2.036 -5.265,-3.489 -2.596,-1.304 -4.837,-1.603 -5.608,-0.687 -0.824,0.979 0.232,3.097 0.888,4.378 3.356,6.564 9.712,9.568 10.187,9.784 2.08,0.95 3.24,1.108 12.446,2.946 0,0 16.139,7.666 6.012,20.658 -6.089,7.811 -21.384,7.646 -31.531,1.835 C 0.32,13.737 -1.269,-2.22 -1.417,-4"
             style="fill:#fd9415;fill-opacity:1;fill-rule:nonzero;stroke:none"
             id="path308" />
        </g>
        <g
           id="g310"
           transform="translate(507.8037,398.8145)">
          <path
             d="m 0,0 c -1.021,1.768 -1.564,3.383 -1.905,5.227 -0.321,1.813 -0.352,3.675 -0.034,5.562 0.429,2.115 1.261,3.63 2.008,5.11 0.771,1.457 1.551,2.889 2.404,4.327 0.838,1.423 1.767,2.844 2.605,4.15 0.414,0.65 0.778,1.258 0.975,1.734 0.195,0.482 0.274,0.837 0.291,1.396 0.037,1.077 -0.225,2.21 -0.772,3.315 -0.272,0.559 -0.594,1.07 -1.004,1.619 -0.385,0.496 -0.779,0.942 -1.243,1.352 -1.839,1.62 -4.43,2.579 -7.073,2.677 -2.655,0.12 -5.152,-0.552 -7.372,-2.023 -2.235,-1.436 -3.963,-3.653 -5.774,-6.231 -1.74,-2.501 -3.289,-5.135 -4.416,-7.844 -2.234,-5.353 -2.732,-11.541 -2.457,-17.717 0.292,-6.196 1.299,-12.451 2.646,-18.62 2.666,-12.377 7.207,-24.237 13.095,-35.519 2.942,-5.665 5.996,-11.175 9.779,-16.079 3.766,-4.943 8.301,-9.085 13.304,-12.876 4.906,-3.724 10.225,-6.638 15.747,-6.927 0.687,-0.05 1.376,-0.053 2.065,-0.018 0.374,-0.009 0.635,0.049 0.899,0.092 0.269,0.052 0.534,0.042 0.817,0.15 1.114,0.222 2.262,0.84 3.365,1.488 2.179,1.442 4.19,3.45 5.601,5.775 1.442,2.297 2.377,4.886 2.427,7.275 0.154,2.347 -0.758,4.571 -2.294,6.714 -1.581,2.092 -3.712,3.971 -6.124,5.36 -2.379,1.422 -5.069,2.392 -7.516,2.633 -0.866,0.088 -3.126,-0.074 -4.967,0.213 -1.908,0.24 -3.822,0.758 -5.648,1.565 -1.769,0.872 -3.428,1.629 -5.279,3.713 -0.452,0.561 -0.926,1.279 -1.247,2.255 -0.327,0.981 -0.361,2.32 -0.007,3.373 0.166,0.528 0.4,1 0.655,1.402 0.259,0.411 0.397,0.523 0.606,0.791 0.386,0.444 0.789,0.966 1.194,1.279 1.634,1.514 3.282,2.388 4.915,3.209 1.635,0.814 3.26,1.414 4.889,1.986 1.628,0.558 3.257,1.021 4.891,1.449 l 2.459,0.591 1.241,0.265 0.628,0.126 0.321,0.061 c 0.031,0.006 0.159,0.031 0.109,0.021 -0.062,-0.013 -0.122,-0.031 -0.181,-0.054 l 0.416,0.097 15.361,2.58 c 0.539,0.115 0.829,0.224 0.858,0.247 0.088,0.026 0.609,0.459 0.957,0.737 0.746,0.662 1.477,1.416 2.103,2.286 1.275,1.711 2.286,3.709 2.833,5.776 1.155,4.156 0.53,8.383 -2.062,11.451 -2.503,3.102 -6.918,5.098 -10.94,5.044 -2.08,-0.023 -3.401,-0.51 -5.496,-1.83 -1.968,-1.244 -3.95,-2.797 -5.833,-4.419 l -1.389,-1.237 -0.672,-0.625 c -0.324,-0.315 -0.697,-0.623 -0.984,-0.851 -1.216,-0.962 -2.432,-1.758 -3.721,-2.496 -1.259,-0.711 -2.645,-1.431 -4.331,-1.935 -0.846,-0.243 -1.764,-0.456 -2.986,-0.455 -0.631,0.021 -1.362,0.076 -2.299,0.466 -0.918,0.339 -2.107,1.382 -2.538,2.557 -0.451,1.15 -0.396,2.032 -0.332,2.696 0.079,0.677 0.226,1.184 0.375,1.644 0.305,0.918 0.658,1.632 0.985,2.286 0.678,1.302 1.494,2.695 2.435,3.875 1.866,2.427 4.119,4.443 6.603,6.083 0.63,0.406 1.263,0.799 1.939,1.163 0.35,0.186 0.669,0.356 1.103,0.553 0.349,0.154 0.717,0.314 1.109,0.46 1.612,0.595 2.996,0.852 4.31,1.136 l 7.761,1.521 -0.783,-0.26 c 1.22,0.613 2.718,1.612 3.857,2.622 1.184,1.032 2.133,2.203 2.763,3.4 0.371,0.593 0.498,1.214 0.719,1.818 0.048,0.622 0.225,1.229 0.11,1.869 0.044,0.628 -0.219,1.282 -0.359,1.937 -0.197,0.658 -0.595,1.314 -0.849,1.992 l -1.288,1.968 c -0.484,0.518 -0.871,1.087 -1.465,1.518 -1.063,0.958 -2.423,1.692 -3.905,2.237 -2.962,1.114 -6.397,1.492 -9.804,1.288 C 22.352,23.097 15.463,20.675 10.632,15.747 8.226,13.282 6.238,10.34 4.689,7.13 3.174,3.915 3.377,4.084 2.789,0.561 L 2.781,0.513 C 2.665,-0.181 2.009,-0.649 1.315,-0.534 0.675,-0.427 0.227,0.14 0.252,0.772 c 0.154,3.937 -0.31,4.064 1.04,7.773 1.363,3.691 3.312,7.259 6.002,10.309 2.676,3.04 6.05,5.572 9.741,7.28 3.677,1.746 7.623,2.847 11.686,3.213 4.048,0.378 8.261,0.201 12.372,-1.242 2.044,-0.7 4.078,-1.71 5.86,-3.203 0.93,-0.678 1.703,-1.608 2.479,-2.471 l 1.852,-2.696 c 0.487,-1.04 1.053,-2.021 1.412,-3.148 0.312,-1.161 0.691,-2.293 0.7,-3.561 0.163,-1.236 -0.05,-2.483 -0.228,-3.72 C 52.83,8.125 52.486,6.916 51.896,5.883 50.799,3.759 49.313,1.993 47.69,0.544 46.018,-0.926 44.405,-2.073 42.286,-3.167 42.073,-3.276 41.853,-3.354 41.629,-3.401 l -0.127,-0.025 -7.67,-1.577 c -2.69,-0.549 -4.052,-1.006 -6.073,-2.389 -1.881,-1.265 -3.57,-2.821 -4.883,-4.571 -0.688,-0.881 -1.188,-1.772 -1.718,-2.796 -0.258,-0.517 -0.468,-0.993 -0.569,-1.324 -0.055,-0.163 -0.077,-0.294 -0.068,-0.269 -0.007,0.016 0.061,0.222 -0.141,0.761 -0.191,0.562 -0.86,1.128 -1.173,1.22 -0.332,0.135 -0.4,0.107 -0.378,0.112 0.092,0.003 0.475,0.048 0.883,0.182 0.831,0.251 1.799,0.731 2.813,1.322 0.984,0.573 1.959,1.232 2.794,1.906 0.223,0.184 0.357,0.295 0.501,0.439 l 0.761,0.723 1.536,1.394 c 2.076,1.816 4.211,3.542 6.662,5.129 1.242,0.78 2.536,1.569 4.24,2.161 1.683,0.612 3.356,0.817 4.985,0.867 6.458,0.054 12.558,-2.625 16.806,-7.575 2.086,-2.474 3.577,-5.57 4.128,-8.786 0.545,-3.22 0.261,-6.455 -0.567,-9.442 -0.824,-3 -2.225,-5.767 -4.088,-8.254 -0.919,-1.251 -2.012,-2.404 -3.236,-3.469 -0.684,-0.529 -1.14,-0.986 -2.207,-1.59 -1.129,-0.606 -2.126,-0.824 -2.864,-0.989 -2.912,-0.568 -5.337,-0.878 -7.962,-1.314 l -7.729,-1.27 0.415,0.096 -2.606,-0.535 -2.23,-0.527 c -1.474,-0.381 -2.941,-0.792 -4.354,-1.272 -1.404,-0.485 -2.801,-0.999 -4.043,-1.618 -1.236,-0.6 -2.444,-1.295 -3.16,-1.988 -0.246,-0.169 -0.295,-0.329 -0.452,-0.475 -0.041,-0.045 -0.202,-0.21 -0.148,-0.147 0.04,0.063 0.098,0.171 0.143,0.317 0.11,0.286 0.099,0.786 0.008,1.001 -0.062,0.214 -0.117,0.235 -0.065,0.171 0.26,-0.365 1.496,-1.202 2.615,-1.691 1.113,-0.493 2.326,-0.841 3.607,-1.006 1.348,-0.218 2.318,-0.055 4.657,-0.198 3.958,-0.417 7.415,-1.788 10.549,-3.643 3.139,-1.845 5.948,-4.268 8.23,-7.315 1.094,-1.562 2.119,-3.235 2.749,-5.177 0.383,-0.924 0.542,-1.978 0.754,-2.975 0.083,-1.023 0.234,-2.065 0.138,-3.062 -0.161,-4.066 -1.679,-7.664 -3.676,-10.766 -2.005,-3.12 -4.663,-5.75 -7.88,-7.786 -1.663,-0.953 -3.411,-1.845 -5.465,-2.259 -0.482,-0.151 -1.031,-0.177 -1.555,-0.241 -0.534,-0.059 -1.071,-0.11 -1.501,-0.087 -0.919,-0.011 -1.835,0.029 -2.75,0.127 -3.661,0.35 -7.188,1.524 -10.299,3.144 -3.144,1.6 -5.908,3.623 -8.504,5.718 -5.105,4.137 -9.92,8.972 -13.827,14.363 -3.976,5.366 -7.06,11.219 -9.928,17.005 -2.938,5.733 -5.728,11.718 -7.994,17.827 -2.269,6.123 -4.213,12.372 -5.739,18.73 -1.511,6.355 -2.686,12.816 -3.129,19.457 -0.393,6.596 -0.121,13.587 2.55,20.195 1.334,3.234 3.063,6.171 4.977,8.95 0.99,1.402 1.903,2.683 3.133,4.098 1.201,1.365 2.592,2.622 4.165,3.675 1.57,1.053 3.339,1.878 5.199,2.39 1.893,0.517 3.817,0.647 5.704,0.538 3.759,-0.225 7.553,-1.601 10.507,-4.289 0.73,-0.669 1.391,-1.438 1.972,-2.228 0.537,-0.748 1.066,-1.608 1.479,-2.502 0.836,-1.786 1.368,-3.876 1.192,-6.017 C 11.662,26.126 11.346,24.895 10.867,23.918 10.394,22.933 9.874,22.191 9.401,21.502 8.447,20.141 7.564,18.908 6.717,17.595 5.876,16.301 5.061,14.943 4.272,13.59 3.508,12.25 2.737,10.919 2.482,9.878 1.857,7.363 0.398,4.915 1.459,2.593 l 0.092,-0.2 C 1.989,1.432 1.565,0.297 0.604,-0.141 -0.298,-0.553 0.488,-0.84 0,0"
             style="fill:#c45321;fill-opacity:1;fill-rule:nonzero;stroke:none"
             id="path312" />
        </g>
        <g
           id="g314"
           transform="translate(568.2588,314.0903)">
          <path
             d="m 0,0 -14.996,1.035 c -2.424,0.168 -4.98,-0.789 -7.024,0.465 -2.113,1.129 -4.041,2.635 -6.366,5.865 l 0.029,1.142 c 1.293,1.564 2.731,2.527 4.138,3.138 1.44,0.701 2.84,0.967 4.24,1.092 2.823,0.345 5.083,-1.761 7.433,-2.901 2.364,-1.159 4.628,-2.478 6.798,-3.944 2.133,-1.566 4.262,-3.019 6.208,-4.847 z"
             style="fill:#553721;fill-opacity:1;fill-rule:nonzero;stroke:none"
             id="path316" />
        </g>
        <g
           id="g318"
           transform="translate(580.4229,377.0039)">
          <path
             d="m 0,0 -14.831,-2.446 c -2.398,-0.394 -4.665,-1.913 -6.942,-1.164 -2.317,0.612 -4.539,1.634 -7.545,4.242 l -0.236,1.118 c 0.899,1.82 2.076,3.088 3.305,4.006 1.239,1.014 2.541,1.595 3.875,2.039 2.667,0.986 5.353,-0.544 7.901,-1.111 C -11.905,6.1 -9.398,5.337 -6.95,4.411 -4.514,3.377 -2.107,2.454 0.207,1.123 Z"
             style="fill:#553721;fill-opacity:1;fill-rule:nonzero;stroke:none"
             id="path320" />
        </g>
        <g
           id="g322"
           transform="translate(568.7461,416.6064)">
          <path
             d="m 0,0 -13.453,-6.704 c -2.176,-1.083 -3.895,-3.202 -6.292,-3.156 -2.394,-0.097 -4.818,0.225 -8.459,1.832 l -0.555,0.999 c 0.322,2.004 1.075,3.562 1.979,4.802 0.886,1.333 1.959,2.271 3.103,3.089 2.258,1.727 5.275,1.056 7.878,1.264 2.625,0.198 5.245,0.207 7.859,0.043 2.632,-0.271 5.205,-0.444 7.808,-1.035 z"
             style="fill:#553721;fill-opacity:1;fill-rule:nonzero;stroke:none"
             id="path324" />
        </g>
        <g
           id="g326"
           transform="translate(514.4414,450.4175)">
          <path
             d="m 0,0 -3.438,-14.633 c -0.556,-2.366 -0.025,-5.042 -1.591,-6.857 -1.455,-1.904 -3.251,-3.563 -6.815,-5.337 l -1.122,0.211 c -1.335,1.529 -2.054,3.103 -2.43,4.591 -0.459,1.533 -0.497,2.958 -0.394,4.36 0.114,2.841 2.557,4.733 4.061,6.869 1.524,2.146 3.191,4.168 4.988,6.073 1.889,1.852 3.666,3.72 5.784,5.346 z"
             style="fill:#553721;fill-opacity:1;fill-rule:nonzero;stroke:none"
             id="path328" />
        </g>
        <g
           id="g330"
           transform="translate(492.8525,611.3213)">
          <path
             d="m 0,0 c 15.363,3.955 28.187,1.034 28.187,1.034 0,0 20.04,-11.401 14.858,-26.258 -5.183,-14.856 -19.693,-5.874 -19.693,-5.874 -6.244,6.438 -6.971,7.287 -8.811,8.465 -0.419,0.269 -6.122,3.814 -13.129,3.11 -1.368,-0.138 -3.614,-0.387 -3.974,-1.556 -0.334,-1.093 1.065,-2.737 3.456,-4.145 2.666,-1.57 4.997,-2.295 5.528,-2.419 3.257,-0.76 9.857,-2.716 12.956,-5.009 4.783,-3.54 7.476,-12.513 3.974,-19.521 -4.156,-8.316 -15.187,-10.164 -21.767,-7.601 -1.988,0.775 -1.88,1.303 -12.265,12.61 0,0 -9.914,10.795 -16.238,11.056 -0.192,0.008 -0.679,0.022 -1.153,-0.249 -1.687,-0.963 -1.347,-4.448 -1.266,-5.279 0.402,-4.128 2.549,-7.107 3.109,-7.946 4.136,-6.193 4.143,-18.995 -2.245,-24.703 -6.651,-5.944 -20.182,-4.146 -24.703,2.245 -4.275,6.046 1.634,13.204 -3.455,25.221 -0.68,1.606 -2.14,5.056 -5.01,8.119 -9.234,9.859 -23.258,5.252 -39.386,9.328 0,0 -15.271,3.86 -28.809,17.367 -27.15,27.088 -6.675,84.785 -5.742,87.318 l 50.097,3.11 c 0,0 -8.983,-77.736 43.015,-74.799 0,0 11.402,-1.036 26.084,12.957 14.684,13.992 20.73,17.274 35.932,15.893 4.357,-0.396 7.509,-1.942 9.738,-3.987 3.56,-3.264 5.935,-9.24 3.909,-14.497 C 32.879,13.163 31.743,10.215 28.879,8.635 26.326,7.226 24.67,8.156 17.305,7.771 13.768,7.586 12.004,7.408 10.629,6.846 5.95,4.936 3.944,0.934 3.944,0.934"
             style="fill:#fd9415;fill-opacity:1;fill-rule:nonzero;stroke:none"
             id="path332" />
        </g>
        <g
           id="g334"
           transform="translate(408.9951,689.5571)">
          <path
             d="m 0,0 c -0.551,-8.069 -0.376,-16.329 0.456,-24.395 0.862,-8.075 2.56,-16.05 5.442,-23.453 2.939,-7.326 7.319,-14.109 13.572,-18.383 3.118,-2.115 6.624,-3.572 10.303,-4.441 3.684,-0.912 7.581,-0.918 11.441,-0.798 0.13,0.004 0.259,0.002 0.387,-0.004 l 0.075,-0.005 c 0.214,-0.011 0.963,0.031 1.473,0.085 0.578,0.067 1.162,0.163 1.754,0.279 1.182,0.238 2.374,0.553 3.549,0.966 2.353,0.817 4.655,1.906 6.855,3.218 2.178,1.352 4.327,2.793 6.309,4.494 2.014,1.64 3.871,3.457 5.946,5.41 2.047,1.905 4.112,3.805 6.335,5.62 2.203,1.822 4.541,3.59 7.172,5.094 2.611,1.514 5.536,2.735 8.568,3.419 3.031,0.698 6.081,0.888 9.012,0.854 1.468,-0.023 2.915,-0.095 4.341,-0.213 1.428,-0.088 3.127,-0.308 4.685,-0.73 3.169,-0.821 6.331,-2.48 8.712,-5.039 2.334,-2.547 3.89,-5.605 4.555,-8.992 0.326,-1.69 0.398,-3.472 0.119,-5.238 -0.128,-0.882 -0.345,-1.763 -0.653,-2.608 -0.287,-0.867 -0.611,-1.566 -1.044,-2.377 -0.84,-1.543 -1.986,-3.024 -3.515,-4.191 -0.774,-0.577 -1.587,-1.056 -2.559,-1.444 -0.978,-0.394 -2.092,-0.586 -2.983,-0.625 -1.787,-0.064 -3.052,0.088 -4.403,0.131 -1.327,0.064 -2.64,0.113 -3.968,0.111 -1.328,0.005 -2.716,-0.019 -3.97,-0.07 -0.63,-0.025 -1.228,-0.069 -1.737,-0.147 -0.506,-0.068 -0.882,-0.195 -1.458,-0.417 -2.055,-0.79 -4.091,-2.436 -5.368,-4.215 l -0.141,-0.198 c -0.574,-0.801 -1.689,-0.984 -2.49,-0.41 -0.711,0.511 -0.935,1.449 -0.572,2.213 1.427,3.014 3.597,5.292 6.479,6.922 0.668,0.364 1.562,0.783 2.407,1 0.831,0.232 1.6,0.369 2.339,0.486 1.482,0.222 2.844,0.343 4.263,0.473 1.42,0.122 2.859,0.217 4.283,0.247 1.399,0.034 2.887,0 3.847,0.113 1.358,0.123 2.763,1.351 3.637,3.123 0.921,1.898 1.085,3.726 0.691,5.792 -0.405,2.01 -1.465,4.027 -2.875,5.511 -1.389,1.471 -3.25,2.54 -5.391,3.113 -1.1,0.3 -2.14,0.457 -3.455,0.552 -1.316,0.121 -2.615,0.195 -3.899,0.226 -5.167,0.153 -9.81,-0.738 -14.101,-3.244 -4.321,-2.445 -8.362,-6.059 -12.352,-9.692 -1.945,-1.799 -4.043,-3.82 -6.311,-5.637 -2.216,-1.862 -4.658,-3.487 -7.167,-5.007 -2.539,-1.483 -5.241,-2.746 -8.095,-3.708 -1.425,-0.484 -2.901,-0.868 -4.418,-1.157 -0.759,-0.142 -1.536,-0.244 -2.327,-0.319 -0.86,-0.05 -1.487,-0.122 -2.649,-0.04 l 0.462,-0.008 c -4.385,-0.052 -8.84,0.068 -13.198,1.236 -4.337,1.119 -8.532,2.981 -12.203,5.604 -7.388,5.324 -12.094,13.225 -15.095,21.222 -2.917,8.105 -4.296,16.534 -4.909,24.915 -0.578,8.407 -0.428,16.756 0.589,25.151 0.108,0.896 0.923,1.534 1.818,1.426 0.867,-0.105 1.492,-0.869 1.435,-1.729 z"
             style="fill:#c45321;fill-opacity:1;fill-rule:nonzero;stroke:none"
             id="path336" />
        </g>
        <g
           id="g338"
           transform="translate(358.6025,686.1455)">
          <path
             d="m 0,0 c -2.267,-10.104 -3.945,-20.378 -4.704,-30.547 -0.785,-10.152 -0.601,-20.331 1.419,-29.846 0.978,-4.756 2.542,-9.3 4.729,-13.391 0.566,-1.009 1.074,-2.057 1.74,-2.99 0.611,-0.974 1.25,-1.925 1.982,-2.798 0.669,-0.927 1.436,-1.764 2.224,-2.581 0.72,-0.837 1.654,-1.655 2.528,-2.479 3.555,-3.266 7.478,-6.155 11.671,-8.597 2.096,-1.22 4.261,-2.322 6.453,-3.334 1.101,-0.493 2.206,-0.97 3.317,-1.397 l 1.66,-0.606 2.33,-0.767 -0.826,0.282 c 5.205,-1.367 10.74,-1.832 16.742,-2.209 2.993,-0.216 6.136,-0.408 9.44,-1.04 3.282,-0.614 6.807,-1.666 10.023,-3.617 3.198,-1.946 5.939,-4.667 7.874,-7.638 0.982,-1.484 1.803,-3.035 2.497,-4.587 0.353,-0.813 0.643,-1.464 0.935,-2.301 0.28,-0.817 0.614,-1.605 0.838,-2.447 1.008,-3.316 1.399,-6.89 1.296,-10.234 -0.092,-3.319 -0.636,-6.438 -0.549,-8.584 0.059,-1.055 0.244,-1.766 0.62,-2.455 0.358,-0.691 0.991,-1.406 1.855,-2.022 1.671,-1.289 4.065,-2.143 6.482,-2.521 2.434,-0.409 4.967,-0.236 7.19,0.398 2.292,0.629 3.949,1.828 5.274,3.638 2.59,3.768 3.468,9.637 2.371,14.686 -0.256,1.274 -0.673,2.488 -1.219,3.551 -0.156,0.276 -0.235,0.503 -0.449,0.828 l -0.632,1.066 c -0.419,0.732 -0.802,1.491 -1.132,2.277 -0.66,1.571 -1.132,3.246 -1.322,4.976 -0.145,1.696 -0.293,3.354 0.413,5.487 0.186,0.526 0.501,1.132 1.005,1.691 0.491,0.564 1.29,1.05 2.04,1.226 0.378,0.095 0.75,0.131 1.093,0.129 0.332,0 0.51,-0.05 0.772,-0.076 0.474,-0.075 1,-0.108 1.411,-0.258 1.802,-0.455 3.226,-1.276 4.656,-2.049 2.785,-1.635 5.238,-3.538 7.585,-5.55 1.167,-1.015 2.299,-2.05 3.413,-3.147 l 3.169,-3.25 6.236,-6.431 c 0.987,-1.061 2.068,-2.174 2.321,-2.132 0.985,-0.38 2.211,-0.728 3.434,-0.875 2.475,-0.323 5.134,-0.184 7.565,0.601 4.934,1.509 8.429,5.751 8.723,10.819 0.354,4.98 -1.824,10.569 -6.117,12.579 -2.37,1.236 -5.117,2.241 -7.847,3.121 -0.685,0.217 -1.376,0.424 -2.061,0.609 -0.826,0.199 -1.687,0.52 -2.409,0.821 -1.516,0.623 -2.912,1.376 -4.326,2.233 -0.724,0.446 -1.432,0.942 -2.121,1.566 -0.675,0.651 -1.39,1.297 -1.927,2.656 -0.255,0.659 -0.393,1.829 0.167,2.85 0.552,0.974 1.283,1.366 1.815,1.647 1.104,0.519 1.975,0.649 2.813,0.791 3.244,0.522 6.695,0.29 9.87,-0.545 1.607,-0.404 3.158,-0.959 4.689,-1.672 1.576,-0.696 3.186,-1.877 4.357,-2.946 2.34,-2.109 4.43,-4.136 6.623,-6.186 l -0.645,0.519 c 1.553,-0.814 3.678,-1.562 5.458,-1.829 1.845,-0.279 3.508,-0.124 4.818,0.487 1.31,0.618 2.425,1.746 3.31,3.356 0.832,1.714 1.555,3.485 1.61,5.271 0.4,3.579 -1.297,7.357 -3.804,10.757 -2.565,3.362 -5.983,6.492 -9.537,8.979 l -0.049,0.035 0.693,-0.269 c -2.029,0.481 -4.388,0.819 -6.633,1.029 -2.275,0.211 -4.571,0.322 -6.867,0.287 -4.594,-0.035 -9.188,-0.57 -13.687,-1.562 l -0.023,-0.005 c -0.943,-0.207 -1.876,0.388 -2.084,1.331 -0.2,0.909 0.352,1.81 1.235,2.06 4.689,1.315 9.521,2.153 14.396,2.465 2.437,0.173 4.885,0.193 7.336,0.105 2.479,-0.102 4.843,-0.283 7.457,-0.749 0.181,-0.032 0.351,-0.09 0.507,-0.171 l 0.186,-0.098 0.084,-0.044 c 2.324,-1.219 4.351,-2.567 6.353,-4.133 1.977,-1.562 3.888,-3.265 5.585,-5.249 1.646,-2.028 3.261,-4.183 4.3,-6.798 1.051,-2.555 1.794,-5.462 1.536,-8.401 -0.083,-2.963 -1.092,-5.727 -2.304,-8.24 -1.359,-2.542 -3.59,-5.065 -6.58,-6.45 -2.985,-1.418 -6.267,-1.492 -9.057,-0.963 -1.413,0.259 -2.754,0.659 -4.021,1.181 -1.309,0.525 -2.411,1.067 -3.763,1.891 l -0.086,0.052 c -0.211,0.129 -0.402,0.293 -0.559,0.467 -1.976,2.219 -3.976,4.538 -5.893,6.61 -0.948,1.026 -1.708,1.714 -2.806,2.358 -1.115,0.661 -2.336,1.246 -3.589,1.693 -2.531,0.879 -5.153,1.269 -7.827,0.937 -0.633,-0.061 -1.254,-0.193 -1.507,-0.303 -0.132,-0.039 -0.052,-0.086 0.133,0.229 0.204,0.353 0.112,0.717 0.107,0.679 -0.005,-0.045 0.328,-0.529 0.742,-0.881 0.415,-0.381 0.93,-0.751 1.475,-1.087 1.134,-0.692 2.422,-1.266 3.684,-1.733 0.666,-0.237 1.216,-0.421 1.848,-0.541 l 2.266,-0.529 c 3.001,-0.758 5.939,-1.662 8.912,-3.091 1.458,-0.689 3.142,-1.778 4.344,-3.155 1.228,-1.342 2.161,-2.843 2.89,-4.407 1.459,-3.131 2.05,-6.573 1.822,-10.021 -0.14,-1.723 -0.505,-3.443 -1.107,-5.099 -0.658,-1.633 -1.509,-3.213 -2.629,-4.591 -2.219,-2.781 -5.267,-4.737 -8.445,-5.93 -3.198,-1.21 -6.606,-1.729 -10.066,-1.455 -1.744,0.193 -3.434,0.56 -5.225,1.275 -0.503,0.221 -1.125,0.575 -1.594,0.947 -0.459,0.362 -0.813,0.703 -1.123,1.017 -0.619,0.63 -1.107,1.194 -1.623,1.773 -3.898,4.533 -7.535,9.365 -11.608,13.322 -2.06,2.002 -4.235,3.914 -6.561,5.367 -1.142,0.716 -2.374,1.341 -3.483,1.593 -0.293,0.115 -0.527,0.084 -0.787,0.137 -0.107,0.012 -0.296,0.054 -0.338,0.048 -0.03,-0.002 -0.031,-0.005 -0.015,-0.003 0.029,-0.004 0.168,0.07 0.168,0.07 0.018,-0.003 -0.04,-0.061 -0.083,-0.245 -0.22,-0.722 -0.188,-2.136 0.031,-3.379 0.2,-1.229 0.607,-2.436 1.163,-3.588 0.279,-0.575 0.598,-1.135 0.952,-1.679 l 0.577,-0.815 c 0.223,-0.282 0.48,-0.724 0.715,-1.083 0.943,-1.518 1.617,-3.113 2.09,-4.73 0.987,-3.236 1.29,-6.57 1.06,-9.931 -0.228,-3.345 -1.092,-6.798 -3.019,-9.966 -1.944,-3.175 -5.333,-5.782 -8.77,-6.858 -3.459,-1.176 -7.024,-1.462 -10.496,-1.044 -3.468,0.434 -6.938,1.418 -10.137,3.616 -1.591,1.068 -3.123,2.512 -4.26,4.406 -1.166,1.867 -1.753,4.119 -1.902,6.035 -0.229,3.827 0.27,6.639 0.202,9.288 -0.029,2.618 -0.398,5.035 -1.21,7.406 -0.413,1.148 -0.908,2.383 -1.495,3.577 -0.568,1.15 -1.194,2.219 -1.898,3.197 -1.405,1.97 -3.103,3.447 -5.026,4.54 -3.858,2.174 -9.277,2.509 -15.19,2.796 -2.957,0.144 -6.035,0.291 -9.176,0.584 -3.154,0.318 -6.359,0.828 -9.554,1.569 l -0.826,0.283 c 0.118,-0.059 0.242,-0.111 0.368,-0.155 l 0.176,-0.055 -0.073,0.02 -0.287,0.08 -0.552,0.16 -1.059,0.328 -2.046,0.701 c -1.344,0.485 -2.654,1.018 -3.954,1.572 -2.595,1.115 -5.08,2.438 -7.518,3.839 -4.845,2.844 -9.45,6.147 -13.548,10.04 -1.017,0.985 -2.042,1.912 -3.034,3.061 -1.014,1.086 -1.992,2.201 -2.851,3.406 -0.928,1.159 -1.738,2.389 -2.505,3.644 -0.827,1.224 -1.464,2.538 -2.151,3.828 -2.634,5.219 -4.234,10.779 -5.189,16.309 -1.844,11.112 -1.128,22.149 0.777,32.735 2.041,10.587 5.12,20.826 9.692,30.523 0.335,0.71 1.18,1.014 1.89,0.679 0.614,-0.289 0.924,-0.96 0.782,-1.595 z"
             style="fill:#c45321;fill-opacity:1;fill-rule:nonzero;stroke:none"
             id="path340" />
        </g>
        <g
           id="g342"
           transform="translate(462.0947,521.3198)">
          <path
             d="m 0,0 -7.158,12.28 c -1.157,1.985 -3.263,3.476 -3.368,5.741 -0.24,2.253 -0.086,4.56 1.205,8.095 l 0.908,0.585 c 1.91,-0.18 3.428,-0.793 4.653,-1.57 1.314,-0.753 2.265,-1.707 3.108,-2.736 C 1.117,20.371 0.671,17.483 1.028,15.04 1.378,12.575 1.549,10.103 1.555,7.626 1.463,5.126 1.458,2.688 1.062,0.195 Z"
             style="fill:#553721;fill-opacity:1;fill-rule:nonzero;stroke:none"
             id="path344" />
        </g>
        <g
           id="g346"
           transform="translate(517.7695,545.2334)">
          <path
             d="m 0,0 -9.794,10.302 c -1.582,1.665 -3.976,2.631 -4.599,4.811 -0.752,2.137 -1.133,4.418 -0.691,8.156 l 0.749,0.778 c 1.901,0.264 3.519,0.017 4.891,-0.457 1.45,-0.43 2.596,-1.14 3.652,-1.947 2.188,-1.562 2.42,-4.476 3.329,-6.771 0.908,-2.318 1.644,-4.684 2.22,-7.092 C 0.243,5.325 0.799,2.952 0.988,0.435 Z"
             style="fill:#553721;fill-opacity:1;fill-rule:nonzero;stroke:none"
             id="path348" />
        </g>
        <g
           id="g350"
           transform="translate(542.542,575.4092)">
          <path
             d="m 0,0 -12.393,6.961 c -2.003,1.126 -4.573,1.345 -5.811,3.245 -1.348,1.821 -2.384,3.888 -3.062,7.59 l 0.487,0.964 c 1.739,0.813 3.358,1.052 4.807,1.004 1.514,0.016 2.818,-0.325 4.066,-0.785 2.551,-0.85 3.629,-3.565 5.175,-5.491 1.549,-1.948 2.949,-3.993 4.209,-6.125 1.186,-2.202 2.418,-4.306 3.339,-6.656 z"
             style="fill:#553721;fill-opacity:1;fill-rule:nonzero;stroke:none"
             id="path352" />
        </g>
        <g
           id="g354"
           transform="translate(540.1348,635.8521)">
          <path
             d="m 0,0 -13.272,-5.086 c -2.147,-0.822 -3.957,-2.66 -6.209,-2.399 -2.263,0.127 -4.515,0.65 -7.796,2.494 L -27.708,-4 c 0.486,1.856 1.336,3.255 2.299,4.339 0.955,1.175 2.051,1.96 3.202,2.625 2.282,1.421 5.061,0.515 7.529,0.474 2.49,-0.052 4.956,-0.282 7.402,-0.675 2.453,-0.493 4.857,-0.891 7.255,-1.683 z"
             style="fill:#553721;fill-opacity:1;fill-rule:nonzero;stroke:none"
             id="path356" />
        </g>
        <g
           id="g358"
           transform="translate(401.2119,791.4507)">
          <path
             d="m 0,0 c -3.694,3.637 -6.923,5.812 -10.676,7.73 -14.31,7.312 -30.123,12.368 -46.187,11.956 -23.22,-0.596 -44.498,-12.337 -64.715,-23.772 3.469,-3.048 8.732,-2.095 13.316,-2.648 10.888,-1.314 18.185,-11.341 25.287,-19.697 17.087,-20.103 42.255,-35.192 68.579,-33.408 3.777,0.256 18.897,1.768 25.874,12.631 C 20.22,-33.594 11.928,-11.741 0,0"
             style="fill:#8cc63f;fill-opacity:1;fill-rule:nonzero;stroke:none"
             id="path360" />
        </g>
        <g
           id="g362"
           transform="translate(287.9287,788.2661)">
          <path
             d="m 0,0 c 0.408,-0.016 0.828,-0.028 1.254,-0.041 1.357,-0.04 2.759,-0.082 4.161,-0.251 11.094,-1.339 18.63,-10.358 25.28,-18.316 0.708,-0.848 1.412,-1.689 2.112,-2.514 18.483,-21.741 43.079,-33.802 65.858,-32.259 3.971,0.268 17.385,1.865 23.336,11.131 7.588,11.819 0.43,31.826 -11.019,43.096 -3.158,3.108 -6.016,5.179 -9.867,7.147 C 85.36,16.042 70.371,19.946 56.504,19.59 36.228,19.071 17.173,9.565 0,0 m 94.766,-60.075 c -23.554,0 -48.286,12.737 -66.957,34.703 -0.713,0.839 -1.429,1.694 -2.149,2.556 -6.155,7.366 -12.52,14.981 -21.032,16.01 -1.106,0.133 -2.302,0.169 -3.567,0.206 -3.804,0.113 -8.114,0.24 -11.521,3.233 l -3.469,3.048 4.02,2.273 C 9.62,13 31.755,25.52 56.335,26.151 c 14.969,0.374 31.024,-3.76 47.767,-12.315 4.429,-2.264 7.864,-4.751 11.485,-8.314 13.225,-13.021 21.549,-36.344 11.934,-51.317 -7.397,-11.522 -22.335,-13.722 -28.414,-14.134 -1.44,-0.097 -2.889,-0.146 -4.341,-0.146"
             style="fill:#7caa37;fill-opacity:1;fill-rule:nonzero;stroke:none"
             id="path364" />
        </g>
        <g
           id="g366"
           transform="translate(678.9424,690.0039)">
          <path
             d="m 0,0 c 0,0 3.116,3.152 8.107,3.514 1.467,0.107 3.182,-0.266 6.569,-1.178 7.052,-1.899 8.326,-3.281 11.161,-2.739 3.182,0.609 5.155,3.035 5.71,3.716 3.52,4.328 3.117,10.683 0.768,14.849 -1.471,2.609 -3.963,5.031 -7.944,6.741 C 18.825,27.286 13.814,28.459 9.979,28.591 5.496,28.746 -2.938,28.295 -18.562,20.648 -33.008,13.577 -43.295,5.397 -49.31,0.105 c -8.835,-7.775 -16.564,-14.713 -22.374,-26.471 -4.174,-8.449 -7.078,-16.445 -4.487,-24.805 2.294,-7.404 14.481,-13.249 22.567,-9.695 7.766,3.413 11.688,15.468 9.696,22.567 -0.271,0.963 -1.377,4.426 -0.489,8.436 0.178,0.806 0.928,4.192 2.811,4.581 0.53,0.11 0.983,-0.053 1.162,-0.119 5.874,-2.187 11.895,-15.392 11.895,-15.392 6.306,-13.832 6.042,-14.297 7.676,-15.636 5.409,-4.433 16.36,-6.079 22.825,0.476 5.447,5.522 5.667,14.796 2.25,19.597 -2.213,3.11 -7.827,6.977 -10.66,8.692 -0.462,0.28 -2.434,1.677 -4.462,3.973 -1.819,2.06 -2.632,4.037 -1.981,4.964 0.696,0.989 2.889,0.534 4.218,0.244 6.813,-1.487 11.094,-6.575 11.406,-6.956 1.37,-1.674 1.795,-2.697 5.696,-10.673 0,0 10.905,-12.91 20.343,-0.514 5.675,7.453 1.834,21.4 -5.928,29.279 C 12.64,3.021 -2.337,0.625 -4,0.331"
             style="fill:#fd9415;fill-opacity:1;fill-rule:nonzero;stroke:none"
             id="path368" />
        </g>
        <g
           id="g370"
           transform="translate(677.1035,691.0547)">
          <path
             d="m 0,0 c 1.371,1.36 2.717,2.247 4.32,3.003 1.582,0.73 3.278,1.208 5.079,1.372 2.039,0.119 3.624,-0.277 5.159,-0.604 1.518,-0.352 3.015,-0.721 4.537,-1.153 1.503,-0.424 3.027,-0.931 4.424,-1.383 0.694,-0.221 1.337,-0.407 1.821,-0.472 0.487,-0.062 0.831,-0.05 1.346,0.07 0.995,0.226 1.967,0.739 2.845,1.505 0.446,0.385 0.835,0.803 1.24,1.309 0.359,0.473 0.672,0.941 0.936,1.464 1.038,2.072 1.289,4.674 0.741,7.115 -0.53,2.457 -1.748,4.578 -3.628,6.253 -1.852,1.698 -4.297,2.743 -7.091,3.777 -2.708,0.988 -5.491,1.769 -8.239,2.146 C 8.055,25.155 2.275,24.117 -3.306,22.375 -8.902,20.613 -14.38,18.184 -19.696,15.464 -30.373,10.04 -40.124,3.026 -49.022,-5.081 c -4.471,-4.056 -8.773,-8.179 -12.345,-12.822 -3.612,-4.636 -6.307,-9.783 -8.567,-15.273 -2.222,-5.385 -3.604,-10.953 -2.537,-16.073 0.12,-0.64 0.284,-1.271 0.483,-1.893 0.083,-0.344 0.197,-0.568 0.3,-0.799 0.113,-0.234 0.167,-0.478 0.334,-0.711 0.473,-0.966 1.315,-1.866 2.174,-2.72 1.844,-1.645 4.166,-2.999 6.632,-3.729 2.448,-0.764 5.042,-0.994 7.238,-0.463 2.185,0.425 3.998,1.795 5.588,3.718 1.532,1.95 2.737,4.352 3.424,6.892 0.728,2.519 0.965,5.214 0.595,7.51 -0.128,0.813 -0.821,2.84 -1.003,4.593 -0.24,1.803 -0.229,3.679 0.069,5.544 0.37,1.828 0.662,3.528 2.122,5.723 0.404,0.548 0.946,1.156 1.761,1.684 0.818,0.536 2.035,0.891 3.083,0.821 0.523,-0.025 1.012,-0.125 1.441,-0.261 0.438,-0.138 0.574,-0.237 0.87,-0.364 0.499,-0.245 1.073,-0.488 1.457,-0.782 1.778,-1.131 2.975,-2.427 4.121,-3.722 1.139,-1.299 2.08,-2.641 2.995,-3.993 0.904,-1.354 1.72,-2.732 2.506,-4.123 l 1.134,-2.106 0.542,-1.071 0.266,-0.544 0.133,-0.278 c 0.013,-0.027 0.066,-0.138 0.045,-0.095 -0.026,0.053 -0.058,0.104 -0.093,0.152 l 0.189,-0.357 6.066,-13.426 c 0.234,-0.466 0.404,-0.704 0.432,-0.724 0.046,-0.075 0.568,-0.447 0.905,-0.698 0.786,-0.523 1.652,-1.01 2.599,-1.373 1.873,-0.753 3.943,-1.195 5.965,-1.197 4.079,-0.053 7.794,1.538 9.975,4.649 2.233,3.037 2.993,7.556 1.974,11.221 -0.523,1.897 -1.287,2.988 -2.999,4.585 -1.613,1.501 -3.511,2.938 -5.449,4.269 l -1.466,0.973 -0.734,0.463 c -0.366,0.22 -0.738,0.486 -1.016,0.694 -1.173,0.88 -2.195,1.8 -3.18,2.801 -0.953,0.98 -1.946,2.074 -2.815,3.495 -0.426,0.715 -0.841,1.503 -1.136,2.62 -0.132,0.582 -0.259,1.264 -0.128,2.215 0.089,0.922 0.756,2.261 1.726,2.938 0.943,0.69 1.763,0.853 2.385,0.954 0.639,0.091 1.138,0.08 1.595,0.053 0.912,-0.057 1.65,-0.206 2.328,-0.348 1.354,-0.307 2.824,-0.717 4.131,-1.293 2.67,-1.121 5.056,-2.695 7.156,-4.571 0.522,-0.478 1.035,-0.962 1.531,-1.493 0.254,-0.275 0.488,-0.526 0.772,-0.875 0.225,-0.282 0.461,-0.58 0.688,-0.904 0.934,-1.329 1.502,-2.533 2.079,-3.667 l 3.263,-6.731 -0.426,0.653 c 0.855,-0.968 2.129,-2.096 3.328,-2.894 1.229,-0.834 2.53,-1.419 3.777,-1.707 0.631,-0.196 1.23,-0.163 1.835,-0.219 0.581,0.106 1.178,0.092 1.736,0.35 0.586,0.111 1.119,0.51 1.686,0.796 0.553,0.339 1.057,0.861 1.616,1.257 l 1.489,1.653 c 0.357,0.567 0.784,1.058 1.035,1.706 0.619,1.203 0.963,2.624 1.104,4.11 0.303,2.978 -0.179,6.211 -1.188,9.278 -2.058,6.14 -5.935,11.856 -11.607,15.085 -2.836,1.606 -6.006,2.714 -9.315,3.356 -3.306,0.61 -3.102,0.466 -6.466,0.153 L 1.14,-2.42 c -0.662,-0.061 -1.249,0.426 -1.311,1.088 -0.057,0.611 0.354,1.158 0.939,1.287 3.637,0.809 3.641,1.264 7.359,0.924 3.704,-0.356 7.437,-1.277 10.875,-3.002 3.426,-1.713 6.556,-4.189 9.009,-7.153 2.483,-2.941 4.442,-6.284 5.758,-9.911 1.321,-3.611 2.176,-7.507 1.848,-11.615 -0.147,-2.038 -0.58,-4.142 -1.515,-6.132 -0.396,-1.014 -1.061,-1.945 -1.664,-2.862 l -2.017,-2.346 c -0.834,-0.695 -1.595,-1.45 -2.538,-2.05 -0.987,-0.565 -1.932,-1.185 -3.088,-1.5 -1.092,-0.446 -2.283,-0.552 -3.458,-0.688 -1.162,0.024 -2.351,0.047 -3.437,0.338 -2.208,0.49 -4.18,1.424 -5.897,2.558 -1.748,1.175 -3.187,2.373 -4.697,4.047 -0.152,0.168 -0.277,0.352 -0.373,0.544 l -0.054,0.11 -3.293,6.635 c -1.15,2.328 -1.898,3.462 -3.649,4.978 -1.612,1.414 -3.442,2.584 -5.36,3.362 -0.971,0.417 -1.906,0.659 -2.971,0.897 -0.535,0.111 -1.021,0.188 -1.348,0.201 -0.161,0.011 -0.287,0 -0.262,-0.002 0.013,0.01 0.217,-0.003 0.661,0.312 0.469,0.309 0.824,1.059 0.834,1.367 0.043,0.336 0.001,0.392 0.011,0.372 0.024,-0.083 0.158,-0.422 0.38,-0.763 0.43,-0.699 1.102,-1.469 1.888,-2.254 0.76,-0.761 1.598,-1.495 2.417,-2.095 0.221,-0.16 0.355,-0.255 0.522,-0.352 l 0.845,-0.522 1.644,-1.069 c 2.163,-1.46 4.256,-2.996 6.299,-4.855 1.013,-0.948 2.046,-1.941 2.999,-3.355 0.966,-1.392 1.557,-2.873 1.995,-4.351 1.609,-5.892 0.629,-12.118 -2.874,-17.197 -1.758,-2.505 -4.23,-4.615 -7.038,-5.896 -2.814,-1.275 -5.841,-1.795 -8.772,-1.758 -2.944,0.03 -5.812,0.644 -8.536,1.747 -1.365,0.539 -2.684,1.26 -3.952,2.123 -0.649,0.498 -1.177,0.804 -1.988,1.635 -0.826,0.886 -1.266,1.746 -1.595,2.38 -1.22,2.526 -2.09,4.669 -3.122,6.965 l -3.026,6.762 0.188,-0.357 -1.118,2.255 -1.02,1.911 c -0.704,1.258 -1.433,2.5 -2.213,3.677 -0.783,1.165 -1.59,2.32 -2.455,3.307 -0.848,0.985 -1.774,1.922 -2.581,2.41 -0.214,0.185 -0.372,0.191 -0.543,0.298 -0.051,0.027 -0.242,0.134 -0.17,0.1 0.067,-0.021 0.179,-0.047 0.323,-0.053 0.289,-0.032 0.743,0.098 0.918,0.234 0.181,0.108 0.187,0.163 0.141,0.1 -0.272,-0.326 -0.739,-1.658 -0.916,-2.8 -0.182,-1.136 -0.207,-2.33 -0.049,-3.541 0.125,-1.285 0.509,-2.132 0.941,-4.307 0.574,-3.72 0.153,-7.212 -0.787,-10.526 -0.929,-3.316 -2.468,-6.47 -4.704,-9.291 -1.165,-1.378 -2.447,-2.719 -4.071,-3.763 -0.753,-0.573 -1.678,-0.973 -2.539,-1.408 -0.914,-0.323 -1.831,-0.712 -2.768,-0.864 -3.757,-0.834 -7.414,-0.314 -10.731,0.764 -3.338,1.08 -6.384,2.877 -9.023,5.328 -1.272,1.291 -2.51,2.675 -3.384,4.453 -0.254,0.405 -0.411,0.901 -0.595,1.364 -0.183,0.474 -0.36,0.953 -0.443,1.353 -0.23,0.837 -0.416,1.684 -0.547,2.545 -0.562,3.433 -0.339,6.941 0.391,10.177 0.705,3.261 1.889,6.278 3.179,9.157 2.551,5.666 5.811,11.237 9.8,16.11 3.948,4.931 8.557,9.163 13.156,13.183 4.534,4.07 9.335,8.064 14.375,11.611 5.053,3.552 10.299,6.838 15.745,9.767 5.448,2.915 11.073,5.548 17.04,7.556 5.937,1.95 12.396,3.388 19.084,2.54 3.279,-0.441 6.384,-1.314 9.387,-2.394 1.52,-0.567 2.912,-1.093 4.503,-1.876 1.539,-0.77 3.023,-1.738 4.366,-2.922 1.342,-1.183 2.523,-2.601 3.44,-4.179 0.93,-1.606 1.512,-3.334 1.868,-5.087 C 38.478,9.824 38.134,6.023 36.388,2.672 35.952,1.844 35.408,1.054 34.826,0.332 34.271,-0.34 33.612,-1.031 32.895,-1.625 31.463,-2.821 29.68,-3.812 27.68,-4.166 c -0.973,-0.198 -2.175,-0.205 -3.184,-0.002 -1.016,0.194 -1.819,0.491 -2.563,0.757 -1.475,0.544 -2.816,1.053 -4.221,1.513 -1.386,0.456 -2.825,0.875 -4.253,1.269 C 12.05,-0.253 10.646,0.13 9.633,0.113 7.182,0.077 4.592,0.82 2.724,-0.709 L 2.563,-0.841 C 1.79,-1.474 0.65,-1.36 0.017,-0.587 -0.577,0.138 -0.65,-0.649 0,0"
             style="fill:#c45321;fill-opacity:1;fill-rule:nonzero;stroke:none"
             id="path372" />
        </g>
        <g
           id="g374"
           transform="translate(614.2031,615.3267)">
          <path
             d="m 0,0 -2.671,13.964 c -0.432,2.257 -1.923,4.364 -1.268,6.536 0.522,2.205 1.434,4.33 3.828,7.236 l 1.05,0.25 C 2.682,27.181 3.91,26.098 4.808,24.958 5.796,23.811 6.377,22.594 6.829,21.344 7.825,18.846 6.445,16.27 5.97,13.846 5.48,11.405 4.819,9.016 4.002,6.678 3.084,4.35 2.27,2.052 1.067,-0.169 Z"
             style="fill:#553721;fill-opacity:1;fill-rule:nonzero;stroke:none"
             id="path376" />
        </g>
        <g
           id="g378"
           transform="translate(674.6758,619.3789)">
          <path
             d="m 0,0 -5.814,12.974 c -0.94,2.097 -2.876,3.804 -2.74,6.068 10e-4,2.266 0.399,4.544 2.059,7.923 l 0.966,0.486 c 1.881,-0.383 3.325,-1.154 4.461,-2.056 C 0.157,24.506 1.003,23.456 1.73,22.343 3.275,20.142 2.525,17.317 2.621,14.849 2.707,12.36 2.613,9.883 2.356,7.42 1.999,4.943 1.735,2.519 1.077,0.081 Z"
             style="fill:#553721;fill-opacity:1;fill-rule:nonzero;stroke:none"
             id="path380" />
        </g>
        <g
           id="g382"
           transform="translate(708.0771,639.6113)">
          <path
             d="m 0,0 -9.377,10.687 c -1.515,1.728 -3.868,2.789 -4.404,4.992 -0.666,2.166 -0.956,4.461 -0.365,8.179 l 0.78,0.747 c 1.91,0.189 3.517,-0.123 4.869,-0.65 1.433,-0.489 2.55,-1.244 3.573,-2.093 2.125,-1.649 2.239,-4.569 3.057,-6.9 0.814,-2.353 1.455,-4.747 1.935,-7.177 0.388,-2.473 0.849,-4.867 0.938,-7.39 z"
             style="fill:#553721;fill-opacity:1;fill-rule:nonzero;stroke:none"
             id="path384" />
        </g>
        <g
           id="g386"
           transform="translate(725.8984,697.4326)">
          <path
             d="m 0,0 -14.212,-0.386 c -2.298,-0.062 -4.617,-1.194 -6.654,-0.199 -2.093,0.872 -4.043,2.114 -6.526,4.944 l -0.077,1.078 c 1.075,1.59 2.342,2.627 3.612,3.33 1.292,0.79 2.586,1.168 3.892,1.412 2.626,0.581 4.946,-1.197 7.262,-2.056 2.33,-0.877 4.581,-1.914 6.757,-3.097 2.15,-1.281 4.287,-2.456 6.285,-4 z"
             style="fill:#553721;fill-opacity:1;fill-rule:nonzero;stroke:none"
             id="path388" />
        </g>
        <g
           id="g390"
           transform="translate(605.125,572.6733)">
          <path
             d="m 0,0 281,-109 64,-23 -44,-46 -346,140"
             style="fill:#8cc63f;fill-opacity:1;fill-rule:nonzero;stroke:none"
             id="path392" />
        </g>
        <g
           id="g394"
           transform="translate(907.0127,390.5386)">
          <path
             d="m 0,0 -348.2,140.89 1.625,3.489 344.8,-136.109 38.635,40.392 -58.931,21.179 -281.082,109.031 4.531,4.526 279,-107 68.986,-24.791 z"
             style="fill:#7caa37;fill-opacity:1;fill-rule:nonzero;stroke:none"
             id="path396" />
        </g>
        <g
           id="g398"
           transform="translate(876.3672,485.9155)">
          <path
             d="m 0,0 c 0.691,3.527 1.687,6.034 3.085,8.6 5.328,9.783 12.398,18.862 21.753,24.912 13.519,8.744 30.29,10.35 46.332,11.717 C 70.378,42.127 66.992,40.613 64.586,38.503 58.87,33.492 58.617,24.899 57.822,17.338 55.909,-0.85 47.411,-19.332 31.65,-28.61 29.389,-29.941 20.145,-34.992 11.902,-31.504 1.573,-27.135 -2.231,-11.386 0,0"
             style="fill:#8cc63f;fill-opacity:1;fill-rule:nonzero;stroke:none"
             id="path400" />
        </g>
        <g
           id="g402"
           transform="translate(902.4395,517.5171)">
          <path
             d="m 0,0 c -8.072,-5.223 -15.125,-13.32 -20.99,-24.089 -1.434,-2.635 -2.26,-4.939 -2.85,-7.951 -2.142,-10.929 1.589,-25.178 10.556,-28.972 7.031,-2.973 15.332,1.361 17.708,2.761 13.642,8.029 22.995,24.553 25.065,44.227 0.078,0.746 0.152,1.503 0.225,2.266 0.692,7.154 1.476,15.263 7.3,20.369 0.735,0.646 1.522,1.219 2.283,1.773 0.239,0.174 0.474,0.345 0.702,0.514 C 26.43,9.653 11.808,7.636 0,0 m 6.732,-62.171 c -3.638,-2.142 -13.046,-6.728 -21.789,-3.03 -11.361,4.806 -15.721,21.41 -13.248,34.036 0.677,3.454 1.67,6.22 3.321,9.251 6.232,11.444 13.824,20.1 22.513,25.734 14.314,9.257 31.878,10.753 47.375,12.073 l 3.19,0.272 -0.792,-3.102 C 46.522,10.018 44.106,8.258 41.975,6.706 41.265,6.189 40.594,5.701 40.013,5.191 35.544,1.273 34.882,-5.574 34.241,-12.196 c -0.074,-0.776 -0.148,-1.545 -0.228,-2.305 -2.091,-19.875 -11.26,-36.84 -24.739,-46.055 -0.831,-0.568 -1.678,-1.108 -2.542,-1.615"
             style="fill:#7caa37;fill-opacity:1;fill-rule:nonzero;stroke:none"
             id="path404" />
        </g>
        <g
           id="g406"
           transform="translate(863.1016,447.4604)">
          <path
             d="m 0,0 c -2.199,1.282 -3.646,2.532 -5.038,4.063 -5.309,5.839 -9.741,12.68 -11.615,20.346 -2.709,11.079 0.114,22.674 2.927,33.727 1.891,-1.251 2.118,-3.868 2.97,-5.969 C -8.73,47.178 -3.039,45.012 1.835,42.723 13.563,37.215 23.954,27.233 26.5,14.53 26.865,12.708 28.097,5.348 23.848,0.643 18.523,-5.253 7.1,-4.139 0,0"
             style="fill:#8cc63f;fill-opacity:1;fill-rule:nonzero;stroke:none"
             id="path408" />
        </g>
        <g
           id="g410"
           transform="translate(848.0137,472.2515)">
          <path
             d="m 0,0 c 1.619,-6.616 5.398,-13.217 11.241,-19.644 1.43,-1.572 2.78,-2.661 4.658,-3.755 6.816,-3.974 17.218,-4.788 21.841,0.33 3.624,4.014 2.653,10.576 2.268,12.491 C 37.806,0.417 28.922,10.517 16.238,16.474 15.757,16.7 15.267,16.925 14.773,17.151 10.147,19.276 4.903,21.686 2.84,26.77 2.579,27.412 2.378,28.072 2.185,28.709 2.123,28.91 2.063,29.107 2.004,29.299 -0.316,19.929 -2.366,9.676 0,0 m 43.168,-9.943 c 0.588,-2.933 1.47,-10.295 -3.037,-15.285 -5.857,-6.486 -17.981,-5.545 -25.855,-0.956 -2.153,1.256 -3.774,2.563 -5.419,4.372 -6.21,6.831 -10.237,13.922 -11.988,21.047 -2.867,11.729 0.214,23.83 2.932,34.507 L 0.36,35.94 2.251,34.689 c 1.857,-1.229 2.474,-3.255 3.017,-5.043 0.18,-0.595 0.351,-1.157 0.557,-1.665 1.583,-3.9 6.012,-5.935 10.294,-7.902 0.502,-0.23 0.999,-0.459 1.489,-0.689 12.814,-6.018 22.036,-16.097 25.07,-27.257 0.186,-0.688 0.35,-1.382 0.49,-2.076"
             style="fill:#7caa37;fill-opacity:1;fill-rule:nonzero;stroke:none"
             id="path412" />
        </g>
      </g>
    </g>
  </g>
</svg>
